<?xml version="1.0" encoding="utf-8"?>
<!-- Generator: Adobe Illustrator 21.1.0, SVG Export Plug-In . SVG Version: 6.00 Build 0)  -->
<svg version="1.1" xmlns="http://www.w3.org/2000/svg" xmlns:xlink="http://www.w3.org/1999/xlink" x="0px" y="0px"
	 viewBox="0 0 10.1 13" style="enable-background:new 0 0 10.1 13;" xml:space="preserve">
<g id="Layer_1">
</g>
<g id="Layer_2">
</g>
<g id="Layer_3">
</g>
<g id="Layer_4">
	<path d="M9.7,5.5L5.9,0.7C5.7,0.5,5.4,0.4,5.1,0.4c-0.3,0-0.7,0.1-0.9,0.4L0.4,5.5C0.1,5.9,0.2,6.6,0.6,6.9C0.8,7,1,7.1,1.2,7.1
		C1.5,7.1,1.8,7,2,6.7l2.1-2.6v7.4c0,0.6,0.4,1,1,1s1-0.4,1-1V4.1l2.1,2.6C8.3,7,8.6,7.1,8.9,7.1c0.2,0,0.4-0.1,0.6-0.2
		C10,6.6,10,5.9,9.7,5.5z"/>
</g>
</svg>
