<?xml version="1.0" encoding="utf-8"?>
<!-- Generator: Adobe Illustrator 21.1.0, SVG Export Plug-In . SVG Version: 6.00 Build 0)  -->
<svg version="1.1" xmlns="http://www.w3.org/2000/svg" xmlns:xlink="http://www.w3.org/1999/xlink" x="0px" y="0px"
	 viewBox="0 0 493.1 492" style="enable-background:new 0 0 493.1 492;" xml:space="preserve">
<style type="text/css">
	.st0{fill:#FFFFFF;}
	.st1{fill:#33C6F4;}
	.st2{fill:#231F20;}
	.st3{fill:#F6EC13;}
</style>
<g id="Layer_2_1_">
	<circle class="st0" cx="248.5" cy="246.5" r="242.5"/>
</g>
<g id="Layer_1">
	<g id="Layer_2">
	</g>
	<g>
		<g id="Layer_3">
			<g>
				<path class="st0" d="M372.6,248.8c-1.8-1.9-3.8-2-5.9-0.5c-0.1,0.1-0.3,0.2-0.4,0.3c-0.5,0.4-1,0.6-1.6,0.3
					c-0.6-0.4-0.5-0.9-0.3-1.5c0.4-1.5,0.7-3,1-4.6c0.1-0.3,0.1-0.6,0.1-0.9c-0.3-3.6-0.8-7.2-2.6-10.4c-0.8-1.4-1.5-3-2.4-4.4
					c-2.6-3.6-6.2-5.1-10.6-4.9c-0.9,0-1.7,0.3-2.6,0.5c-1.4,0.3-2.1-0.2-2-1.7c0.3-4,0.4-8-0.8-11.9c-1-3.1-2.8-5.4-5.6-7.1
					c-2.4-1.4-4.9-2.8-7.5-3.9c-2.8-1.1-5.6-1.6-8.6-0.7c-1.5,0.5-1.8,0.9-1.6,2.5c0,0.2,0.1,0.4,0.1,0.6c0,0.6-0.4,0.9-1,1.1
					c-0.7,0.1-0.7-0.4-0.9-0.8c-0.5-2.2-1.1-4.5-1.6-6.7c-0.7-2.8-2.1-5.3-3.6-7.8c-1.7-2.8-3.5-5.6-5.9-7.8c-1-1-2.1-1.9-3.2-2.7
					c-2.9-2.1-6-4-9.4-5.2c-2.5-0.9-5-1.6-7.7-1.2c-1.6,0.2-3.2,0.7-4.7,1.3c-1.9,0.7-3.9,1.6-5.7,2.5c-1.8,1-2.9,2.7-3.8,4.4
					c-0.4,0.7-0.8,1.3-1.5,1.7c-1-0.2-0.9-1-0.8-1.7c0.3-2.2-0.3-4.3-1.1-6.2c-0.4-1-0.9-2.1-1.5-2.9c-1.5-1.9-3.6-2.8-6-2.7
					c-2.1,0.1-4.1,0.7-5.9,1.8c-1.1,0.7-2.2,1.4-3.3,2.1c-0.4,0.3-0.7,0.6-1,1c-1.6,2-3.1,4-4.7,6c-0.3,0.4-0.8,0.8-1.3,0.5
					c-0.7-0.4-0.6-1-0.3-1.5c1.1-1.7,2.2-3.4,3.3-5.1c0.1-0.2,0.2-0.4,0.3-0.6c-0.2-0.2-0.4-0.5-0.7-0.6c-5.1-2.8-10.4-4.2-16.3-3.1
					c-1.1,0.2-2.3,0.5-3.3,0.9c-2.6,1.1-5.1,2.3-7.2,4.3c-1.5,1.5-3.2,2.8-4.4,4.6c-1.3,1.9-2.3,3.9-2.9,6.2
					c-0.3,1.1-0.3,1.1-1.9,1.3c-0.4-1.4,0.2-2.6,0.7-3.9c0.4-1.2,1-2.4,1.5-3.8c-0.6-0.2-1.2-0.5-1.8-0.7c-3.2-1.5-6.7-2.2-10.1-2.7
					c-3.5-0.6-6.4,0.8-8.7,3.5c-1.6,1.8-3.1,3.8-4,5.9c-1.2,2.9-2.1,5.9-3.1,8.9c-0.6,1.9-0.8,4-0.8,6c0,0.3-0.1,0.7-0.3,0.8
					c-0.3,0.2-0.8,0.4-1.1,0.3c-0.3-0.1-0.5-0.7-0.5-1c0.1-1.4,0.2-2.8,0.4-4.2c0-0.4,0.1-0.7,0.2-1.2c-0.9-0.4-1.8-1-2.8-1.3
					c-2.8-0.8-5.5-1.6-8.3-2.1c-2.7-0.4-5.4-0.4-8,0.6c-0.3,0.1-0.6,0.2-0.9,0.3c-3.3,1.9-6.7,3.7-9.2,6.6c-0.6,0.7-1.2,1.5-1.6,2.3
					c-1.5,2.5-3.4,4.7-4.2,7.5c-0.3,1.1-0.6,2.1-0.9,3.1c-0.1,0.3,0,0.7-0.2,0.9c-0.2,0.3-0.7,0.6-1,0.6s-0.6-0.6-0.6-0.9
					c0-0.7,0.2-1.4,0.3-2.2c0.1-0.5,0.2-0.9,0.3-1.5c-0.5-0.1-0.9-0.3-1.3-0.3c-2.6-0.1-5.2,0.4-7.6,1.5c-3.2,1.5-5.7,3.8-7.5,6.9
					c-0.6,1-1.4,2-2,3c-1.2,2.3-1.6,4.8-1.5,7.4c0.1,1,0,2,0,3c0.2,2.5,1.4,4.6,2.9,6.5c1.6,2,3.1,4,5.2,5.6
					c0.3,0.2,0.5,0.5,0.6,0.8c0.1,0.3-0.1,0.8-0.3,1c-0.2,0.1-0.7,0-1-0.1c-3.1-2.5-5.7-5.4-7.7-8.8c-0.2-0.3-0.4-0.6-0.6-0.9
					c-0.1-0.1-0.2-0.2-0.5-0.4c-0.4,0.3-0.9,0.6-1.4,0.9c-2.5,2-4.4,4.4-6,7.1c-2.2,3.7-3.6,7.6-4.2,11.9c-0.1,0.7-0.1,1.5-0.1,2.2
					c0.2,1.7,0.3,3.5,0.8,5.1c0.4,1.5,1.3,3,2,4.4c0.5,1,1.3,1.9,1.7,3c1.3,2.8,3.4,4.5,6.4,5.3c0.6,0.2,1.2,0.3,1.8,0.6
					c0.3,0.1,0.4,0.6,0.6,0.8c-0.3,0.2-0.7,0.4-1,0.6c-0.1,0-0.2,0-0.3,0c-3.2-1-6.4-2.1-8.3-5.2c-0.1-0.2-0.2-0.3-0.4-0.5
					c-1,0.4-1.4,1.1-1.7,1.9c-1.1,2-1.4,4.1-1.6,6.3c-0.4,3.4,0.2,6.8,1.1,10c0.8,2.8,2.3,5.1,4.7,6.8c1.8,1.2,3.6,2.3,5.4,3.5
					c0.7,0.5,1.2,0.4,1.8-0.2c2-2.1,4.5-3.1,7.4-3.4c0.3,0,0.6-0.1,0.8,0c0.3,0.2,0.6,0.5,0.6,0.8c0,0.2-0.3,0.6-0.5,0.6
					c-0.5,0.2-1,0.1-1.5,0.2c-2.9,0.5-5.3,2-6.3,4.8c-0.7,1.9-0.9,4-0.6,6c0.5,3.9,1.4,7.7,2.7,11.4c2.4,6.7,8.8,7.1,13.1,4.6
					c1.6-1,3.1-2.1,4.6-3.2c1.8-1.4,2.8-3.3,3.7-5.3c1.3-2.8,1.7-5.7,1.9-8.7c0.2-2.3,0.5-4.7,0.8-7c0-0.3,0.1-0.6,0.2-0.7
					c0.2-0.2,0.5-0.4,0.8-0.4c0.2,0,0.5,0.3,0.5,0.5c0.1,0.4,0.2,0.9,0.2,1.4c-0.3,2.6-0.7,5.2-1.1,7.7c-0.1,0.5-0.2,1-0.2,1.6
					c-0.2,4-1.9,7.4-4.2,10.6c-0.4,0.5-0.9,1-1.4,1.5c-0.6,0.5-0.8,1-0.8,1.8c0.1,3,0.6,6,2,8.8c1.9,3.8,4.9,5.9,8.9,7.1
					c4.3,1.3,8.7,1.9,13,2.7c2,0.4,4.1,0.3,6.1-0.1c0.4-0.1,0.9-0.3,1.3-0.4c-0.4-1.4-0.8-2.7-1.1-4c-0.6-3.3,0.1-6.3,1.9-9.1
					c1.9-3,4.7-4.8,8-6c1.3-0.4,1.3-0.5,1.3-1.9c0-3.1,0.8-6,2.6-8.5c0.5-0.7,1.2-1.2,1.8-1.7c0.4-0.4,0.9-0.7,1.4-1
					c-0.8-1.4-1.6-2.7-2.4-4.2c-4.4,0.6-8.2-1.3-12-3.5c-0.6,0.9-1.1,1.6-1.6,2.4c-2.1,3.3-6.7,3.4-9.2,0.4
					c-0.3-0.4-0.4-0.9-0.6-1.4c-0.2-0.4-0.3-0.8-0.5-1.3c-0.4,0.4-0.7,0.7-0.9,1c-0.9,1.6-2.2,2.7-3.6,3.8c-0.2,0.2-0.5,0.4-0.8,0.4
					c-0.4,0-0.7-0.3-1.1-0.4c0.1-0.3,0.2-0.7,0.4-0.9c2.1-1.4,3.5-3.4,4.9-5.4c0.6-0.8,0.8-1.8,1.2-2.7c0.2-0.5,0.3-1.1,0.8-0.9
					c0.4,0.1,0.9,0.6,1,1c0.1,1.1,0.1,2.3,0.1,3.4c0,2.3,1.1,3.6,3.4,3.9c1.7,0.2,2.8-0.7,3.7-1.9c0.3-0.4,0.5-0.8,0.7-1.2
					c0.6-1.2,0.6-1.4-0.5-2.2c-1.6-1.2-2.8-2.7-4-4.3c-1.7-2.3-2.4-4.8-2.2-7.7c0-0.5,0-1,0-1.7c-0.6-0.1-1.3-0.2-1.9-0.2
					c-2.3-0.1-4.1-1.2-5.6-2.8c-2.6-2.7-4.3-6-5.7-9.5c-0.8-2.2-0.8-4.5-0.9-6.8c-0.1-1.5,0-3-0.1-4.5c-0.1-2-1.2-3.3-2.9-3.9
					c-2.8-0.9-5.8-1.4-8.7,0c-1.6,0.7-2.4,2.5-1.8,4.2c0.8,2.2,1.2,4.4,1.3,6.7c0.1,2.6-0.6,4.9-1.3,7.4c-0.1,0.3-0.1,0.6-0.2,1
					c0.4,0.2,0.7,0.5,1.1,0.6c4.5,1.6,6.2,6.5,5.8,10.2c-0.1,0.8-0.1,1.6-0.3,2.3c-0.1,0.4-0.5,0.8-0.9,0.9c-0.6,0.1-0.8-0.4-0.8-1
					c0-0.4,0.1-0.8,0.1-1.2c-0.1-1.6,0-3.2-0.3-4.8c-0.5-2.7-2.3-4.3-4.9-5.1c-0.8-0.2-1.2,0.2-1.6,0.7c-0.9,1.2-1.7,2.4-2.6,3.5
					c-0.2,0.3-0.5,0.7-0.8,0.9c-0.4,0.3-1,0.5-1.4-0.1c-0.4-0.5-0.3-1,0.2-1.4c2-1.6,3.2-3.8,4.2-6.1c1.9-4.6,2.4-9.2,0.6-14
					c-1-2.7-2.7-4.4-4.9-5.8c-1.1-0.7-2.5-1.1-3.7-1.6c-0.6-0.3-1.3-0.5-1-1.4c0.2-0.5,0.8-0.5,1.8,0c0.9,0.5,1.9,0.8,2.8,1.3
					c1.3,0.7,2.5,1.6,3.8,2.4c0.4,0.3,0.8,0.7,1.3,1.1c1.1-2.6,3.4-2.8,5.6-3.1c0.6-0.1,1.3-0.2,1.9-0.1c1,0.1,1.4-0.4,1.5-1.2
					c0.2-1.8,0.5-3.5,0.5-5.3c-0.2-3.3-0.9-6.5-2.3-9.5c-0.1-0.2-0.3-0.5-0.3-0.7c0-0.6,0.6-1,1.1-0.6s0.9,0.9,1.2,1.4
					c1.9,4.7,2.8,9.5,1.6,14.5c-0.1,0.5-0.1,1.1-0.2,1.8c2,0.2,3.6,1.1,5,2.5c1.5-3.4,3.4-6.4,6.4-8.6c-0.4-0.8-0.8-1.4-1.1-2.1
					c-1-2.4-2-4.8-2.7-7.3c-0.4-1.4-0.4-2.9-0.4-4.3c-0.1-2.6-0.3-5.1-0.3-7.7c0-1.1,0.2-2.3,0.5-3.4c0.2-0.9-0.1-1.4-0.8-1.8
					c-1.4-0.8-2.9-1.3-4.5-1.2c-2.7,0.1-5.4,0.3-8.1,0.5c-0.8,0.1-1.5,0.4-2.2,0.6c-0.2,0.1-0.5,0.3-0.7,0.2c-0.4-0.1-0.8-0.3-1-0.5
					c-0.1-0.2,0.1-0.8,0.3-0.9c0.7-0.4,1.4-0.9,2.1-1c3.2-0.3,6.4-0.6,9.7-0.6c1.7,0,3.4,0.7,5,1.1c1.3,0.3,1.5,0.3,2-0.8
					c1.5-3.4,3.7-6.2,6-8.9c2.2-2.6,5.2-3.2,8.3-3.1c0.4,0,0.9,0.3,1.3,0.5c0.2,0.1,0.3,0.5,0.2,0.7s-0.3,0.4-0.6,0.4
					c-0.2,0.1-0.4,0-0.6,0c-3.3-0.8-5.8,0.7-7.8,3.1c-2.4,2.8-4.4,5.8-5.9,9.2c-0.8,1.8-1.2,3.8-1.3,5.7c-0.1,3.3,0,6.6,0.3,9.8
					c0.2,2.1,0.9,4.2,1.7,6.1c1.3,2.9,2.8,5.7,4.5,8.4c1.9,2.8,4.3,5.2,7.2,7.1c0.8,0.5,1,1,0.5,1.9c-0.6-0.2-1.3-0.3-1.7-0.6
					c-2.3-2.1-4.7-4.2-6.9-6.3c-0.6-0.5-0.9-1.3-1.3-1.9c-0.3-0.5-0.6-0.9-0.9-1.4c-1.1,0.3-1.7,1.1-2.2,1.8
					c-2.4,3-3.7,6.4-3.6,10.3c0,2.1,0.1,4.3,0.2,6.4c0.4,3.8,2,7.1,4.4,10c0.7,0.8,1.4,1.7,2.2,2.5c2.1,1.9,4.4,2.3,6.9,0.8
					c1.9-1.1,3.6-2.5,5.4-3.7c0.6-0.4,1.1-0.7,1.7-1c0.6-0.3,1-0.1,1.3,0.7c-0.6,0.5-1.2,1.1-1.9,1.5c-1.5,1.1-3,2.2-4.6,3.3
					c-1.1,0.8-1.5,1.8-1.7,3c-0.6,4.9,1.8,8.4,5.4,11.3c2.4,1.9,5.1,3.3,8,4.3c1.8,0.6,3.7,1,5.7,0.5c0.2-1.3,0.3-2.6,0.5-3.9
					c0.7-3.7,2.9-6.4,5.8-8.6c0.8-0.6,2.1-0.7,3.3-1c0.5-0.1,1,0,1.1,0.6c0.1,0.7-0.4,0.8-0.9,0.8c-1.2,0-2.3,0.4-3.1,1.3
					c-1,1.1-2,2.3-2.9,3.5c-1.9,2.8-2.2,6-1.6,9.2c0.2,1.1,1.1,2.1,1.7,3.2c1-0.1,1.8-0.4,2.7-0.4c2.4,0,4.8,0,7.2,0.1
					c2,0.1,3.7,1,5.2,2.4c1.3,1.2,2.5,2.5,3.8,3.8c0.3,0.3,0.6,0.7,0.8,1.2c0.1,0.2,0,0.7-0.2,0.8c-0.2,0.1-0.6,0-0.8-0.1
					c-0.1,0-0.2-0.2-0.3-0.3c-1.2-1.2-2.4-2.5-3.6-3.7c-1.6-1.7-3.7-2.6-6-2.7c-1.8-0.1-3.5-0.2-5.3,0c-3.4,0.2-5.8,2.2-7.3,5.2
					c-0.7,1.3-1.1,2.8-1.3,4.3c-0.2,1,0,2.2,0.2,3.2c0.3,1.6,0.7,3.2,1.2,4.8c0.2,0.6,0.6,1.2,0.9,1.8c0.1,0.3,0.3,0.8,0.2,1.1
					c-0.1,0.3-0.6,0.6-0.8,0.6c-0.3-0.1-0.7-0.4-0.8-0.8c-0.6-1.6-1.2-3.2-1.8-4.8c-0.4-1.2-0.6-1.3-1.8-0.9
					c-1.8,0.5-3.5,1.3-4.7,2.6c-3.4,3.6-5.1,7.5-3.4,12.7c0.8,2.3,2,4.2,3.8,5.8c1.7,1.5,3.1,3.3,4.6,4.9c1.9,1.9,3.7,3.8,5.7,5.5
					c2.3,2,5.3,2.6,8.3,2.9c2.4,0.3,4.8-0.1,7.1-0.6c0.7-0.2,1.3-0.4,1.9-0.8c0.4-0.3,0.8-0.7,0.9-1.2c0.4-2.3,1.1-4.6,2.2-6.7
					c0.1-0.2,0.1-0.5,0.2-0.9c-0.6-0.6-1.4-1.1-2-1.9c-1.9-2.4-2.8-5.2-3.2-8.2c-0.2-1.5-0.1-3.1,0-4.7c0-0.6,0.2-1.1,0.5-1.7
					c0.2-0.5,0.5-1,1.1-0.9c0.7,0.2,0.7,0.8,0.5,1.4s-0.4,1.3-0.4,2c-0.2,2.4,0,4.8,0.9,7.1c0.5,1.3,0.6,2.6,1.7,3.6
					c0.1,0.1,0.2,0.3,0.3,0.4c1.4,1.3,1.6,1.7,2.9-0.2c1.3-1.9,2.9-3.6,4.5-5.2s3.8-2.1,5.8-2.9c0.4-0.2,0.9-0.1,1,0.4
					c0,0.3-0.2,0.8-0.5,1c-0.5,0.3-1,0.5-1.6,0.7c-3.1,1-5.1,3.3-7,5.7c-2.3,2.9-3.8,6.1-4.7,9.6c-0.4,1.6-0.2,3.2,0.7,4.6
					c1.6,2.3,3.6,4,6.2,5.1c2.1,0.9,4.3,1.6,6.6,1.9c3.8,0.5,7.1-0.7,9.8-3.2c3-2.7,5.9-5.7,7.3-9.6c0.1-0.3,0.3-0.5,0.5-0.9
					c-1.6-1.5-3.2-2.9-4.7-4.4c-0.4-0.4-1.2-0.7-0.6-1.5c0.6-0.8,1.1,0,1.6,0.3s0.9,0.8,1.3,1.2c2.5,2.6,5.4,4.4,8.9,5.2
					c3,0.7,6.1,1.6,9.1,2.2c2.6,0.5,5.2,0.4,7.8-0.7c3.9-1.7,7.3-3.9,10.1-6.9c0.3-0.3,0.5-0.5,0.7-0.8c0.1-0.1,0.1-0.3,0.2-0.5
					c-0.9-0.8-1.9-1.6-2.8-2.4c-0.3-0.2-0.6-0.5-0.7-0.8c-0.1-0.2-0.1-0.6,0-0.7c0.1-0.2,0.5-0.3,0.7-0.2c0.5,0.2,0.9,0.5,1.3,0.8
					c0.9,0.6,1.7,1.4,2.6,2c2.7,1.7,5.7,1.7,8.6,1.4c3.2-0.4,6.3-1.4,9-3.4c2.2-1.6,3.8-3.7,4.7-6.3c0.1-0.2,0.6,2.8,0.7,2.5
					c0.6-1.5,16.4,5.7,27.8-1.9c7.5-5,14.7-7.5,24.5-19c3.8-4.4,13.7-10.7,7.2-28.2c-1.3-3.7-3.2-8.9-3.2-12.2c0-1,0.2-2,0.2-3
					c-0.1-1.5-0.2-3-0.4-4.5c-0.1-0.5,0-1,0.5-1.2c0.6-0.2,1.1,0.1,1.2,0.6c0.2,0.5,0.3,1.1,0.2,1.7c-0.1,2.6-0.1,5.1-0.3,7.7
					c-0.1,1.4-0.8,2.7-1.2,4c-0.2,0.5-0.5,1-0.8,1.5c1.4,1.1,2.7,2,4.2,3.2c2-1.9,4.5-3.3,6-5.8c1.1-1.8,2.3-3.5,3.5-5.2
					c1.8-2.7,2.8-5.7,3.6-8.8c1.2-4.3,0.1-8.2-2.6-11.6C375,251.6,373.9,250.1,372.6,248.8z"/>
				<path class="st0" d="M161.6,336.8L161,350c0,0-5.4,26.2-6.8,29.4c-1.4,3.2-3.6,6.6-3.1,7.5s8.3,11.4,12.6,10l4.5-0.3l4-2.8
					l9.2-15.9l10.9-15.7l3.5-2.8l2.1-2.9l1.2-3.6l-4.1-7.1l-14.5-8.5L161.6,336.8z"/>
			</g>
		</g>
		<g id="Layer_1_1_">
			<path d="M177.7,257.8c-0.6-0.2-1.3-0.3-1.7-0.6c-2.3-2.1-4.7-4.2-6.9-6.3c-0.6-0.5-0.9-1.3-1.3-1.9c-0.3-0.5-0.6-0.9-0.9-1.4
				c-1.1,0.3-1.7,1.1-2.2,1.8c-2.4,3-3.7,6.4-3.6,10.3c0,2.1,0.1,4.3,0.2,6.4c0.4,3.8,2,7.1,4.4,10c0.7,0.8,1.4,1.7,2.2,2.5
				c2.1,1.9,4.4,2.3,6.9,0.8c1.9-1.1,3.6-2.5,5.4-3.7c0.6-0.4,1.1-0.7,1.7-1c0.6-0.3,1-0.1,1.3,0.7c-0.6,0.5-1.2,1.1-1.9,1.5
				c-1.5,1.1-3,2.2-4.6,3.3c-1.1,0.8-1.5,1.8-1.7,3c-0.6,4.9,1.8,8.4,5.4,11.3c2.4,1.9,5.1,3.3,8,4.3c1.8,0.6,3.7,1,5.7,0.5
				c0.2-1.3,0.3-2.6,0.5-3.9c0.7-3.7,2.9-6.4,5.8-8.6c0.8-0.6,2.1-0.7,3.3-1c0.5-0.1,1,0,1.1,0.6c0.1,0.7-0.4,0.8-0.9,0.8
				c-1.2,0-2.3,0.4-3.1,1.3c-1,1.1-2,2.3-2.9,3.5c-1.9,2.8-2.2,6-1.6,9.2c0.2,1.1,1.1,2.1,1.7,3.2c1-0.1,1.8-0.4,2.7-0.4
				c2.4,0,4.8,0,7.2,0.1c2,0.1,3.7,1,5.2,2.4c1.3,1.2,2.5,2.5,3.8,3.8c0.3,0.3,0.6,0.7,0.8,1.2c0.1,0.2,0,0.7-0.2,0.8
				c-0.2,0.1-0.6,0-0.8-0.1c-0.1,0-0.2-0.2-0.3-0.3c-1.2-1.2-2.4-2.5-3.6-3.7c-1.6-1.7-3.7-2.6-6-2.7c-1.8-0.1-3.5-0.2-5.3,0
				c-3.4,0.2-5.8,2.2-7.3,5.2c-0.7,1.3-1.1,2.8-1.3,4.3c-0.2,1,0,2.2,0.2,3.2c0.3,1.6,0.7,3.2,1.2,4.8c0.2,0.6,0.6,1.2,0.9,1.8
				c0.1,0.3,0.3,0.8,0.2,1.1c-0.1,0.3-0.6,0.6-0.8,0.6c-0.3-0.1-0.7-0.4-0.8-0.8c-0.6-1.6-1.2-3.2-1.8-4.8c-0.4-1.2-0.6-1.3-1.8-0.9
				c-1.8,0.5-3.5,1.3-4.7,2.6c-3.4,3.6-5.1,7.5-3.4,12.7c0.8,2.3,2,4.2,3.8,5.8c1.7,1.5,3.1,3.3,4.6,4.9c1.9,1.9,3.7,3.8,5.7,5.5
				c2.3,2,5.3,2.6,8.3,2.9c2.4,0.3,4.8-0.1,7.1-0.6c0.7-0.2,1.3-0.4,1.9-0.8c0.4-0.3,0.8-0.7,0.9-1.2c0.4-2.3,1.1-4.6,2.2-6.7
				c0.1-0.2,0.1-0.5,0.2-0.9c-0.6-0.6-1.4-1.1-2-1.9c-1.9-2.4-2.8-5.2-3.2-8.2c-0.2-1.5-0.1-3.1,0-4.7c0-0.6,0.2-1.1,0.5-1.7
				c0.2-0.5,0.5-1,1.1-0.9c0.7,0.2,0.7,0.8,0.5,1.4s-0.4,1.3-0.4,2c-0.2,2.4,0,4.8,0.9,7.1c0.5,1.3,0.6,2.6,1.7,3.6
				c0.1,0.1,0.2,0.3,0.3,0.4c1.4,1.3,1.6,1.7,2.9-0.2c1.3-1.9,2.9-3.6,4.5-5.2s3.8-2.1,5.8-2.9c0.4-0.2,0.9-0.1,1,0.4
				c0,0.3-0.2,0.8-0.5,1c-0.5,0.3-1,0.5-1.6,0.7c-3.1,1-5.1,3.3-7,5.7c-2.3,2.9-3.8,6.1-4.7,9.6c-0.4,1.6-0.2,3.2,0.7,4.6
				c1.6,2.3,3.6,4,6.2,5.1c2.1,0.9,4.3,1.6,6.6,1.9c3.8,0.5,7.1-0.7,9.8-3.2c3-2.7,5.9-5.7,7.3-9.6c0.1-0.3,0.3-0.5,0.5-0.9
				c-1.6-1.5-3.2-2.9-4.7-4.4c-0.4-0.4-1.2-0.7-0.6-1.5c0.6-0.8,1.1,0,1.6,0.3s0.9,0.8,1.3,1.2c2.5,2.6,5.4,4.4,8.9,5.2
				c3,0.7,6.1,1.6,9.1,2.2c2.6,0.5,5.2,0.4,7.8-0.7c3.9-1.7,7.3-3.9,10.1-6.9c0.3-0.3,0.5-0.5,0.7-0.8c0.1-0.1,0.1-0.3,0.2-0.5
				c-0.9-0.8-1.9-1.6-2.8-2.4c-0.3-0.2-0.6-0.5-0.7-0.8c-0.1-0.2-0.1-0.6,0-0.7c0.1-0.2,0.5-0.3,0.7-0.2c0.5,0.2,0.9,0.5,1.3,0.8
				c0.9,0.6,1.7,1.4,2.6,2c2.7,1.7,5.7,1.7,8.6,1.4c3.2-0.4,6.3-1.4,9-3.4c2.2-1.6,3.8-3.7,4.7-6.3c1.2-3.4,2.1-6.8,0.9-10.6
				c-4.3,0-7.9-1.9-11.4-4.2c-0.2-0.2-0.3-0.6-0.5-0.9c0.7-0.6,1.3-0.3,1.9,0c1.1,0.6,2.1,1.2,3.2,1.7c3.3,1.7,6.7,2,10.3,0.8
				c0.1,0,0.2-0.1,0.3-0.1c1-0.3,1.6-0.1,1.8,0.7c0.2,0.6-0.2,1.1-1.2,1.3c-0.4,0.1-0.7,0.1-1.1,0.1c-0.4,0.1-0.7,0.2-1.1,0.3
				c-0.1,2.2,0,4.4-0.3,6.5s-1.1,4.2-1.7,6.4c3.1,1.6,6.3,1.9,9.7,1.1c0.1,0.6,0.1,1,0.1,1.6c-3.8,1.3-7.2,0.2-10.6-1.1
				c-1,1-1.9,2-2.9,2.7c-1.4,1.1-2.9,2-4.4,3c-0.3,0.2-0.7,0.4-1.1,0.5c-4.2,1-8.3,2.1-12.6,0.8c-0.9-0.3-1.4,0.1-1.9,0.6
				c-1.3,1.3-2.6,2.7-4.1,3.8c-1.3,1-2.9,1.9-4.4,2.7c-1.3,0.7-2.8,1.2-4.1,1.9c-2.1,1-4.3,0.9-6.4,0.5c-2.7-0.5-5.3-1.2-7.9-1.9
				c-2.2-0.6-4.3-1.2-6.6-1.8c-0.5,0.7-0.9,1.4-1.3,2.1c-2.3,4.1-5.3,7.5-9.2,10c-2.6,1.7-5.5,2.3-8.7,2c-3.7-0.4-7.1-1.6-10.2-3.7
				c-1.6-1.1-2.9-2.3-4-3.9c-0.3-0.5-0.7-1-1.1-1.6c-0.5,0.1-1,0.3-1.5,0.4c-3.7,1-7.4,1.5-11.1,0.6c-0.7-0.2-1.4-0.2-1.8,0.5
				c-1.4,2.3-3.7,3.8-5.3,5.9c-2.3,2.9-4.7,5.9-7,8.8c-2.9,3.6-5.1,7.7-7.5,11.7s-5.1,7.9-7.7,11.7c-2,2.9-4.9,4.2-8.5,4
				c-2.3-0.1-4.1-1.2-5.9-2.3c-1.5-0.9-2.8-2.2-3.8-3.7c-0.5-0.6-1-1.2-1.5-1.8c-2.1-1.9-2.5-4-1.4-6.6c0.7-1.5,1.1-3.2,1.6-4.7
				c1.9-5.3,3.5-10.6,4.6-16.1c1.1-5.4,2.2-10.8,3.2-16.3c0.5-2.7,0.6-5.5,0.2-8.3c-0.1-0.8-0.4-1.4-1.2-1.6c-2.7-0.7-5-2.2-6.9-4.1
				c-1.6-1.6-2.8-3.6-3.7-5.7c-0.6-1.3-0.9-2.7-0.9-4.1c0-0.9-0.2-1.9-0.3-2.9c-0.4,0.1-0.7,0.2-1,0.3c-0.9,0.5-1.7,1.1-2.6,1.5
				c-3.9,1.9-7.7,1.5-11.2-1.1c-2-1.4-3.1-3.5-3.7-5.8c-0.9-3.5-1.9-7-2.4-10.5c-0.3-2,0-4.2,0.2-6.2c0.1-0.8-0.1-1.3-0.8-1.6
				c-2.2-1.1-4.2-2.4-6.1-4c-2.3-1.9-3.8-4.2-4.7-7c-0.9-2.9-1.4-5.9-1.4-8.9c0.1-2.8,0.6-5.6,1.8-8.2c0.6-1.3,1.5-2.4,2.2-3.6
				c-0.4-0.6-0.7-1.2-1.1-1.8c-1.1-1.6-1.9-3.4-2.1-5.3c-0.1-0.6-0.1-1.2-0.3-1.7c-1.1-3.6-0.2-7.1,0.8-10.6c1-3.7,2.9-7.1,5.2-10.1
				c1.3-1.7,3-3.1,4.6-4.7c0.2-0.2,0.4-0.3,0.6-0.5c1.1-0.7,1.4-1.6,1.3-3c-0.1-2.5,0-5,0.3-7.5c0.1-0.9,0.7-1.8,1.1-2.7
				c1.3-2.9,3.1-5.5,5.3-7.7c3.3-3.4,7.4-5.2,12.2-5.3c1.1,0,2.2,0,3.3,0c0.8-1.3,1.5-2.6,2.3-3.9c1.5-2.7,3.3-5.2,5.6-7.3
				c1-0.9,2.2-1.6,3.3-2.3c1.3-0.8,2.7-1.7,4.1-2.3c1.2-0.6,2.5-1.1,3.8-1.3c3.8-0.6,7.6-0.3,11.3,0.9c2.1,0.7,4.3,1.4,6.6,2.1
				c0.2-0.5,0.5-1.1,0.6-1.6c0.7-2.2,1.3-4.4,2.2-6.5c0.9-1.9,2.3-3.5,3.4-5.3c0.8-1.4,2-2.4,3.2-3.3c2.7-2.1,5.7-2.4,8.9-2
				c1.7,0.2,3.4,0.6,5,1.1c1.8,0.5,3.7,1.2,5.5,1.9c1.2,0.5,2.1,0.5,3-0.6c1.9-2.4,4.4-4.2,7-5.8c4.4-2.7,9.3-3.6,14.4-3
				c3.8,0.4,7.3,1.7,10.6,3.5c0.9,0.5,1.5,0.4,2.4-0.2c3.5-2.3,7.3-3.8,11.6-3.9c3-0.1,5.1,1.3,6.8,3.5c1.1,1.4,1.7,3,2.1,4.7
				c0.2,0.8,0.5,1.6,0.8,2.5c0.4-0.3,0.7-0.4,0.9-0.7c1.7-2.2,4.1-3.4,6.7-4.2c2.2-0.7,4.2-1.8,6.6-2c1.9-0.2,3.7-0.1,5.6,0.4
				c4.3,1.1,8,3.2,11.7,5.5c3.6,2.2,6.3,5.3,8.7,8.6c1.8,2.4,3.2,5.1,4.6,7.8c0.6,1.2,0.9,2.6,1.3,3.8c0.3,0.9,0.7,1.8,1.1,2.8
				c2.6-1.3,5.1-1.6,7.6-1.1c2.4,0.5,4.8,1,6.9,2.4c1.9,1.2,4,2.1,5.8,3.4c2.9,1.9,4.6,4.7,5.5,8.1c0.8,3.3,0.8,6.7,0.9,10.1
				c0,0.3,0,0.6,0.1,1.1c0.5,0,1,0.1,1.5,0c4.4-0.4,8.4,0.6,11.7,3.7c1.5,1.4,2.5,3.1,3.4,4.9c0.6,1.2,1.3,2.4,1.8,3.7
				c1.3,3.8,2,7.8,1.4,11.8c0,0.3,0,0.6,0,1c0.3,0,0.5,0.1,0.8,0.1c2.9-0.5,5.2,0.5,7,2.8c1.4,1.7,2.8,3.4,4,5.2
				c2.2,3.4,2.9,7.1,1.9,11.1c-1.2,4.8-3.4,9.1-6.5,13.1c-1.4,1.8-2.6,3.7-4.3,5.1c-0.9,0.7-1.7,1.5-2.6,2.2
				c-0.7,0.5-0.7,1.1-0.3,1.8c1.3,1.9,1.6,4.2,1.9,6.4c0.3,1.7,0.1,3.4,0.1,5.2c0,1-0.1,2.1-0.3,3.1c-0.5,3.4-1.9,6.4-4.1,9
				c-1.1,1.3-2.2,2.5-3.4,3.7c-0.7,0.7-1.6,1.1-2.4,1.7c-0.3,0.2-0.6,0.3-0.9,0.3c-0.6,0.1-1.4,0.2-1.6-0.5c-0.3-0.8,0.5-1.1,1-1.3
				c3.9-1.3,5.9-4.4,7.8-7.7c2.9-5.2,2.7-10.7,1.4-16.1c-0.6-2.7-1.9-5.3-4.5-6.9c-1.3-0.8-1.6-0.9-2.7,0.2
				c-1.2,1.1-2.6,1.7-4.1,2.2c0,0.2-0.1,0.4,0,0.5c1.3,2.4,1.8,5.1,1.8,7.8c0,1.9,0.1,3.9-0.2,5.8c-0.2,1.3-1,2.6-1.7,3.8
				c-0.7,1.1-1.8,2-2.7,3c-0.2,0.2-0.4,0.4-0.6,0.5c-0.3,0-0.7,0-1-0.2c-0.1-0.1-0.1-0.6,0-0.8c0.2-0.4,0.5-0.6,0.8-0.9
				c0.8-0.9,1.7-1.8,2.4-2.9c0.6-0.9,1.1-2,1.2-3c0.4-3,0.4-6-0.2-9c-0.3-1.6-1.1-3-2.2-4.3c-0.3-0.3-0.6-0.6-0.8-1
				c-0.1-0.3-0.2-0.8,0-1c0.2-0.2,0.6-0.3,0.9-0.3s0.6,0.1,0.9,0.2c1.5,0.3,3-0.1,4-1.2c2.3-2.4,4-5.1,4.1-8.6c0-1,0.2-2,0.2-3
				c-0.1-1.5-0.2-3-0.4-4.5c-0.1-0.5,0-1,0.5-1.2c0.6-0.2,1.1,0.1,1.2,0.6c0.2,0.5,0.3,1.1,0.2,1.7c-0.1,2.6-0.1,5.1-0.3,7.7
				c-0.1,1.4-0.8,2.7-1.2,4c-0.2,0.5-0.5,1-0.8,1.5c1.4,1.1,2.7,2,4.2,3.2c2-1.9,4.5-3.3,6-5.8c1.1-1.8,2.3-3.5,3.5-5.2
				c1.8-2.7,2.8-5.7,3.6-8.8c1.2-4.3,0.1-8.2-2.6-11.6c-1.2-1.5-2.3-2.9-3.6-4.3c-1.8-1.9-3.8-2-5.9-0.5c-0.1,0.1-0.3,0.2-0.4,0.3
				c-0.5,0.4-1,0.6-1.6,0.3c-0.6-0.4-0.5-0.9-0.3-1.5c0.4-1.5,0.7-3,1-4.6c0.1-0.3,0.1-0.6,0.1-0.9c-0.3-3.6-0.8-7.2-2.6-10.4
				c-0.8-1.4-1.5-3-2.4-4.4c-2.6-3.6-6.2-5.1-10.6-4.9c-0.9,0-1.7,0.3-2.6,0.5c-1.4,0.3-2.1-0.2-2-1.7c0.3-4,0.4-8-0.8-11.9
				c-1-3.1-2.8-5.4-5.6-7.1c-2.4-1.4-4.9-2.8-7.5-3.9c-2.8-1.1-5.6-1.6-8.6-0.7c-1.5,0.5-1.8,0.9-1.6,2.5c0,0.2,0.1,0.4,0.1,0.6
				c0,0.6-0.4,0.9-1,1.1c-0.7,0.1-0.7-0.4-0.9-0.8c-0.5-2.2-1.1-4.5-1.6-6.7c-0.7-2.8-2.1-5.3-3.6-7.8c-1.7-2.8-3.5-5.6-5.9-7.8
				c-1-1-2.1-1.9-3.2-2.7c-2.9-2.1-6-4-9.4-5.2c-2.5-0.9-5-1.6-7.7-1.2c-1.6,0.2-3.2,0.7-4.7,1.3c-1.9,0.7-3.9,1.6-5.7,2.5
				c-1.8,1-2.9,2.7-3.8,4.4c-0.4,0.7-0.8,1.3-1.5,1.7c-1-0.2-0.9-1-0.8-1.7c0.3-2.2-0.3-4.3-1.1-6.2c-0.4-1-0.9-2.1-1.5-2.9
				c-1.5-1.9-3.6-2.8-6-2.7c-2.1,0.1-4.1,0.7-5.9,1.8c-1.1,0.7-2.2,1.4-3.3,2.1c-0.4,0.3-0.7,0.6-1,1c-1.6,2-3.1,4-4.7,6
				c-0.3,0.4-0.8,0.8-1.3,0.5c-0.7-0.4-0.6-1-0.3-1.5c1.1-1.7,2.2-3.4,3.3-5.1c0.1-0.2,0.2-0.4,0.3-0.6c-0.2-0.2-0.4-0.5-0.7-0.6
				c-5.1-2.8-10.4-4.2-16.3-3.1c-1.1,0.2-2.3,0.5-3.3,0.9c-2.6,1.1-5.1,2.3-7.2,4.3c-1.5,1.5-3.2,2.8-4.4,4.6
				c-1.3,1.9-2.3,3.9-2.9,6.2c-0.3,1.1-0.3,1.1-1.9,1.3c-0.4-1.4,0.2-2.6,0.7-3.9c0.4-1.2,1-2.4,1.5-3.8c-0.6-0.2-1.2-0.5-1.8-0.7
				c-3.2-1.5-6.7-2.2-10.1-2.7c-3.5-0.6-6.4,0.8-8.7,3.5c-1.6,1.8-3.1,3.8-4,5.9c-1.2,2.9-2.1,5.9-3.1,8.9c-0.6,1.9-0.8,4-0.8,6
				c0,0.3-0.1,0.7-0.3,0.8c-0.3,0.2-0.8,0.4-1.1,0.3c-0.3-0.1-0.5-0.7-0.5-1c0.1-1.4,0.2-2.8,0.4-4.2c0-0.4,0.1-0.7,0.2-1.2
				c-0.9-0.4-1.8-1-2.8-1.3c-2.8-0.8-5.5-1.6-8.3-2.1c-2.7-0.4-5.4-0.4-8,0.6c-0.3,0.1-0.6,0.2-0.9,0.3c-3.3,1.9-6.7,3.7-9.2,6.6
				c-0.6,0.7-1.2,1.5-1.6,2.3c-1.5,2.5-3.4,4.7-4.2,7.5c-0.3,1.1-0.6,2.1-0.9,3.1c-0.1,0.3,0,0.7-0.2,0.9c-0.2,0.3-0.7,0.6-1,0.6
				s-0.6-0.6-0.6-0.9c0-0.7,0.2-1.4,0.3-2.2c0.1-0.5,0.2-0.9,0.3-1.5c-0.5-0.1-0.9-0.3-1.3-0.3c-2.6-0.1-5.2,0.4-7.6,1.5
				c-3.2,1.5-5.7,3.8-7.5,6.9c-0.6,1-1.4,2-2,3c-1.2,2.3-1.6,4.8-1.5,7.4c0.1,1,0,2,0,3c0.2,2.5,1.4,4.6,2.9,6.5
				c1.6,2,3.1,4,5.2,5.6c0.3,0.2,0.5,0.5,0.6,0.8c0.1,0.3-0.1,0.8-0.3,1c-0.2,0.1-0.7,0-1-0.1c-3.1-2.5-5.7-5.4-7.7-8.8
				c-0.2-0.3-0.4-0.6-0.6-0.9c-0.1-0.1-0.2-0.2-0.5-0.4c-0.4,0.3-0.9,0.6-1.4,0.9c-2.5,2-4.4,4.4-6,7.1c-2.2,3.7-3.6,7.6-4.2,11.9
				c-0.1,0.7-0.1,1.5-0.1,2.2c0.2,1.7,0.3,3.5,0.8,5.1c0.4,1.5,1.3,3,2,4.4c0.5,1,1.3,1.9,1.7,3c1.3,2.8,3.4,4.5,6.4,5.3
				c0.6,0.2,1.2,0.3,1.8,0.6c0.3,0.1,0.4,0.6,0.6,0.8c-0.3,0.2-0.7,0.4-1,0.6c-0.1,0-0.2,0-0.3,0c-3.2-1-6.4-2.1-8.3-5.2
				c-0.1-0.2-0.2-0.3-0.4-0.5c-1,0.4-1.4,1.1-1.7,1.9c-1.1,2-1.4,4.1-1.6,6.3c-0.4,3.4,0.2,6.8,1.1,10c0.8,2.8,2.3,5.1,4.7,6.8
				c1.8,1.2,3.6,2.3,5.4,3.5c0.7,0.5,1.2,0.4,1.8-0.2c2-2.1,4.5-3.1,7.4-3.4c0.3,0,0.6-0.1,0.8,0c0.3,0.2,0.6,0.5,0.6,0.8
				c0,0.2-0.3,0.6-0.5,0.6c-0.5,0.2-1,0.1-1.5,0.2c-2.9,0.5-5.3,2-6.3,4.8c-0.7,1.9-0.9,4-0.6,6c0.5,3.9,1.4,7.7,2.7,11.4
				c2.4,6.7,8.8,7.1,13.1,4.6c1.6-1,3.1-2.1,4.6-3.2c1.8-1.4,2.8-3.3,3.7-5.3c1.3-2.8,1.7-5.7,1.9-8.7c0.2-2.3,0.5-4.7,0.8-7
				c0-0.3,0.1-0.6,0.2-0.7c0.2-0.2,0.5-0.4,0.8-0.4c0.2,0,0.5,0.3,0.5,0.5c0.1,0.4,0.2,0.9,0.2,1.4c-0.3,2.6-0.7,5.2-1.1,7.7
				c-0.1,0.5-0.2,1-0.2,1.6c-0.2,4-1.9,7.4-4.2,10.6c-0.4,0.5-0.9,1-1.4,1.5c-0.6,0.5-0.8,1-0.8,1.8c0.1,3,0.6,6,2,8.8
				c1.9,3.8,4.9,5.9,8.9,7.1c4.3,1.3,8.7,1.9,13,2.7c2,0.4,4.1,0.3,6.1-0.1c0.4-0.1,0.9-0.3,1.3-0.4c-0.4-1.4-0.8-2.7-1.1-4
				c-0.6-3.3,0.1-6.3,1.9-9.1c1.9-3,4.7-4.8,8-6c1.3-0.4,1.3-0.5,1.3-1.9c0-3.1,0.8-6,2.6-8.5c0.5-0.7,1.2-1.2,1.8-1.7
				c0.4-0.4,0.9-0.7,1.4-1c-0.8-1.4-1.6-2.7-2.4-4.2c-4.4,0.6-8.2-1.3-12-3.5c-0.6,0.9-1.1,1.6-1.6,2.4c-2.1,3.3-6.7,3.4-9.2,0.4
				c-0.3-0.4-0.4-0.9-0.6-1.4c-0.2-0.4-0.3-0.8-0.5-1.3c-0.4,0.4-0.7,0.7-0.9,1c-0.9,1.6-2.2,2.7-3.6,3.8c-0.2,0.2-0.5,0.4-0.8,0.4
				c-0.4,0-0.7-0.3-1.1-0.4c0.1-0.3,0.2-0.7,0.4-0.9c2.1-1.4,3.5-3.4,4.9-5.4c0.6-0.8,0.8-1.8,1.2-2.7c0.2-0.5,0.3-1.1,0.8-0.9
				c0.4,0.1,0.9,0.6,1,1c0.1,1.1,0.1,2.3,0.1,3.4c0,2.3,1.1,3.6,3.4,3.9c1.7,0.2,2.8-0.7,3.7-1.9c0.3-0.4,0.5-0.8,0.7-1.2
				c0.6-1.2,0.6-1.4-0.5-2.2c-1.6-1.2-2.8-2.7-4-4.3c-1.7-2.3-2.4-4.8-2.2-7.7c0-0.5,0-1,0-1.7c-0.6-0.1-1.3-0.2-1.9-0.2
				c-2.3-0.1-4.1-1.2-5.6-2.8c-2.6-2.7-4.3-6-5.7-9.5c-0.8-2.2-0.8-4.5-0.9-6.8c-0.1-1.5,0-3-0.1-4.5c-0.1-2-1.2-3.3-2.9-3.9
				c-2.8-0.9-5.8-1.4-8.7,0c-1.6,0.7-2.4,2.5-1.8,4.2c0.8,2.2,1.2,4.4,1.3,6.7c0.1,2.6-0.6,4.9-1.3,7.4c-0.1,0.3-0.1,0.6-0.2,1
				c0.4,0.2,0.7,0.5,1.1,0.6c4.5,1.6,6.2,6.5,5.8,10.2c-0.1,0.8-0.1,1.6-0.3,2.3c-0.1,0.4-0.5,0.8-0.9,0.9c-0.6,0.1-0.8-0.4-0.8-1
				c0-0.4,0.1-0.8,0.1-1.2c-0.1-1.6,0-3.2-0.3-4.8c-0.5-2.7-2.3-4.3-4.9-5.1c-0.8-0.2-1.2,0.2-1.6,0.7c-0.9,1.2-1.7,2.4-2.6,3.5
				c-0.2,0.3-0.5,0.7-0.8,0.9c-0.4,0.3-1,0.5-1.4-0.1c-0.4-0.5-0.3-1,0.2-1.4c2-1.6,3.2-3.8,4.2-6.1c1.9-4.6,2.4-9.2,0.6-14
				c-1-2.7-2.7-4.4-4.9-5.8c-1.1-0.7-2.5-1.1-3.7-1.6c-0.6-0.3-1.3-0.5-1-1.4c0.2-0.5,0.8-0.5,1.8,0c0.9,0.5,1.9,0.8,2.8,1.3
				c1.3,0.7,2.5,1.6,3.8,2.4c0.4,0.3,0.8,0.7,1.3,1.1c1.1-2.6,3.4-2.8,5.6-3.1c0.6-0.1,1.3-0.2,1.9-0.1c1,0.1,1.4-0.4,1.5-1.2
				c0.2-1.8,0.5-3.5,0.5-5.3c-0.2-3.3-0.9-6.5-2.3-9.5c-0.1-0.2-0.3-0.5-0.3-0.7c0-0.6,0.6-1,1.1-0.6s0.9,0.9,1.2,1.4
				c1.9,4.7,2.8,9.5,1.6,14.5c-0.1,0.5-0.1,1.1-0.2,1.8c2,0.2,3.6,1.1,5,2.5c1.5-3.4,3.4-6.4,6.4-8.6c-0.4-0.8-0.8-1.4-1.1-2.1
				c-1-2.4-2-4.8-2.7-7.3c-0.4-1.4-0.4-2.9-0.4-4.3c-0.1-2.6-0.3-5.1-0.3-7.7c0-1.1,0.2-2.3,0.5-3.4c0.2-0.9-0.1-1.4-0.8-1.8
				c-1.4-0.8-2.9-1.3-4.5-1.2c-2.7,0.1-5.4,0.3-8.1,0.5c-0.8,0.1-1.5,0.4-2.2,0.6c-0.2,0.1-0.5,0.3-0.7,0.2c-0.4-0.1-0.8-0.3-1-0.5
				c-0.1-0.2,0.1-0.8,0.3-0.9c0.7-0.4,1.4-0.9,2.1-1c3.2-0.3,6.4-0.6,9.7-0.6c1.7,0,3.4,0.7,5,1.1c1.3,0.3,1.5,0.3,2-0.8
				c1.5-3.4,3.7-6.2,6-8.9c2.2-2.6,5.2-3.2,8.3-3.1c0.4,0,0.9,0.3,1.3,0.5c0.2,0.1,0.3,0.5,0.2,0.7s-0.3,0.4-0.6,0.4
				c-0.2,0.1-0.4,0-0.6,0c-3.3-0.8-5.8,0.7-7.8,3.1c-2.4,2.8-4.4,5.8-5.9,9.2c-0.8,1.8-1.2,3.8-1.3,5.7c-0.1,3.3,0,6.6,0.3,9.8
				c0.2,2.1,0.9,4.2,1.7,6.1c1.3,2.9,2.8,5.7,4.5,8.4c1.9,2.8,4.3,5.2,7.2,7.1C177.9,256.4,178.1,256.9,177.7,257.8z M162.4,337.5
				c-0.1,0.7-0.2,1.2-0.2,1.6c0.2,4.7,0,9.4-1.6,13.9c-0.1,0.2-0.1,0.5-0.2,0.8c-0.5,2.7-0.8,5.5-1.4,8.2c-0.7,3-1.5,6.1-2.3,9.1
				c-0.8,2.8-1.7,5.6-2.6,8.3c-0.6,1.8-1.2,3.7-1.7,5.5c-0.4,1.4-0.2,2.7,0.8,3.8c1.1,1.2,2,2.5,3.1,3.7c0.7,0.8,1.6,1.5,2.5,2.1
				c4.3,2.6,9.4,2.8,12.8-2.5c2-3.2,4.2-6.4,6.2-9.6c2.9-4.7,5.6-9.5,9.1-13.8c3.1-3.9,6-8,9.6-11.5c0.7-0.7,1.2-1.6,1.8-2.4
				c-1-0.7-2-1.2-2.8-1.9c-2.4-2.2-4.8-4.4-7.1-6.6c-2.1-2.1-4.2-4.2-6.2-6.4c-0.6-0.7-1.3-0.7-2.2-0.5c-2.1,0.5-4.2,0.7-6.4,0.3
				c-3.1-0.5-6.2-1.2-9.2-1.7C163.9,337.7,163.3,337.7,162.4,337.5z"/>
			<path d="M361.4,366c-0.2,0.4-0.3,0.8-0.6,1.1c-1.6,1.4-3.1,2.7-5.1,3.6c-1.5,0.6-2.9,0.4-4.2-0.3c-1.7-0.9-3.4-2-5.1-3
				c-1.2-0.6-1.9-1.6-2.6-2.7c-1.7-3.1-3.4-6.2-5.1-9.3c-1.8-3.5-3.5-7-5.3-10.5c-2-4-4.1-8-6.2-11.9c-1.5-2.8-3-5.6-4.4-8.4
				c-2.1-4.3-4-8.6-6.1-12.8c-0.9-1.9-2-3.6-3-5.5c-0.7-1.4-1.5-2.8-2.2-4.2c-0.6-1.2-0.3-1.8,0.9-2.3c1.6-0.6,3.2-1.2,4.8-1.9
				c2.6-1.1,5.1-2.4,7.6-3.6c0.5-0.2,0.9-0.5,1.3-0.8c0.9-0.6,1.2-0.7,2,0.2c1,1,2,2.1,3,3.2c2,2.4,4,4.7,5.9,7.2c2,2.5,4,5,5,8.2
				c1,3,2.3,5.9,3.5,8.9c0.2,0.4,0.3,0.8,0.4,1.2c1.2,3.2,2.3,6.5,3.5,9.7c0.5,1.3,0.9,2.7,1.3,4c1,3.4,2,6.9,3.4,10.2
				c1.2,2.9,2.1,6,3.2,9c0.9,2.4,1.9,4.8,2.9,7.3C360.7,363.6,361,364.7,361.4,366z M327,295.2c-0.7,0.3-1.2,0.4-1.7,0.6
				c-3.7,1.7-7.5,3.4-11.2,5.1c-0.8,0.4-0.9,0.6-0.5,1.5c0.5,1,1.1,1.9,1.6,2.8c2.1,4,4.2,8,6.3,12c0.1,0.1,0.1,0.3,0.2,0.4
				c1.6,3.5,3.1,6.9,4.8,10.3c1.6,3.3,3.5,6.5,5.2,9.8c1.5,3,3,6,4.4,9c1.7,3.4,3.3,6.7,5,10.1c1.2,2.3,2.1,4.7,3.8,6.6
				c1.1,1.3,1,1.3,2.5,0.6c0.3-0.1,0.6-0.2,0.9-0.3c1.2-0.5,2.4-1,3.6-1.5c0.8-0.4,1.2-1.2,0.9-2.1c-0.4-1.5-0.7-2.9-1.3-4.3
				c-1.8-4.4-3.7-8.8-5.7-13.2c-1.4-3.2-2.8-6.4-4.3-9.6c-2.4-5.1-4.4-10.4-6.1-15.7c-1.6-4.9-3-9.9-5.2-14.5
				c-0.7-1.4-1.1-2.9-1.7-4.3C328.1,297.5,327.6,296.4,327,295.2z"/>
			<path d="M439.8,241.4c1.1,1.5,1.7,3,3.1,4.2c1.3,1.2,2.6,2.4,3.8,3.7c0.5,0.5,0.9,1.2,1.1,1.8c0.3,0.8-0.1,1.3-0.9,1.5
				c-0.2,0.1-0.5,0.1-0.8,0.1c-2.3-0.1-4.7-0.1-7-0.4c-4.7-0.5-9.4-1-14.1-1.6c-3.6-0.5-7.1-1-10.7-1.7c-5.4-1-10.8-2.1-16.1-3.1
				c-1.2-0.2-2.4-0.3-3.6-0.5c-1.4-0.3-2.7-0.8-4-1.3c-0.6-0.2-1.3-0.6-1.1-1.5c0.1-0.8,0.5-1.3,1.4-1.5c2-0.5,4-1.1,6.1-1.5
				c3.4-0.7,6.8-1.3,10.2-1.9c1.3-0.2,2.7-0.3,4-0.4c2.7-0.3,5.4-0.6,8.1-0.9c0.3,0,0.7-0.2,1.1-0.3c-0.4-1.5-1.3-2.7-2-3.9
				c-1-1.9-2.2-3.8-3.3-5.7c-0.6-1-0.5-2-0.4-3.1c0.1-0.8,0.6-1.2,1.6-1.1c2,0.2,4,0.3,5.9,0.7c4.7,1,9.5,2.1,14.2,3.2
				c4.3,0.9,8.6,1.9,12.9,2.7c5.6,1.1,11.2,2.1,16.7,3.2c5.8,1.2,11.7,2.3,17.3,4.2c0.8,0.3,1.6,0.6,2.3,0.9c0.6,0.2,1.1,0.7,1,1.4
				c0,0.8-0.5,1.2-1.2,1.4c-0.5,0.1-1,0.1-1.6,0.1c-5.9-0.1-11.9-0.4-17.8-0.4c-5.5,0-11,0-16.6,0.5c-2.8,0.2-5.6,0.6-8.4,0.8
				C440.8,241.2,440.4,241.3,439.8,241.4z M416.4,224.4c0.1,0.5,0.1,1.1,0.3,1.5c0.9,1.7,1.9,3.5,2.9,5.2c0.9,1.5,1.8,3.1,2.6,4.6
				c0.5,1,0.3,1.5-0.8,1.9c-0.1,0.1-0.3,0.1-0.5,0.1c-2.6,0.4-5.3,1.1-7.9,1.1c-3.9,0.1-7.6,0.9-11.4,1.7c-2.6,0.5-5.1,1-7.7,1.5
				c-0.8,0.2-1.6,0.3-2.3,1c1.2,0.8,2.3,1,3.5,1.2c1.1,0.1,2.2,0.2,3.3,0.4c4.5,0.9,9,1.8,13.5,2.6c3.6,0.7,7.3,1.2,11,1.7
				c4,0.5,8.1,1,12.1,1.4c2.9,0.3,5.8,0.5,8.7,0.8c0.5,0,1.1-0.1,2-0.1c-0.8-0.8-1.2-1.4-1.8-1.8c-2.1-1.8-3.9-3.9-5.4-6.3
				c-0.8-1.2-0.7-2.4,0.3-3.1c0.3-0.2,0.8-0.4,1.2-0.4c2.7-0.3,5.3-0.9,8.1-0.8c1.4,0.1,2.7-0.1,4.1-0.2c3.9-0.2,7.8-0.4,11.7-0.4
				c3.4,0,6.8,0.2,10.2,0.3c2,0.1,4.1,0.1,6.1,0.1c0.8,0,1.7,0.2,2.7-0.3c-0.5-0.3-0.9-0.6-1.3-0.7c-1.4-0.4-2.8-0.8-4.2-1.1
				c-3.2-0.7-6.5-1.2-9.6-2.2c-3.1-0.9-6.3-1-9.4-1.8c-3-0.7-6-1.1-9-1.7c-2.8-0.6-5.6-1.4-8.4-2c-1.9-0.4-3.8-0.7-5.7-1.1
				c-1.9-0.4-3.8-1.1-5.7-1.5c-3-0.6-6-1.2-9.1-1.6C419.3,224.3,418,223.9,416.4,224.4z"/>
			<path d="M413.1,173.5c2.6,1.4,4.8,2.5,7.1,3.4c1.8,0.6,3.6,1.4,5.4,2.2c0.6,0.3,1.1,0.7,1.6,1.1c-0.3,0.9-0.9,1.2-1.6,1.4
				c-6,1.4-12,2.8-18,4.3c-3.5,0.8-7,1.6-10.5,2.7c-3.8,1.2-7.6,2.6-11.4,3.9c-2.8,1-5.5,2.3-8.3,3.2c-2.8,1-5.7,1.7-8.6,2.5
				c-0.8,0.2-1.7,0-2.6,0c-0.5-1,0-1.5,0.6-1.9c1.3-1,2.7-1.9,4.1-2.9c1.4-1.1,2.8-2.1,4.2-3.2c0.9-0.7,1.9-1.5,2.8-2.3
				c2.6-2.3,5.2-4.6,7.8-6.8c1.6-1.4,3.2-2.7,4.8-4c1-0.9,2.2-1.6,2.9-2.9c-0.6-0.5-1.1-1-1.8-1.3c-1.8-0.9-3.6-1.7-5.4-2.5
				c-1-0.4-2-0.6-3-1c-0.4-0.2-0.9-0.6-1.1-1c-0.2-0.7,0.4-1,0.9-1.3s1.1-0.5,1.6-0.6c4.7-1.3,9.4-2.6,14-3.9
				c4.3-1.2,8.5-2.4,12.8-3.5c6.2-1.6,12.3-3.1,18.5-4.7c4.3-1.1,8.5-2.1,12.8-3.1c1.3-0.3,2.5-0.6,3.8-0.9c0.3-0.1,0.5-0.2,0.8-0.1
				c0.3,0.1,0.8,0.2,0.9,0.5c0.1,0.2,0,0.7-0.2,0.9c-1,1.3-2.2,2.5-3.7,3.2c-2,1-3.8,2.2-5.7,3.2c-1.3,0.7-2.6,1.3-3.9,2.1
				c-2.6,1.6-5.1,3.2-7.7,4.8c-0.7,0.4-1.5,0.8-2.2,1.3c-2.8,1.8-5.6,3.6-8.4,5.4C415.5,172.1,414.4,172.7,413.1,173.5z
				 M369.8,196.2c0.1,0.1,0.1,0.2,0.2,0.3c2.6-0.9,5.3-1.6,7.8-2.6c4-1.6,7.9-3.3,11.9-4.7c5.8-1.9,11.6-3.8,17.6-5.1
				c4.3-1,8.5-2.1,12.8-3.1c1-0.2,2-0.6,2.9-0.8c0-0.1,0-0.2,0-0.4c-0.7-0.3-1.4-0.6-2.1-0.9c-2.8-1.2-5.7-2.3-8.5-3.5
				c-1.5-0.6-1.7-2-0.5-3.1c0.2-0.2,0.4-0.3,0.6-0.5c4.1-2.6,8.3-5.2,12.4-7.8c4.7-3,9.4-5.9,14.3-8.5c1.2-0.6,2.4-1.5,3.5-2.3
				c-19.4,3.8-38.4,9.1-57.5,14.5c0.2,0.2,0.2,0.3,0.3,0.4c0.3,0.1,0.6,0.3,0.9,0.4c2.6,0.8,4.9,2.2,7.2,3.7
				c0.3,0.2,0.6,0.4,0.9,0.7c0.9,0.8,1,1.3,0.2,2.2c-0.5,0.6-1.1,1.3-1.7,1.8c-2.9,2.3-5.8,4.4-8.2,7.2l-0.1,0.1
				c-4.2,3.8-8.5,7.3-13.1,10.7C371,195.3,370.4,195.8,369.8,196.2z"/>
			<path d="M24.9,235c0.7-0.8,1.5-0.7,2.2-0.6c3.5,0.6,7,1.2,10.5,1.8c5.9,1,11.8,2,17.7,3c2.4,0.4,4.8,0.9,7.2,1.4
				c0.5,0.1,1,0.1,1.7,0.2c-0.3-0.5-0.5-0.8-0.7-1c-1.5-1.9-2.9-3.8-4.4-5.7c-0.1-0.1-0.2-0.2-0.3-0.4c-0.1-0.4-0.1-0.9-0.1-1.3
				c0.4,0,0.9-0.2,1.3-0.1c3.3,1.1,6.6,2.3,9.9,3.5c5.7,2.2,11.3,4.6,17,6.9c3.9,1.6,7.9,3.1,11.8,4.6c1.3,0.5,2.6,1.1,3.5,2.2
				c0.6,0.8,0.5,1.4-0.5,1.6c-0.5,0.1-1.2,0.2-1.7,0c-2.6-0.9-5.2-0.8-7.9-0.7c-1,0-2.1,0-3.1-0.1c-3.3-0.3-6.5-0.6-9.8-1
				c-0.3,0-0.5,0-0.9,0c0,0.4,0,0.7,0,1.1c0.4,3.5,1.1,7,2,10.4c0.3,1.1,0.4,2.2,0.5,3.2c0,1-0.6,1.5-1.6,1.3
				c-0.4-0.1-0.8-0.2-1.2-0.4c-2.5-1.1-4.9-2.3-7.4-3.5c-1.5-0.7-3-1.4-4.6-2.1c-6.7-3-13.1-6.5-19.3-10.4c-2.8-1.8-5.8-3.3-8.7-5
				c-3.3-1.9-6.5-3.9-9.8-5.8c-0.4-0.2-0.8-0.4-1.3-0.6C26.1,237,25.3,236.2,24.9,235z M29.7,236.6c0,0.1-0.1,0.3-0.1,0.4
				c0.4,0.3,0.7,0.6,1.1,0.8c3.2,1.9,6.5,3.8,9.7,5.7c3,1.8,6.1,3.5,9.1,5.2c2.6,1.5,5.1,3.1,7.7,4.5c4.2,2.2,8.5,4.2,12.8,6.2
				c2.5,1.2,5,2.3,7.6,3.4c0.4,0.2,0.9,0.3,1.3,0.4c0.4-0.9,0-1.7-0.1-2.4c-0.7-3.6-1.5-7.1-2.3-10.7c-0.1-0.4-0.1-0.8-0.1-1.2
				c0-1.1,0.5-1.5,1.6-1.4c2.4,0.2,4.9,0.3,7.3,0.6c3.6,0.5,7.2,0.7,10.8,0.5c0.2,0,0.4-0.1,0.9-0.3c-0.7-0.3-1-0.5-1.4-0.6
				c-3.1-1.1-6.2-2.2-9.2-3.4c-1.8-0.7-3.6-1.3-5.4-2c-4.1-1.7-8.1-3.5-12.2-5.2c-1.4-0.6-2.9-1.1-4.4-1.7c-0.5-0.2-1.1-0.3-1.9-0.5
				c0.3,0.6,0.4,0.9,0.5,1.1c1.3,1.6,2.6,3.1,3.9,4.7c0.4,0.5,1,1,1.3,1.5c0.2,0.3,0.3,1,0.1,1.1c-0.3,0.3-0.9,0.4-1.4,0.4
				s-1-0.4-1.5-0.5c-4.3-0.9-8.7-1.9-13-2.6c-6-0.9-12-2-18-3.2C32.9,237.1,31.3,236.8,29.7,236.6z"/>
			<path d="M82.8,304.1c1.5,1.1,3.1,1.8,4.7,2.6c1.9,0.9,3.8,1.8,5.6,2.8c1.3,0.7,1.3,1.6,0,2.4c-3.6,2.4-7.4,4.5-11.4,6.2
				c-4.8,2.1-9.4,4.5-14.1,6.7c-1.5,0.7-3,1.4-4.5,2.1c-1.6,0.8-3.2,1.5-4.8,2.3c-4.8,2.5-9.6,5-14.4,7.5c-1.1,0.5-2.2,0.9-3.4,1.3
				c-0.4,0.1-0.9,0.1-1.5,0.1c0.3-1.3,0.6-2.3,1.5-3.1c4.5-3.9,8.7-8.3,12.8-12.6c2.6-2.8,5.3-5.6,8-8.3c1.4-1.4,2.8-2.6,4.2-4
				c0.5-0.5,0.9-1,1.3-1.4c-0.4-0.9-1.2-1-1.9-1.2c-2.2-0.4-4.4-0.6-6.7-0.9c-2-0.3-3.9-0.5-5.9-0.8c-0.6-0.1-1.1-0.4-1.2-1.1
				c-0.1-0.7,0.5-1,1.1-1.2c1.5-0.5,3-1.1,4.6-1.5c6.3-1.5,12.2-3.9,18.3-6c5-1.8,9.9-3.5,15.2-4.4c1.8-0.3,3.6-1,5.4-1.5
				c0.4-0.1,0.7-0.2,1.1-0.3c0.6-0.2,1.3-0.4,1.5,0.3c0.2,0.5,0,1.3-0.4,1.7c-0.6,0.8-1.4,1.3-2.2,1.9c-3,2.3-6.1,4.6-9.1,6.9
				c-1.1,0.8-2.1,1.7-3.2,2.5C83.2,303.4,83,303.7,82.8,304.1z M45.3,333.5c0.1,0.1,0.2,0.2,0.2,0.4c0.5-0.2,1-0.4,1.5-0.7
				c6.6-3.2,13.1-6.4,19.7-9.6c4.7-2.3,9.5-4.6,14.2-6.9c3.4-1.6,6.7-3.1,9.7-5.3c0.3-0.2,0.6-0.5,0.8-0.8c-1.1-1-2.1-1.4-3.6-2.1
				c-2.3-1-4.5-2.1-6.7-3.3c-1.4-0.8-1.4-1.4-0.1-2.4c2.3-1.8,4.6-3.6,7-5.3c2.2-1.6,4.4-3.2,6.6-5.4c-0.6,0.1-1,0.1-1.3,0.2
				c-1.6,0.4-3.3,0.7-4.9,1.2c-4.2,1.2-8.4,2.2-12.4,3.8c-6.4,2.4-12.7,4.7-19.3,6.4c-0.5,0.1-0.9,0.4-1.3,0.6c0,0.1,0,0.3,0.1,0.4
				c1.3,0.1,2.7,0.3,4,0.4c3,0.3,6,0.8,8.8,2c1.4,0.6,1.5,1.1,0.4,2.1c-1.3,1.3-2.6,2.6-4,3.7c-4,3.3-7.3,7.2-10.7,10.9
				c-2.6,2.8-5.2,5.6-7.8,8.4C46,332.6,45.7,333.1,45.3,333.5z"/>
			<path d="M411.6,307.5c0.1,2,0.8,3.7,1.4,5.3c0.7,1.9,1.5,3.9,2.2,5.9c0.1,0.3,0.2,0.6,0.2,0.9c0.1,0.8-0.4,1.2-1.1,1.1
				c-0.5-0.1-0.9-0.2-1.3-0.4c-4.2-1.9-7.9-4.6-11.7-7.3c-3.8-2.8-7.9-5.3-11.8-8c-2.6-1.8-5.2-3.5-7.7-5.3
				c-0.7-0.5-1.2-1.1-1.7-1.8c-0.2-0.3-0.4-1-0.2-1.2c0.2-0.3,0.8-0.5,1.2-0.4c1.1,0.1,2.3,0.2,3.4,0.5c1.4,0.3,2.7,0.8,4,1.3
				c2.2,0.7,4.4,1,6.6,0.8c2-0.1,2.2-0.5,2.6-2.4c0.5-2.4,0.3-4.9,0.4-7.3c0-0.8,0.1-1.6,0.3-2.3c0.3-1.2,1-1.5,2.1-0.9
				c2.7,1.6,5.4,3.1,7.9,4.8c5.4,3.8,10.8,7.7,16.2,11.6c2.9,2.2,5.7,4.5,8.7,6.7c3.9,3,7.9,5.9,11.8,8.8c2.9,2.1,5.8,4.1,8.7,6.1
				c0.4,0.3,0.9,0.6,0.6,1.1c-0.2,0.4-0.6,0.8-1,0.8c-0.5,0.1-1.2,0.1-1.7-0.2c-6.2-2.7-12.3-5.4-18.5-8.2
				c-4.6-2.1-9.3-4.1-13.9-6.2c-2-0.9-3.9-2-5.8-3C413,308,412.4,307.8,411.6,307.5z M448.9,322.9c0.1-0.1,0.2-0.2,0.2-0.4
				c-0.8-0.6-1.7-1.1-2.5-1.8c-2.6-2-5.3-3.9-7.9-5.9c-3.2-2.4-6.4-4.8-9.6-7.2c-4.5-3.4-9-6.8-13.5-10.2c-1.8-1.4-3.8-2.6-5.7-3.9
				c-2.8-2-5.6-4-8.7-5.5c-0.4-0.2-0.9-0.4-1.6-0.6c0,1.2-0.1,2.2-0.1,3.1c0.1,2.2,0.1,4.5-0.4,6.7c-0.5,2.2-1.2,2.9-3.5,3.1
				c-2.1,0.1-4.2,0.1-6.2-0.5c-1.6-0.5-3.3-1-5-1.4c-0.6-0.2-1.2-0.2-1.8-0.3c0,0.1-0.1,0.2-0.1,0.3c0.4,0.3,0.7,0.7,1.1,1
				c2,1.4,4,2.7,6,4c4.6,3.1,9.2,6.3,13.8,9.4c2,1.3,4,2.7,6,4c1.2,0.7,2.4,1.4,3.9,1.8c-0.1-0.6-0.1-1-0.2-1.3
				c-0.5-1.3-1.2-2.5-1.6-3.7c-0.8-2.3-1.4-4.6-2.1-6.9c-0.3-1.1,0.4-1.7,1.5-1.4c0.3,0.1,0.5,0.1,0.7,0.3c1.2,0.6,2.4,1.3,3.6,1.9
				c4.1,2,8.2,4,12.4,6c4,1.9,8,3.6,12,5.4c2.6,1.2,5.2,2.4,7.8,3.6C448,322.7,448.5,322.8,448.9,322.9z"/>
			<path d="M292.3,197.2c0.7-0.2,1.3-0.3,1.8-0.5c2.4-0.9,4.8-0.5,7,0.3c0.9,0.4,1.9,1.2,2.4,2.1c1.1,2,2.1,4.1,3,6.2
				c0.3,0.7,0.2,1.6,0.3,2.5c0.1,1.1,0.2,2.3,0.1,3.4c0,1.8-0.2,3.6-0.3,5.5c0,0.6-0.1,1.2-0.1,1.9c1.2-0.1,2.4-0.4,3.5-0.4
				c1.9,0,3.8,0.3,5.8,0.4c1.6,0.1,1.8,0.1,2.2-1.5c0.3-1.2,0.3-2.6,0.4-3.8c0-0.5-0.1-0.9,0.1-1.4c0.1-0.3,0.4-0.7,0.7-0.7
				c0.3,0,0.7,0.3,0.8,0.6c0.2,0.5,0.3,1.1,0.3,1.7c-0.2,1.8-0.4,3.5-0.6,5.4c0.2,0.1,0.6,0.2,1,0.3c1.7,0.6,3.4,1,5,1.7
				c1.7,0.7,2.9,2.2,3.9,3.7c1.1,1.6,2.4,3.2,3,5.1c0.1,0.4,0.4,0.7,0.7,1.1c1.6-0.7,2.4-2,3.3-3.3c0.2-0.3,0.4-0.7,0.6-1.1
				c0.3-0.5,0.8-0.7,1.3-0.4c0.4,0.3,0.6,0.8,0.2,1.2c-0.9,1.3-1.8,2.7-2.9,3.8c-2.1,2.1-1.9,1.1-1.3,4.1c0,0.1,0,0.2,0.1,0.3
				c1.3,3.5,1,7.1,0.2,10.6c-0.1,0.4-0.1,0.8-0.2,1.2c0.2,0,0.4,0.1,0.5,0.1c4.1-1.1,8.2-0.4,12.2,0.8c1.5,0.5,2.8,1.6,4.1,2.5
				c0.9,0.7,1.2,0.8,2,0.2c1.6-1.3,3.3-2.6,4.3-4.5c0.6-1,1-1.2,1.5-0.9c0.5,0.4,0.6,1,0,1.8c-0.5,0.8-1.1,1.5-1.8,2.2
				c-1.9,1.8-3.8,3.6-6.5,4c-1.3,0.2-2.7,0.4-4,0.5c-0.6,0.1-0.9-0.4-0.9-0.8c0-0.3,0.4-0.7,0.7-0.8c0.5-0.2,1-0.1,1.5-0.1
				s1-0.1,1.7-0.1c-0.2-0.5-0.3-0.8-0.5-0.9c-1.1-1-2.3-1.7-3.7-1.9c-2.1-0.3-4.2-0.4-6.3-0.8c-2.1-0.3-3.7,0.6-5.4,1.6
				c-0.5,0.3-0.9,0.8-1.5,0.3s-0.4-1.1-0.2-1.7c0.5-1.8,1-3.6,1.3-5.5c0.2-1.5,0.3-3,0.1-4.5c-0.7-5.2-2.7-9.9-5.9-14.2
				c-1.4-1.8-3.3-2.8-5.5-3.4c-4-1.1-8.1-1.3-12.3-1.5c-0.6,0-1.2,0.2-1.8,0.3c-1.2,0.4-2,1.2-2.1,2.5c-0.3,3-1.3,5.8-2.4,8.5
				c-0.2,0.4-0.4,0.9-0.7,1.2c-0.3,0.2-0.8,0.3-1.1,0.1c-0.2-0.1-0.2-0.6-0.3-0.9c0-0.1,0.1-0.3,0.1-0.4c1.4-2.4,2-5.2,2.6-7.8
				c1-4,1.1-8.2,1.1-12.3c0-1.9,0.2-3.9-0.5-5.7c-0.7-1.7-1.3-3.4-2.2-5c-0.3-0.6-1-1.2-1.7-1.5c-2.2-0.9-4.4-1.3-6.7-0.3
				c-0.5,0.2-0.9,0.7-1.3,1c-0.4,0.4-0.7,0.9-1.2,1.2c-0.2,0.2-0.7,0.3-0.8,0.2c-0.2-0.2-0.5-0.6-0.4-0.9c0.4-2.3-0.1-4.5-0.5-6.7
				c-0.3-1.6-0.6-3.4-1.3-4.8c-1.2-2.4-2.8-4.5-5.9-4.7c-0.5,0-1-0.1-1-0.8c0-0.6,0.5-0.9,1.1-0.9c1.6-0.1,2.8,0.7,4,1.6
				c2.2,1.9,3.8,4.1,4.4,7C291.5,192.9,291.9,195,292.3,197.2z"/>
			<path d="M348.3,262.1c-0.1,0.8,0,1.5-0.2,2.1c-0.9,2.9-2.3,5.6-4.1,8c-2.3,3.1-5.4,4.6-9.4,4.3c-1.7-0.2-3.1-0.9-4.1-2.2
				c-0.3-0.3-0.5-0.6-0.9-1c-0.4,1.2-0.7,2.3-1,3.4c-0.9,2.7-2.6,4.6-5.3,5.6c-3.3,1.3-6.6,1.2-9.9-0.1c-0.2-0.1-0.4-0.1-0.6-0.2
				c0,0-0.1,0-0.2,0c-0.9,1.4-1.8,3-2.9,4.3c-0.7,0.9-1.7,1.6-2.6,2.4c-0.2,0.2-0.6,0.4-0.8,0.4c-0.4,0-0.9-0.2-1-0.5
				c-0.1-0.2,0.1-0.9,0.4-1c2.6-1.4,4-3.7,5-6.4c0.2-0.5,0.3-0.9-0.1-1.3c-0.9-1-1.9-1.9-2.8-2.8c-0.3,0.1-0.5,0.2-0.6,0.3
				c-1.8,1.9-3.9,1.9-6.2,1.3c-0.5-0.1-1.1-0.3-0.9-1c0.2-0.6,0.7-0.7,1.2-0.5c0.1,0,0.3,0,0.5,0.1c2.2,0.6,3.7-0.3,5.1-1.9
				c2-2.3,3-5,3.4-7.9c0.4-3.7,0-7.4-1.4-10.8c-1.3-3.1-2.8-6.1-5-8.6c-0.2-0.2-0.3-0.4-0.4-0.6c0.8-1.1,1.1-1.2,1.8-0.4
				c1,1,2,2,3.3,2.6c1.1,0.6,2.3,1,3.6,1c1.7,0.1,3.2-0.3,4.6-1.4c1.9-1.5,3.2-3.2,3.8-5.6c0.5-2.1,1.1-4.1,0.9-6.3
				c0-0.1,0-0.2,0-0.3c0-0.5,0.2-1,0.8-1c0.6,0,0.8,0.5,0.8,0.9c0.1,0.7,0.2,1.5,0,2.2c-0.5,2.2-0.7,4.4-1.6,6.5
				c-1.2,2.8-3.2,4.8-5.8,6.1c-0.9,0.5-2.2,0.4-3.3,0.4c-1.1,0-2.3-0.2-3.5-0.4c0.3,1.5,1,2.7,1.5,4c2.2,5.5,2.8,11.1,0.5,16.7
				c-0.5,1.1-1.1,2.1-1.8,3.3c1.4,1.6,2.8,3.2,4.5,4.4c0.8,0.6,1.8,0.8,2.8,1c2.3,0.4,4.6,0.2,6.8-0.6c2.5-0.9,3.9-2.8,4.5-5.2
				c1.1-4.4,0.8-8.8-1-13c-0.1-0.3-0.3-0.6-0.2-0.9c0.1-0.3,0.4-0.7,0.7-0.9c0.2-0.1,0.7,0.2,0.8,0.5c0.4,0.9,0.7,1.8,0.9,2.7
				c0.3,1,0.4,1.9,0.7,2.9c0.5,1.8,1,3.6,1.8,5.3c0.9,2,2.8,3.1,5.2,2.9c3.6-0.3,6-2.4,7.7-5.5c1.1-1.9,2-3.8,2.6-5.8
				C346.8,262.9,346.9,262,348.3,262.1z"/>
			<path d="M364.1,380.2c1.7-0.7,3.1,0.4,4.6,1.4c1.2,0.7,2.4,1.4,3.6,2.2c4.3,3,5.4,10.2,0.5,13.7c-1.5,1.1-3.2,1.5-5,1.1
				c-1.4-0.3-2.7-0.8-4-1.1c-1.8-0.5-2.9-1.8-3.6-3.5c-1-2.5-1.8-5-2.1-7.7C357.8,382.4,360,380.1,364.1,380.2z M369.8,389.8
				c-0.3-3.4-1.8-6-4.5-7.9c-1.4-1-4-0.5-4.7,1c-0.6,1.2-1.2,2.6-1,4c0.2,2.1,0.9,4.1,1.9,6s2.8,2.1,4.7,2c1.8-0.1,2.8-1.2,3.2-2.9
				C369.5,391.2,369.6,390.5,369.8,389.8z"/>
			<g>
				<path d="M272.7,86.8c0.4-0.1,0.7-0.2,1-0.3c3.6-1.4,7.2-1.5,11-0.7c1.6,0.3,3.2,0.5,4.8,0.7c1.8,0.2,3.4,0.7,5,1.5
					c1,0.5,1.9,0.9,2.9,1.4c0.3,0.1,0.6,0.2,0.8,0.4c1.5,1.2,3,2.4,4.4,3.6c1.5,1.3,2.6,3.1,3.6,4.8c1.2,2.1,2.2,4.3,2.9,6.5
					c0.6,2,0.8,4.2,0.8,6.2c-0.2,7-1.7,13.9-3.2,20.7c-0.9,4.2-2.5,8.1-4,12.1c-0.8,2.3-2.7,3.3-4.9,3.4c-1.6,0.1-3.2-0.3-4.8-0.6
					c-1.1-0.2-1.9-1.1-2.4-2.1c-0.5-1.1-0.9-2.1-1.4-3.2c-0.1-0.2-0.1-0.5-0.2-0.7c-1.1-1.5-0.4-2.9,0-4.4c0.8-3,1.4-6,2.1-9
					c0.4-1.7,0.6-3.5,0.8-5.2c0.2-1.7,0.3-3.5,0.5-5.3c0.2-2.8,0.5-5.6,0.5-8.3c0-1.4-0.4-2.8-0.7-4.2c-0.3-1.5-1.9-2.3-3.5-2.4
					c-2-0.1-3.8,0.7-5.6,1.5c-1.6,0.8-2.9,1.9-4.1,3.2c-2.3,2.7-4.1,5.7-5.8,8.8c-0.7,1.4-1.1,2.9-1.5,4.4c-0.7,3-1.4,6-2,9
					c-0.5,2.8-0.8,5.7-1.3,8.5c-0.1,0.4-0.4,0.9-0.7,1.2c-1.2,1.1-2.6,1.7-4.1,2.2c-1.1,0.4-1.9,0.4-3-0.2c-2-1.2-3.8-2.6-5.4-4.2
					c-0.4-0.4-0.6-0.9-0.7-1.4c-0.1-1.1-0.2-2.1-0.1-3.2c0.2-3.2,0.5-6.3,0.9-9.5c0.8-6.1,1.5-12.1,2.5-18.2
					c0.7-4.2,1.8-8.4,2.6-12.6c0.5-2.6,0.9-5.2,1.4-7.8c0.3-1.5,0.3-1.5,1.7-1.3c1.7,0.2,3.5,0.4,5.2,0.6c0.8,0.1,1.4,0.4,1.9,1.2
					C271.1,85,271.9,85.8,272.7,86.8z M268.7,84.3c-1.6-0.3-3.3-0.6-4.9-0.6c-0.7,0-1,0.5-1,1.2c-0.4,2.9-0.9,5.8-1.5,8.7
					c-0.9,3.9-1.4,8-2.2,11.9c-0.6,3.1-1,6.2-1.4,9.3c-0.7,4.8-1.1,9.6-1.5,14.4c-0.1,1.5-0.1,3-0.1,4.5c0,0.6,0,1.2,0.7,1.2
					c0.9,0.1,1.8,0.1,2.8,0c0.8,0,1-0.5,1.1-1.3c0.2-1.8,0.4-3.6,0.8-5.4c1.2-4.5,2.5-9,3.8-13.4c0.4-1.3,0.7-2.6,1.3-3.7
					c1.4-2.6,2.9-5.2,4.5-7.8c1.4-2.3,3.1-4.3,5.3-5.9c3.4-2.6,7.1-3.4,11.2-1.7c2.5,1.1,4.4,2.6,5.4,5.3c0.3,0.9,0.5,1.8,0.8,2.6
					c1.3,3.7,0.8,7.4,0.4,11.1c-0.3,3.3-0.8,6.5-1.3,9.7c-0.5,3.3-1.2,6.5-1.8,9.8c-0.2,1.1-0.6,2.3-0.9,3.6c2,0.7,3.7,1.6,5.9,1.4
					c0.1-0.4,0.3-0.8,0.3-1.2c0.8-3.2,1.6-6.5,2.5-9.7c1.3-4.7,2.6-9.3,3.5-14.1c1-5.4,0.3-10.6-1.2-15.8c-0.4-1.5-0.7-3-1.5-4.3
					c-2.1-3.5-5.3-5.5-9.3-6.4c-2.4-0.5-4.8-0.8-7.2-1.2c-3.4-0.4-6.6-0.1-9.7,1.5c-1.2,0.6-2.3,1.3-3,2.5c-0.3,0.5-0.5,1-0.8,1.4
					c-0.2,0.2-0.6,0.4-0.9,0.3s-0.5-0.4-0.6-0.7c-0.1-0.2,0-0.5,0-0.7c0.2-1.6,0.5-3.3,0.7-4.9C268.8,85.5,268.7,84.9,268.7,84.3z"
					/>
				<path class="st1" d="M268.7,84.3c0,0.7,0.1,1.2,0,1.7c-0.2,1.7-0.5,3.3-0.7,4.9c0,0.2-0.1,0.5,0,0.7c0.1,0.3,0.3,0.7,0.6,0.7
					c0.2,0.1,0.7-0.1,0.9-0.3c0.3-0.4,0.6-0.9,0.8-1.4c0.7-1.2,1.8-1.9,3-2.5c3.1-1.6,6.4-1.9,9.7-1.5c2.4,0.3,4.9,0.6,7.2,1.2
					c3.9,0.9,7.2,2.9,9.3,6.4c0.8,1.3,1.1,2.8,1.5,4.3c1.5,5.2,2.2,10.4,1.2,15.8c-0.9,4.8-2.1,9.4-3.5,14.1
					c-0.9,3.2-1.7,6.4-2.5,9.7c-0.1,0.4-0.2,0.7-0.3,1.2c-2.1,0.3-3.9-0.7-5.9-1.4c0.3-1.3,0.7-2.4,0.9-3.6c0.6-3.3,1.3-6.5,1.8-9.8
					c0.5-3.2,1-6.5,1.3-9.7c0.4-3.7,0.9-7.4-0.4-11.1c-0.3-0.8-0.5-1.7-0.8-2.6c-1-2.6-2.9-4.2-5.4-5.3c-4.1-1.8-7.7-0.9-11.2,1.7
					c-2.1,1.6-3.9,3.6-5.3,5.9c-1.5,2.5-3.1,5.1-4.5,7.8c-0.6,1.2-0.9,2.5-1.3,3.7c-1.3,4.5-2.6,8.9-3.8,13.4
					c-0.5,1.7-0.6,3.6-0.8,5.4c-0.1,0.7-0.3,1.2-1.1,1.3c-0.9,0-1.9,0-2.8,0c-0.7-0.1-0.7-0.7-0.7-1.2c0-1.5,0-3,0.1-4.5
					c0.3-4.8,0.8-9.6,1.5-14.4c0.5-3.1,0.8-6.2,1.4-9.3c0.8-4,1.3-8,2.2-11.9c0.7-2.9,1.1-5.8,1.5-8.7c0.1-0.7,0.3-1.2,1-1.2
					C265.4,83.7,267.1,83.9,268.7,84.3z"/>
			</g>
			<g>
				<path d="M337.6,165.1c-1.7-0.4-3.1-0.7-4.4-1.1c-3.3-1.1-6.5-2.2-9.8-3.3c-1.7-0.6-3.1-1.7-4.3-3c-1.1-1.2-2.3-2.3-3.4-3.5
					c-1.5-1.6-2.3-3.6-2.7-5.7c-0.1-0.6,0.2-1.4,0.6-2c1.1-2,2.3-3.9,3.6-5.9c0.6-1,1.1-1,2-0.3c1.5,1.3,3,2.6,4.6,3.7
					c6.4,4.8,14.4,3.9,19.2-1.4c0.4-0.5,0.8-1,1.1-1.5c1.1-1.9,0.6-3.7-1.2-5.1c-3-2.4-6.5-4.1-9.9-6c-1.4-0.8-2.5-1.8-3.6-3
					c-2.3-2.7-4.5-5.4-5.8-8.7c-1.9-4.8-1.9-9.7,0.8-14.3c1.1-1.9,2.4-3.8,3.8-5.5c2.4-2.9,5.6-4.9,9.3-5.8c2.3-0.6,4.6-0.8,7-0.8
					c1.5,0,3,0.6,4.5,1.1c4.4,1.4,8.4,3.6,12.5,5.8c1.2,0.6,2.2,1.6,3.2,2.5s2,1.8,3.1,2.7c0.6,0.5,0.9,1,0.9,1.7
					c0,0.6,0.1,1.1,0.1,1.7c0.1,0.8,0,1.7,0.4,2.5c1.7,3.9-0.8,6.5-2.9,9.2c-0.9,1.1-2.2,0.6-3.2,0.2c-2-0.8-3.8-1.9-5.7-2.9
					c-0.8-0.4-1.6-0.9-2.5-1.3c-1.2-0.6-2.5-1-3.8-1.6c-3.2-1.4-6.7-2.1-10.2-2.4c-1.3-0.1-2.6,0.1-3.7,0.9c-1.9,1.3-2,3.5-0.4,5
					c1.3,1.2,3,1.7,4.6,2.3c2.1,0.7,4.2,1.5,6.4,2.2c2.7,0.9,4.6,2.8,6.6,4.6c3.1,2.7,5.2,6.3,7.3,9.7c1.7,2.7,3,5.6,2.9,8.9
					c-0.1,2.1-0.5,4.1-1.4,6c-1.5,3.3-3.6,6-6.3,8.4c-1.3,1.2-2.9,1.8-4.5,2.4c-2.8,1.1-5.7,2.1-8.6,2.8
					C341.5,165,339.4,165,337.6,165.1z M366.4,105.5c-2.5-2.5-4.9-4.9-8.1-6.5c-3.2-1.5-6.4-3-9.7-4.3c-2.5-0.9-5-1.3-7.7-1
					c-3.5,0.4-6.4,1.7-9.1,3.7c-2.5,1.8-4.2,4.3-5.7,6.9c-1.7,2.8-2.3,5.9-2.1,9.2c0,0.7,0.1,1.5,0.4,2.1c2.1,4,4.9,7.4,9.3,9.1
					c2.7,1.1,5.4,2,8,3.1c3.3,1.3,5.3,4.4,5.2,7.9c0,0.2,0,0.4,0,0.6c0,2.1-0.5,4.2-1.7,5.9c-2.9,4.3-7.2,6.1-12.1,6.3
					c-4.2,0.2-7.8-1.5-11.1-4.1c-1.1-0.9-2.3-1.8-3.5-2.8c-1.4,1.8-2.5,3.5-3.4,5.4c-0.3,0.6-0.1,1.2,0.4,1.6c1,0.9,1.9,1.8,3,2.5
					c1.7,1,3.7,1.7,5.4,2.7c3.2,1.8,6.8,2.6,10.2,3.9c0.8,0.3,1.7,0.4,2.5,0.3c3.9-0.4,7.7-0.7,11.2-2.9c3.4-2.1,6.2-4.6,8.5-7.8
					c2.6-3.6,3.3-7.6,2.2-11.9c-0.7-2.7-2.2-5-4.1-7.1c-3-3.2-6.3-5.7-10.6-6.8c-3.1-0.8-6.1-2-9.1-3.2c-3.1-1.3-4.8-4.7-4.4-8
					c0.2-1.7,1.2-2.9,2.3-4c2.8-2.9,6-4.4,10.1-3.4c1.5,0.4,3,0.9,4.5,1.2c4.8,1,9.1,3,13.1,5.7c0.9,0.6,1.9,1.3,3.2,1.3
					C364.3,109.4,365.3,107.5,366.4,105.5z"/>
				<path class="st1" d="M366.4,105.5c-1.1,2-2,3.9-3,5.8c-1.3,0-2.3-0.7-3.2-1.3c-4-2.8-8.3-4.7-13.1-5.7c-1.5-0.3-3-0.8-4.5-1.2
					c-4.1-1-7.4,0.5-10.1,3.4c-1.1,1.1-2.1,2.3-2.3,4c-0.4,3.3,1.3,6.8,4.4,8c3,1.2,6,2.4,9.1,3.2c4.3,1.1,7.7,3.6,10.6,6.8
					c1.9,2.1,3.4,4.4,4.1,7.1c1.2,4.3,0.4,8.3-2.2,11.9c-2.3,3.1-5,5.7-8.5,7.8c-3.6,2.1-7.4,2.5-11.2,2.9c-0.8,0.1-1.7,0-2.5-0.3
					c-3.4-1.2-7-2-10.2-3.9c-1.8-1-3.7-1.7-5.4-2.7c-1.1-0.6-2-1.6-3-2.5c-0.5-0.4-0.6-1-0.4-1.6c0.9-1.9,2.1-3.6,3.4-5.4
					c1.2,1,2.4,1.9,3.5,2.8c3.2,2.6,6.9,4.3,11.1,4.1c4.9-0.2,9.3-2,12.1-6.3c1.2-1.8,1.7-3.8,1.7-5.9c0-0.2,0-0.4,0-0.6
					c0-3.5-2-6.6-5.2-7.9c-2.7-1.1-5.4-2.1-8-3.1c-4.4-1.7-7.2-5.1-9.3-9.1c-0.3-0.6-0.4-1.4-0.4-2.1c-0.2-3.2,0.5-6.3,2.1-9.2
					c1.5-2.6,3.3-5.1,5.7-6.9c2.7-2,5.7-3.4,9.1-3.7c2.7-0.3,5.2,0.1,7.7,1c3.3,1.2,6.5,2.7,9.7,4.3
					C361.5,100.6,363.9,103,366.4,105.5z"/>
			</g>
			<g>
				<path d="M294.6,390.8c0.4,3.2,0.8,6.3,1.2,9.2c0.6,3.7,1.2,7.5,1.9,11.2c0.6,3.1,1.3,6.2,1.9,9.3c0.1,0.5,0.2,1.1,0.2,1.6
					c0.1,1.3-0.3,2.2-1.7,2.8c-2.2,0.9-4.3,1.9-6.5,2.9c-0.4,0.2-1,0.3-1.4,0.1c-2.3-0.7-4.5-1.5-6.8-2.3c-0.8-0.3-1.1-0.8-1.2-1.6
					c-1.6-6.5-3.3-13-4.9-19.5c-0.4-1.4-0.6-2.9-0.9-4.3c-0.7-2.9-1.4-5.9-2.1-8.8c-1-4.3-2.1-8.6-3.1-12.9
					c-0.4-1.7-0.8-3.4-1.1-5.1c-0.2-1.1-0.1-1.2,0.9-1.5c2.4-0.7,4.8-1.4,7.1-2.2c0.6-0.2,1-0.2,1.5,0.1c0.3,0.2,0.6,0.3,0.9,0.5
					c1.3,0.6,1.4,0.6,2.4-0.4c3-3,6.6-5,10.7-6.2c2.3-0.7,4.7-0.9,7-1.1c1.5-0.1,3,0.5,4.6,0.9c0.8,0.2,1.5,0.6,2.3,0.8
					c2.6,0.5,4.4,2.3,6.5,3.5c3.7,2.1,6.1,5.4,8.2,8.9c3.9,6.6,6.9,13.7,9.6,20.9c0.9,2.5,1.7,5,2.4,7.6c0.6,2,0.5,4.1-0.1,6.1
					c-0.1,0.4-0.5,0.9-0.8,1.1c-1.4,0.9-2.9,1.9-4.4,2.7c-2.4,1.3-4.7,1.2-7.1-0.1c-0.8-0.5-1.7-0.7-2.5-1.1c-0.9-0.4-1.6-1-1.9-2.1
					c-1.5-4.5-2.9-9-4.5-13.4c-1.1-2.9-2.5-5.8-3.9-8.6c-1.5-3-3.1-5.9-4.8-8.9c-0.5-0.9-1.2-1.8-2-2.4c-1.7-1.3-3.5-1-4.8,0.7
					c-1.2,1.5-1.8,3.2-2.1,5C295,386.6,294.8,388.8,294.6,390.8z M277.8,371.8c-0.4,0.1-0.8,0-1.2,0.2c-1,0.4-1.9,0.8-2.9,1.1
					c-2.1,0.7-2.1,0.7-1.6,2.9c0.9,3.8,1.8,7.6,2.7,11.4c1.6,7,3.2,13.9,4.8,20.9c1.1,4.7,2.4,9.3,3.6,14c0.3,1.3,0.6,1.5,2,1.2
					c1.8-0.5,3.5-1,5.3-1.5c1-0.3,1.2-0.7,1.1-1.9c0-0.3-0.1-0.6-0.2-1c-0.8-3.4-1.5-6.8-2.4-10.1c-1.2-4.5-2.6-9-2.9-13.8
					c-0.2-3.5-0.2-6.9,0.2-10.4c0.4-3.2,1.5-6.1,4.1-8.2c0.7-0.6,1.6-1.1,2.5-1.4c2-0.8,4.1-0.5,6.1-0.2c1.6,0.2,3.3,0.8,4.4,2.2
					c0.9,1.2,1.6,2.4,2.3,3.7c2,3.6,3.9,7.3,5.8,10.9c0.8,1.6,1.7,3.3,2.3,5c1.6,4.4,3.1,8.9,4.6,13.3c0.2,0.5,0.4,0.9,0.7,1.4
					c2.8-0.9,5.4-1.8,8.1-2.6c-0.2-1-0.2-1.8-0.4-2.5c-0.7-2.5-1.6-4.9-2.3-7.4c-1.5-5.2-3.4-10.3-5.5-15.3c-1-2.4-2.2-4.6-3.8-6.6
					c-1.1-1.4-2.2-2.8-3.2-4.3c-2-3-4.6-5.3-7.9-6.7c-3.3-1.4-6.6-2-10.1-0.5c-0.3,0.1-0.6,0.1-0.9,0.3c-5.1,1.8-9.5,4.4-11.4,9.9
					c-0.2,0.5-0.3,1-1,1.1c-0.7,0-0.9-0.4-1.2-1C278.9,374.4,278.4,373.2,277.8,371.8z"/>
				<path class="st1" d="M277.8,371.8c0.6,1.4,1.1,2.7,1.6,3.9c0.2,0.5,0.5,1,1.2,1s0.8-0.5,1-1.1c1.9-5.5,6.3-8.1,11.4-9.9
					c0.3-0.1,0.6-0.1,0.9-0.3c3.4-1.5,6.8-0.9,10.1,0.5c3.3,1.4,5.9,3.7,7.9,6.7c1,1.5,2.1,2.9,3.2,4.3c1.6,2,2.8,4.2,3.8,6.6
					c2,5,4,10.1,5.5,15.3c0.7,2.5,1.6,5,2.3,7.4c0.2,0.8,0.3,1.6,0.4,2.5c-2.7,0.9-5.3,1.7-8.1,2.6c-0.2-0.4-0.5-0.9-0.7-1.4
					c-1.5-4.4-3-8.9-4.6-13.3c-0.6-1.7-1.4-3.4-2.3-5c-1.9-3.7-3.8-7.3-5.8-10.9c-0.7-1.3-1.5-2.5-2.3-3.7c-1.1-1.4-2.8-2-4.4-2.2
					c-2-0.3-4.1-0.5-6.1,0.2c-0.9,0.3-1.7,0.9-2.5,1.4c-2.6,2.1-3.7,4.9-4.1,8.2c-0.4,3.5-0.4,6.9-0.2,10.4
					c0.3,4.8,1.6,9.2,2.9,13.8c0.9,3.3,1.6,6.7,2.4,10.1c0.1,0.3,0.1,0.6,0.2,1c0.1,1.1-0.1,1.5-1.1,1.9c-1.7,0.6-3.5,1.1-5.3,1.5
					c-1.3,0.3-1.6,0.1-2-1.2c-1.2-4.7-2.5-9.3-3.6-14c-1.7-6.9-3.2-13.9-4.8-20.9c-0.9-3.8-1.8-7.6-2.7-11.4
					c-0.5-2.2-0.5-2.2,1.6-2.9c1-0.3,1.9-0.8,2.9-1.1C277,371.8,277.3,371.8,277.8,371.8z"/>
			</g>
			<g>
				<path d="M149.9,119.4c0,1.8,0.1,3.5,0,5.3c-0.1,1.5-1.1,2.3-2.4,2.8c-2.7,1-5.5,2-8.2,3c-2.3,0.9-4.3,1.9-5.9,3.9
					c-1.7,2.1-2,4.3-1.2,6.8c1.1,3.7,2.9,7.1,5.1,10.3c1.7,2.4,3.4,4.7,5,7.2c0.6,0.9,1,1.9,1.4,2.9c0.2,0.4,0.4,0.7,0.6,1.1
					c0.9,1.7,2,3.2,3.4,4.6c0.9,0.9,0.9,1.2,0.1,2.3c-1.4,2-3.4,3.3-5.3,4.8c-0.7,0.6-1.7,0.8-2.6,0.9c-2.1,0.3-4.1,0.4-6.2,0.5
					c-0.4,0-1.1-0.2-1.3-0.5c-1.4-1.8-2.7-3.7-3.9-5.6c-2.4-3.8-4.7-7.7-7.2-11.6c-2-3.2-4.2-6.4-6.3-9.5c-2-3-4.1-6-6.3-9
					c-1.2-1.7-2.4-3.5-4.2-4.8c-0.8-0.6-0.8-1.3-0.1-2.2c1.6-2.1,3.3-4.1,5-6.2c0.6-0.8,1.4-1.4,2.1-2.1c0.7-0.6,1.4-0.7,2.3-0.6
					c1.9,0.2,3.7,0.3,5.6,0.3c0.4,0,0.9-0.2,1.2-0.5c0.9-0.8,1.7-1.7,2.6-2.5c1.5-1.4,2.9-3,4.6-4.2c3.7-2.5,7.8-4.1,12.5-3.8
					c0.5,0,0.9,0.1,1.4,0.1c0.8,0,1.4,0.2,2,0.7c0.8,0.6,1.7,1,2.6,1.4c0.5,0.2,1,0.4,1.5,0.6C149.5,116.6,150.1,117.4,149.9,119.4z
					 M112.3,126c-0.7,0.6-1.2,1-1.7,1.6c-1.2,1.4-2.3,2.8-3.4,4.3c-0.9,1.2-0.9,1.8,0,3.1c2.7,3.8,5.5,7.6,8.2,11.5
					c2.2,3.1,4.3,6.3,6.4,9.5c3.1,4.8,6,9.6,9.1,14.4c0.7,1.2,1.7,2.2,2.6,3.3c2.4-1.7,4.7-3.2,6.4-5.4c-0.9-1.6-1.7-3.1-2.6-4.5
					c-2.3-3.6-4.6-7.2-6.9-10.8c-2-3.2-3.9-6.5-5.7-9.9c-0.8-1.4-1.3-3-1-4.7c0.4-1.9,1-3.8,2.1-5.5c0.8-1.3,1.5-2.8,2.6-3.9
					c1.3-1.3,2.8-2.5,4.4-3.5c1.8-1.1,3.7-2.1,5.9-2.5c1.2-0.2,2.3-0.5,3.6-0.7c0-0.8,0-1.5,0-2.2s0.1-1.5,0.2-2.2
					c0.2-1.7-0.5-2.8-2.3-3c-1.8-0.2-3.5-0.1-5.2,0.6c-1.2,0.5-2.3,1-3.5,1.4c-1.4,0.5-2.6,1.3-3.7,2.3c-1.8,1.7-3.7,3.4-5.4,5.2
					c-1.2,1.3-2.4,2.6-3.4,4.1c-0.6,0.8-0.8,1.8-1.2,2.7c-0.2,0.4-0.6,1-0.8,1c-0.4,0-0.9-0.4-1.2-0.8c-0.5-0.6-0.8-1.3-1.3-2
					C113.8,128.2,113.1,127.1,112.3,126z"/>
				<path class="st1" d="M112.3,126c0.8,1.2,1.5,2.2,2.1,3.2c0.4,0.7,0.8,1.4,1.3,2c0.3,0.4,0.8,0.7,1.2,0.8c0.3,0,0.6-0.6,0.8-1
					c0.4-0.9,0.7-1.9,1.2-2.7c1-1.4,2.2-2.8,3.4-4.1c1.7-1.8,3.6-3.5,5.4-5.2c1.1-1,2.3-1.8,3.7-2.3c1.2-0.4,2.3-0.9,3.5-1.4
					c1.7-0.7,3.5-0.8,5.2-0.6c1.7,0.2,2.5,1.3,2.3,3c-0.1,0.7-0.2,1.5-0.2,2.2s0,1.3,0,2.2c-1.3,0.3-2.4,0.5-3.6,0.7
					c-2.1,0.4-4.1,1.4-5.9,2.5c-1.6,1-3.1,2.2-4.4,3.5c-1.1,1.1-1.7,2.6-2.6,3.9c-1.1,1.7-1.7,3.6-2.1,5.5c-0.3,1.7,0.2,3.3,1,4.7
					c1.8,3.3,3.7,6.6,5.7,9.9c2.2,3.6,4.6,7.2,6.9,10.8c0.9,1.4,1.7,3,2.6,4.5c-1.7,2.2-4,3.8-6.4,5.4c-0.9-1.1-1.9-2.1-2.6-3.3
					c-3.1-4.8-6-9.6-9.1-14.4c-2.1-3.2-4.2-6.3-6.4-9.5c-2.7-3.8-5.4-7.6-8.2-11.5c-0.9-1.3-1-1.8,0-3.1c1.1-1.5,2.2-2.9,3.4-4.3
					C111,127,111.6,126.6,112.3,126z"/>
			</g>
			<path class="st1" d="M327,295.2c0.6,1.2,1.1,2.3,1.5,3.4c0.6,1.4,1.1,2.9,1.7,4.3c2.2,4.7,3.6,9.7,5.2,14.5
				c1.8,5.3,3.7,10.6,6.1,15.7c1.5,3.2,2.9,6.4,4.3,9.6c1.9,4.4,3.8,8.8,5.7,13.2c0.6,1.4,0.9,2.9,1.3,4.3c0.3,0.9-0.1,1.7-0.9,2.1
				c-1.2,0.6-2.4,1-3.6,1.5c-0.3,0.1-0.6,0.2-0.9,0.3c-1.5,0.7-1.5,0.6-2.5-0.6c-1.7-2-2.6-4.4-3.8-6.6c-1.7-3.3-3.4-6.7-5-10.1
				c-1.5-3-2.9-6-4.4-9c-1.7-3.3-3.5-6.5-5.2-9.8c-1.7-3.4-3.2-6.9-4.8-10.3c-0.1-0.1-0.1-0.3-0.2-0.4c-2.1-4-4.2-8-6.3-12
				c-0.5-1-1.2-1.9-1.6-2.8c-0.4-0.8-0.3-1.1,0.5-1.5c3.7-1.7,7.5-3.4,11.2-5.1C325.8,295.6,326.3,295.4,327,295.2z"/>
			<g>
				<path d="M116.6,354.9c1.2,0.8,2.3,1.6,3.4,2.3c1.5,0.9,3,1.7,4.5,2.6c0.4,0.2,0.7,0.5,0.9,0.6c-0.1,1.2-0.8,1.5-1.4,1.9
					c-3.8,2-7.6,4.2-11.5,6.1c-4.5,2.2-9.2,4.2-13.8,6.3c-3.3,1.5-6.5,3.2-9.7,4.7c-1.2,0.6-2.5,1.1-3.7,1.7
					c-2.8,1.4-5.6,2.8-8.4,4.2c-0.2,0.1-0.5,0.3-0.7,0.4c-0.5,0.2-1.1,0.2-1.3-0.4c-0.1-0.3,0.1-0.9,0.4-1.2
					c4.2-4.2,8.4-8.4,12.6-12.6c3.7-3.7,7.3-7.4,11-11.1c0.8-0.8,1.5-1.8,2.4-3c-1.2-0.3-2.1-0.5-3-0.7c-0.8-0.2-1.6-0.4-2.4-0.7
					c-0.9-0.4-1-1-0.2-1.6c0.2-0.1,0.4-0.2,0.5-0.3c4.9-2.1,9.2-5.1,13.9-7.5c3.6-1.9,7.3-3.6,10.9-5.4c2.4-1.2,5-2.2,7.4-3.3
					c0.2-0.1,0.4-0.2,0.6-0.3c0.6-0.2,1-0.1,1.4,0.4s0.3,1-0.1,1.4c-3.5,3.8-6.6,8.1-10.4,11.6c-0.8,0.7-1.5,1.4-2.2,2.2
					C117.3,353.8,117,354.3,116.6,354.9z M79.7,381.9c0.1,0.1,0.2,0.3,0.3,0.4c0.9-0.4,1.9-0.8,2.8-1.3c7.9-4.1,15.9-7.9,23.9-11.6
					c2.7-1.2,5.3-2.6,7.8-3.9c2.7-1.4,5.3-2.9,8-4.3c0.2-0.1,0.4-0.3,0.6-0.6c-0.4-0.3-0.7-0.6-1.1-0.7c-2.3-1-4.4-2.4-6.4-3.8
					c-1-0.7-1.2-1.2-0.5-2.2c0.5-0.8,1.2-1.4,1.8-2.1c2.6-2.7,5.2-5.4,7.8-8.1c0.8-0.9,1.4-2,2.2-3.1c-2.9,0-26.5,12.9-28.2,14.8
					c1.1,0.2,2.1,0.4,3.2,0.5c1.6,0.3,2,1.1,0.9,2.4c-0.5,0.6-1,1.1-1.5,1.6c-1.9,2-3.7,4.1-5.6,6.1c-1.5,1.6-3.2,3-4.7,4.6
					c-2.6,2.7-5.2,5.4-7.9,8C82,379.7,80.9,380.8,79.7,381.9z"/>
			</g>
			<path class="st1" d="M369.8,389.8c-0.1,0.7-0.2,1.5-0.4,2.2c-0.4,1.7-1.4,2.8-3.2,2.9c-1.9,0.1-3.7-0.1-4.7-2s-1.7-3.9-1.9-6
				c-0.1-1.4,0.4-2.8,1-4c0.7-1.4,3.3-2,4.7-1C367.9,383.7,369.5,386.4,369.8,389.8z"/>
			<g>
				<path d="M217.7,114.3c-0.3-5.8-0.5-11.6-0.7-17.3c-0.1-3.8,0.4-7.6,1.6-11.3c0.2-0.6,0.4-1.3,0.5-2c0.3-1,0.7-1.3,1.8-1.4
					c3.1-0.5,6.1,0.2,9.2,0.4c1.5,0.1,2.3,1.1,2.9,2.3c0.6,1.3,1.3,2.5,1.8,3.8c0.3,0.7,0.4,1.4,0.3,2.1c-0.3,3.4-0.7,6.8-0.9,10.3
					s-0.4,7.1-0.3,10.6c0,1.9,0.5,3.7,0.8,5.6c0.4,1.7,2.1,3.2,3.9,3.4c0.9,0.1,1.4,0.5,1.9,1.1c1.2,1.5,2.5,2.9,3.7,4.4
					c0.7,0.8,0.9,1.6,0.7,2.6c-0.6,2.9-1.2,5.8-1.8,8.7c-0.5,2.2-2.7,3.9-5,4.1c-1,0.1-2.1,0-3.1-0.2c-1.7-0.3-3.4-0.6-5-1.3
					c-2.7-1.1-4.8-3-6.2-5.6c-0.9-1.8-1.9-3.5-2.8-5.2c-0.3-0.6-0.4-1.3-0.6-1.9c-0.4-1.2-0.8-2.4-1.2-3.6c-0.2-0.8-0.3-1.6-0.4-2.4
					C218.3,119.2,217.6,114.4,217.7,114.3z M223.6,83.9c-2.2,0.1-3.4,0.7-3.8,2.2c-0.8,2.5-1.4,5.1-1.4,7.8
					c0.1,5.1,0.1,10.1,0.4,15.2c0.3,3.7,0.2,7.4,1.1,11c0.7,2.6,1.5,5.2,2.9,7.5c2.2,3.7,5.3,6.1,9.4,7.2c2.3,0.6,3.8-0.2,4.6-2.3
					c0.2-0.4,0.3-0.9,0.4-1.4c0.4-2.3,0.7-4.6,1-7c0.2-1.6,0.1-1.9-1.5-2c-3.2-0.2-5.5-1.9-7.4-4.4c-1.4-1.9-1.8-4.1-1.9-6.3
					c-0.1-4.2,0-8.4,0-12.7c0-3.7,0.3-7.4,1.2-11c0.2-0.8,0.3-1.5,0.3-2.3c0.1-0.7-0.2-1.1-1-1.1C226.4,84.2,224.8,84,223.6,83.9z"
					/>
				<path d="M230.1,74.4c-2.6,0.1-4.5-1.3-6.2-3c-0.5-0.4-0.8-1-1.3-1.3c-1.1-0.7-1.7-1.7-1.7-2.9c0.1-1.2,0.4-2.3,0.7-3.5
					c0.1-0.2,0.3-0.4,0.4-0.7c0.3-2.1,2-2.6,3.6-3.2c1.6-0.6,3,0,4.5,0.8c2.5,1.2,4.2,3.2,5.6,5.5c0.7,1.2,0.9,2.4,0.2,3.7
					c-0.9,1.6-1.9,3.2-3.6,3.9C231.5,74.1,230.8,74.2,230.1,74.4z M226.4,69.5c0.4-0.2,1-0.3,1.5-0.6c1.8-1.2,2.5-3.5,1.9-5.6
					c-0.7-2.2-3-3-4.9-1.5c-0.6,0.5-1.1,1-1.6,1.5c-1,1.1-1.4,3.1-0.7,4.2C223.4,69,224.8,69.3,226.4,69.5z"/>
				<path class="st1" d="M223.6,83.9c1.1,0.1,2.8,0.3,4.5,0.4c0.7,0.1,1,0.4,1,1.1c-0.1,0.8-0.2,1.6-0.3,2.3
					c-0.8,3.6-1.1,7.3-1.2,11c0,4.2-0.1,8.4,0,12.7c0.1,2.2,0.4,4.4,1.9,6.3c1.9,2.5,4.2,4.1,7.4,4.4c1.6,0.1,1.8,0.4,1.5,2
					c-0.3,2.3-0.7,4.6-1,7c-0.1,0.5-0.2,0.9-0.4,1.4c-0.9,2.1-2.4,2.9-4.6,2.3c-4.1-1.1-7.3-3.6-9.4-7.2c-1.4-2.3-2.2-4.9-2.9-7.5
					c-1-3.6-0.9-7.4-1.1-11c-0.4-5-0.4-10.1-0.4-15.2c0-2.7,0.6-5.3,1.4-7.8C220.3,84.6,221.4,83.9,223.6,83.9z"/>
				<path class="st1" d="M226.4,69.5c-1.6-0.2-3-0.5-3.9-2c-0.6-1.1-0.3-3.2,0.7-4.2c0.5-0.5,1-1,1.6-1.5c1.8-1.5,4.2-0.7,4.9,1.5
					c0.6,2-0.1,4.3-1.9,5.6C227.4,69.2,226.8,69.3,226.4,69.5z"/>
			</g>
			<g>
				<path d="M186,99c0.1-1,0.2-1.8,0.2-2.6c0-1.8,1.1-2.9,3-2.5c2.9,0.5,5.3,1.9,7.4,3.9c0.1,0.1,0.2,0.3,0.3,0.4
					c2.5,1.6,2.9,4.2,3.3,6.8c0.4,2.3,0.7,4.6,1.4,6.9c0.4,1.5,0.5,3.1,0.8,4.6c0.5,2,1.1,4,1.7,6c0.4,1.2,1,2.3,1.3,3.5
					c0.8,2.5,2.4,4.2,4.6,5.5c2,1.2,3.5,2.9,4.8,4.8c1.1,1.7,0.8,3.3-0.6,4.7c-0.6,0.6-1.2,1.2-1.9,1.7c-3.2,2.6-6.6,2.8-10.2,0.9
					c-0.2-0.1-0.4-0.1-0.7-0.2c-0.9,2.1-2.3,3.7-3.7,5.3c-0.2,0.2-0.4,0.5-0.6,0.7c-1.8,1.5-3.6,3.1-5.5,4.4
					c-3.6,2.5-7.6,3.6-12,3.2c-2.4-0.2-4.7-0.5-6.9-1.4c-0.3-0.1-0.7-0.2-1-0.5c-2.8-2-5.9-3.7-8.3-6.4c-0.6-0.7-1.3-1.2-2.1-1.7
					c-1.4-0.8-2.3-2.1-2.7-3.5c-0.8-2.7-1.7-5.4-2.1-8.2c-0.5-3-0.4-6.1-0.7-9.2c-0.4-3.9,1-7.5,2.3-11.1c1-2.8,2.2-5.5,3.9-8
					c2-2.8,4.3-5.1,7.6-6.3c3-1.1,6.1-2.3,9.4-2.3c1.3,0,2.7,0.1,4,0.2C184.1,98.6,184.9,98.8,186,99z M158,126.1
					c0.4,4.4,0.2,8.9,1.7,13.1c0.9,2.7,2.2,5.3,4.7,7c4,2.9,8.4,4,13.2,4c4.4-0.1,8.1-1.8,11.4-4.6c0.7-0.6,1.5-1.3,2.1-2.1
					c1.5-1.7,2.2-3.9,2.9-6c0.1-0.4,0.3-0.9,0.5-1.3c0.6-1,1.2-1.1,1.9-0.2c1.5,2,3.6,2.9,5.9,3.5c1.3,0.3,2.4,0.1,3.4-0.9
					c1.4-1.3,2.1-3,2.7-4.7c0.3-0.8,0.1-1.4-0.5-2c-0.8-0.7-1.6-1.5-2.4-2.3c-0.7-0.7-1.4-1.1-2.4-1.1c-2.5-0.1-4.6-1.8-5.2-4.2
					c-0.3-1.2-0.6-2.4-0.9-3.6c-1.3-4.3-3.1-8.4-3.9-12.9c-0.6-3.5-1.5-6.9-2.1-10.4c-0.2-1.5-0.7-1.7-2.2-1.9
					c-0.7-0.1-1.1,0.3-1.1,1c0,0.7,0,1.4,0,2c0,1.5-0.4,1.9-2,1.8c-0.4,0-0.8-0.1-1.2-0.2c-1-0.2-1.9-0.4-2.9-0.4
					c-3.6-0.3-7,0.7-10.4,2c-1.9,0.8-3.5,1.9-5,3.4c-1.2,1.3-2.4,2.6-3.1,4.2c-0.5,1-1.1,2-1.5,3.1c-0.9,2.2-1.7,4.4-2.5,6.6
					C158.1,121.4,158.1,123.8,158,126.1z"/>
				<path class="st1" d="M158,126.1c0.1-2.4,0.2-4.7,1-6.9s1.6-4.4,2.5-6.6c0.4-1.1,1-2,1.5-3.1c0.8-1.6,1.9-2.9,3.1-4.2
					c1.4-1.5,3-2.6,5-3.4c3.3-1.3,6.7-2.3,10.4-2c1,0.1,2,0.3,2.9,0.4c0.4,0.1,0.8,0.2,1.2,0.2c1.6,0.1,2-0.3,2-1.8c0-0.7,0-1.4,0-2
					c0-0.7,0.5-1.1,1.1-1c1.4,0.2,1.9,0.4,2.2,1.9c0.6,3.5,1.5,6.9,2.1,10.4c0.7,4.5,2.6,8.6,3.9,12.9c0.4,1.2,0.6,2.4,0.9,3.6
					c0.7,2.4,2.8,4.1,5.2,4.2c1.1,0,1.8,0.4,2.4,1.1c0.8,0.8,1.6,1.5,2.4,2.3c0.6,0.6,0.8,1.2,0.5,2c-0.6,1.7-1.2,3.4-2.7,4.7
					c-1.1,1-2.2,1.2-3.4,0.9c-2.3-0.6-4.4-1.6-5.9-3.5c-0.7-0.9-1.3-0.8-1.9,0.2c-0.2,0.4-0.3,0.9-0.5,1.3c-0.7,2.1-1.4,4.3-2.9,6
					c-0.7,0.7-1.4,1.4-2.1,2.1c-3.3,2.8-7,4.5-11.4,4.6c-4.8,0.1-9.3-1.1-13.2-4c-2.5-1.8-3.8-4.3-4.7-7
					C158.2,135,158.4,130.5,158,126.1z M164.5,127.6c0.2,1.7,0.3,3.3,0.7,4.9c0.5,2.2,1.6,4.1,3.5,5.5c1.8,1.2,3.9,1.1,5.7,1.9
					c0.2,0.1,0.4-0.1,0.6-0.1c0.6-0.1,1.2-0.3,1.8-0.3c2.5-0.1,4.9-0.5,7.1-1.6c2.8-1.4,4.8-3.8,6.4-6.4c0.6-0.9,0.7-2.1,1-3.3
					c0.1-0.4-0.1-0.9-0.3-1.3c-1.1-2.3-2-4.6-2.4-7.1c-0.3-2-0.6-4-0.9-6c-0.3-1.9-0.6-3.8-0.3-5.7c0.2-1.3-0.2-1.9-1.5-2.3
					c-0.8-0.3-1.8-0.5-2.6-0.3c-2.1,0.3-4.1,0.7-6.1,1.2c-1.1,0.3-2.3,0.8-3.2,1.5c-1.6,1.2-3.1,2.6-4.5,4.1c-1.2,1.2-2.3,2.4-2.9,4
					c-0.3,0.9-0.5,1.9-0.8,2.8C164.7,121.7,164.3,124.6,164.5,127.6z"/>
				<path d="M164.5,127.6c-0.2-3,0.3-5.8,1.3-8.6c0.3-0.9,0.5-1.9,0.8-2.8c0.5-1.6,1.7-2.9,2.9-4c1.4-1.4,2.9-2.9,4.5-4.1
					c0.9-0.7,2.1-1.2,3.2-1.5c2-0.5,4.1-0.9,6.1-1.2c0.8-0.1,1.8,0.1,2.6,0.3c1.3,0.4,1.7,1,1.5,2.3c-0.2,1.9,0,3.8,0.3,5.7
					c0.3,2,0.6,4,0.9,6c0.4,2.5,1.3,4.8,2.4,7.1c0.2,0.4,0.4,0.9,0.3,1.3c-0.2,1.1-0.4,2.3-1,3.3c-1.6,2.7-3.6,5-6.4,6.4
					c-2.2,1.1-4.6,1.5-7.1,1.6c-0.6,0-1.2,0.2-1.8,0.3c-0.2,0-0.4,0.2-0.6,0.1c-1.9-0.8-4-0.7-5.7-1.9c-2-1.4-3-3.3-3.5-5.5
					C164.8,130.9,164.7,129.2,164.5,127.6z M171.5,128.3c-0.1,2.2,0.7,4.8,1.7,7.4c0.4,1,1,2,2.2,2c3.7,0,7.3-0.4,10.1-3.2
					c1-1,2.1-2.1,2.8-3.3c0.9-1.4,1.3-2.8,0.5-4.6c-1.5-3.2-2.3-6.7-2.5-10.3c0-1-0.2-2.1-0.3-3.1c-0.2-1.3-0.8-1.7-2-1.5
					c-0.4,0.1-0.8,0.3-1.2,0.4c-1.1,0.4-2.2,0.8-3.3,1c-2.9,0.6-4.8,2.5-6.2,5C171.7,121.1,171.4,124.3,171.5,128.3z"/>
			</g>
			<g>
				<path d="M67,161.3c1.5-1.2,2.8-2.3,4.1-3.3c3.5-2.7,7.5-4.2,11.8-4.8c1.1-0.2,2.2,0.1,3.3,0.1c1,0,2.1,0,3.1-0.3
					c2.9-0.9,5.7-0.2,8.4,0.9c0.4,0.2,0.9,0.4,1.3,0.4c2.9,0.4,5.6,1.6,8.3,2.8c2.9,1.2,4.4,3.6,6.1,5.9c0.9,1.2,1.7,2.5,2.5,3.8
					c2.2,3.3,3.1,6.9,3.1,10.8c0,2.5,0.2,5.1-0.6,7.6c-0.3,1-0.8,2-1.2,3c-0.9,2.2-1.8,4.4-2.6,6.6c-0.5,1.4-1.3,2.6-2.3,3.7
					c-1.6,1.7-3.1,3.5-4.6,5.3c-0.3,0.4-0.7,0.7-1.1,1c-1.8,1.2-3.6,2.5-5.5,3.6c-2.3,1.3-4.6,2.4-7,3.6c-0.2,0.1-0.4,0.2-0.6,0.2
					c-1.8-0.1-3.6-0.2-5.4-0.4c-1.1-0.1-2.1-0.5-3.2-0.6c-2.2-0.2-3.9-1-5.2-2.9c-3.7-4.9-7.5-9.8-11.3-14.6
					c-2.4-3.1-4.8-6.2-7.2-9.3c-4.1-5.2-8.1-10.4-12.2-15.5c-3.7-4.6-7.6-9-11.3-13.6c-2-2.5-3.8-5.1-5.8-7.6c-1.6-2-3.3-3.9-5-5.8
					c-0.4-0.5-0.8-0.9-1.2-1.4c-0.7-0.9-1.4-1.8-2.2-2.7c-0.6-0.8-1.1-1.2-0.5-1.9c1.3-1.5,2.4-3.2,3.7-4.6c1.2-1.2,2.6-2.1,3.9-3.1
					c0.2-0.2,0.6-0.2,0.9-0.1c1.8,0.1,3.6,0.4,5.4,0.5c2.2,0.1,3.9,0.9,5.3,2.6c1.7,2.1,3.4,4.2,5.1,6.3c1.4,1.7,2.8,3.4,4.1,5.1
					c1.5,1.8,2.9,3.6,4.3,5.6c2.3,3.2,4.8,6.1,7.5,9C64.6,158.3,65.7,159.8,67,161.3z M81.9,208.4c1.8,0,3.4-0.2,4.9-0.9
					c2-0.9,3.9-1.8,5.4-3.3c0.7-0.7,1.6-1.2,2.3-1.9c1.7-1.6,3.6-3.1,5-4.9c2.1-2.7,3.8-5.6,5.7-8.4c1.2-1.8,1.9-3.7,2.3-5.8
					c0.6-2.8,0.2-5.5,0.1-8.3c-0.1-1.3-0.4-2.7-0.9-3.9c-2.3-4.9-5.1-9.4-9.3-13c-1.2-1-2.5-1.8-4.1-2.1c-2.3-0.4-4.6-0.6-7-1
					c-2.1-0.4-4.2,0-6.2,0.4c-3.1,0.6-5.7,2.2-8.3,3.9c-2.5,1.7-4.2,4-5.4,6.8c-0.2,0.6-0.3,1.3-0.2,2c0,0.9,0.2,1.8,0.2,2.6
					c0,0.4-0.3,0.8-0.4,1.3c-0.4-0.2-0.9-0.3-1.2-0.5c-0.4-0.3-0.7-0.8-1-1.2c-2.1-2.6-4-5.3-6.2-7.9c-2.6-3.2-5.4-6.2-8-9.4
					c-3.2-4-6.2-8.1-9.3-12.2c-2.6-3.3-5.3-6.6-8-9.9c-0.7-0.8-1-1-1.9-0.5c-1.3,0.7-2.6,1.5-3.4,2.9c-0.4,0.9-1,1.8-1.6,2.5
					c-0.5,0.6-0.6,1.2-0.1,1.8c0.7,0.9,1.3,1.8,2,2.6c1.2,1.4,2.6,2.7,3.8,4.2c2.6,3.3,5.2,6.7,7.8,10c0.8,1.1,1.7,2.1,2.6,3.1
					c2.1,2.5,4.1,5,6.2,7.5c1.6,2,3.3,3.9,4.9,5.9c1.4,1.8,2.6,3.6,4,5.4c2.3,2.9,4.6,5.7,6.9,8.5c2.3,2.9,4.6,5.8,6.9,8.7
					c1,1.2,2,2.4,2.9,3.7C76.1,200.8,79,204.6,81.9,208.4z"/>
				<path class="st1" d="M81.9,208.4c-2.9-3.7-5.8-7.5-8.7-11.3c-1-1.2-2-2.4-2.9-3.7c-2.3-2.9-4.6-5.8-6.9-8.7
					c-2.3-2.8-4.6-5.6-6.9-8.5c-1.4-1.8-2.6-3.6-4-5.4c-1.6-2-3.3-3.9-4.9-5.9c-2.1-2.5-4.1-5-6.2-7.5c-0.9-1-1.7-2.1-2.6-3.1
					c-2.6-3.3-5.1-6.7-7.8-10c-1.2-1.5-2.5-2.8-3.8-4.2c-0.7-0.8-1.4-1.7-2-2.6c-0.5-0.6-0.4-1.2,0.1-1.8c0.6-0.8,1.1-1.6,1.7-2.5
					c0.8-1.4,2.1-2.2,3.4-2.9c0.9-0.5,1.2-0.4,1.9,0.5c2.7,3.3,5.4,6.5,8,9.9c3.1,4,6.1,8.2,9.3,12.2c2.6,3.2,5.4,6.2,8,9.4
					c2.1,2.6,4.1,5.3,6.2,7.9c0.3,0.4,0.6,0.9,1,1.2c0.3,0.3,0.8,0.4,1.2,0.5c0.1-0.4,0.4-0.8,0.4-1.3c0-0.9-0.2-1.8-0.2-2.6
					c0-0.7,0-1.4,0.2-2c1.1-2.7,2.9-5,5.4-6.8c2.6-1.8,5.2-3.3,8.3-3.9c2-0.4,4.1-0.8,6.2-0.4c2.3,0.4,4.6,0.7,7,1
					c1.6,0.3,2.9,1,4.1,2.1c4.2,3.6,7,8.1,9.3,13c0.6,1.2,0.8,2.6,0.9,3.9c0.2,2.7,0.5,5.5-0.1,8.3c-0.4,2.1-1.1,4-2.3,5.8
					c-1.9,2.8-3.6,5.8-5.7,8.4c-1.4,1.8-3.3,3.3-5,4.9c-0.7,0.7-1.6,1.2-2.3,1.9c-1.6,1.5-3.5,2.4-5.4,3.3
					C85.3,208.2,83.7,208.4,81.9,208.4z M100.2,178.4c0.3-2.4-0.1-4.9-1.4-7.1c-1.1-1.9-2.4-3.8-4.2-5.2c-2-1.5-4.2-2.7-6.4-4
					c-0.4-0.3-1-0.5-1.5-0.5c-2.2-0.1-4.3,0.1-6.3,0.8c-1.8,0.7-3.5,1.6-5.1,2.7c-1.2,0.8-2.3,2-2.9,3.2c-1.2,2.2-1.9,4.6-2.2,7.1
					c-0.2,1.7,0.6,3.1,0.7,4.7c0,0.1,0.1,0.2,0.2,0.3c1.7,2.4,3.2,5,5.1,7.3c2.8,3.6,5.8,7,8.7,10.5c1.1,1.3,1.5,1.4,3.1,0.7
					c3-1.4,5.3-3.8,7.4-6.1C99,188.8,100.9,184,100.2,178.4z"/>
				<path d="M100.2,178.4c0.7,5.7-1.2,10.5-4.9,14.5c-2.1,2.4-4.5,4.7-7.4,6.1c-1.6,0.8-2,0.7-3.1-0.7c-2.9-3.5-5.9-6.9-8.7-10.5
					c-1.8-2.3-3.4-4.9-5.1-7.3c-0.1-0.1-0.2-0.2-0.2-0.3c-0.1-1.6-0.9-3.1-0.7-4.7c0.4-2.5,1.1-4.9,2.2-7.1c0.7-1.2,1.8-2.4,2.9-3.2
					c1.6-1.1,3.3-2,5.1-2.7c2-0.8,4.2-1,6.3-0.8c0.5,0,1,0.2,1.5,0.5c2.1,1.3,4.4,2.5,6.4,4c1.8,1.3,3.1,3.2,4.2,5.2
					C100.1,173.5,100.5,175.9,100.2,178.4z M91.2,194.1c0.5-0.3,0.9-0.4,1.2-0.7c3.2-2.5,4.8-5.9,6.1-9.6c0.1-0.3,0.1-0.6,0.1-0.9
					c0-2,0-4,0.1-5.9c0.1-1.8-0.4-3.4-1.4-4.9c-0.9-1.3-1.9-2.6-3-3.8c-1.6-1.7-3.7-2.7-6.1-2.8c-1.5-0.1-2.6,0.5-3.7,1.4
					c-1.2,1-2.4,1.9-3.6,3c-0.6,0.6-1.4,1.3-1.6,2c-0.4,1.7-0.7,3.5,0.1,5.2c0.9,1.8,1.8,3.6,3,5.3c2,2.9,4.1,5.7,6.1,8.5
					C89.3,191.9,90.2,192.9,91.2,194.1z"/>
			</g>
			<g>
				<path d="M213,408.2c-0.4-4.3,0.2-8.4,1.5-12.4c0.7-2.4,1.4-4.8,2.4-7.1c1.3-3.1,3-6,5.6-8.2c2.2-1.9,4.6-3.6,7.2-4.8
					c0.9-0.4,2-0.5,3-0.6c2.9-0.4,5.8-0.9,8.7-0.5c2.2,0.2,4.1,1.1,6.1,2c3,1.4,5.3,3.6,7.7,5.8c1.6,1.5,2.6,3.4,3.6,5.3
					c1.7,3.6,3,7.3,3.3,11.3c0.2,3.7,0.1,7.4-0.6,11.1c-0.7,3.5-1.3,7-2.6,10.3c-1.3,3.2-2.2,6.6-4.2,9.6c-1.3,2-3.2,3.2-5.1,4.3
					c-2,1.2-3.9,2.5-6.3,3c-3.3,0.7-6.7,1-10.1,0.7c-1.2-0.1-2.5-0.5-3.6-1c-4-1.9-7.3-4.7-10-8.3c-0.8-1.1-1.8-2.1-2.5-3.2
					c-0.8-1.2-1.5-2.4-1.9-3.7C213.9,417.3,212.6,412.8,213,408.2z M254.7,398.5c-0.1-1.7-0.2-3.4-0.4-5.2c-0.3-3.1-0.6-6.2-2.1-9.1
					c-1.8-3.5-3.9-6.4-7.9-7.5c-0.5-0.1-1-0.4-1.5-0.5c-0.6-0.2-1.2-0.3-1.8-0.3c-1.4,0-2.7-0.1-4.1,0.1c-3.1,0.3-6.4,0.3-8.9,2.8
					c-0.1,0.1-0.2,0.1-0.3,0.1c-3.3,1.3-5.6,3.8-7.4,6.7c-1.8,2.8-2.8,6-3.9,9c-1.5,4.1-2,8.4-2,12.8c-0.1,4.3,0.7,8.5,1.8,12.6
					c1.2,4.2,4.1,7.3,7.6,9.8c1.5,1.1,3.3,1.6,5.2,1.6c3.1,0,6.2-0.5,9.1-1.5c1.6-0.6,3.2-1.2,4.4-2.2c3-2.5,5.6-5.2,7.4-8.7
					C253.3,412.5,255,405.8,254.7,398.5z"/>
				<path class="st1" d="M254.7,398.5c0.3,7.3-1.3,14-4.7,20.5c-1.8,3.6-4.5,6.3-7.4,8.7c-1.2,1-2.9,1.7-4.4,2.2
					c-2.9,1.1-6,1.5-9.1,1.5c-1.9,0-3.6-0.6-5.2-1.6c-3.6-2.5-6.4-5.6-7.6-9.8c-1.2-4.1-1.9-8.3-1.8-12.6c0.1-4.4,0.6-8.7,2-12.8
					c1.1-3.1,2.1-6.2,3.9-9c1.8-2.9,4.1-5.4,7.4-6.7c0.1,0,0.2-0.1,0.3-0.1c2.5-2.5,5.8-2.5,8.9-2.8c1.3-0.1,2.7-0.1,4.1-0.1
					c0.6,0,1.2,0.2,1.8,0.3c0.5,0.1,1,0.4,1.5,0.5c4,1.1,6.2,4,7.9,7.5c1.5,2.9,1.8,6,2.1,9.1C254.5,395.1,254.5,396.8,254.7,398.5z
					 M246.7,398.1c0.1-4.2-0.7-7.3-1.9-10.3c-0.4-1-1.1-2-1.9-2.6c-2.2-1.9-4.9-2.4-7.8-2.2c-1.5,0.1-3,0.5-4.1,1.5
					c-1.4,1.2-2.7,2.6-3.7,4.2c-2.3,3.7-3.9,7.8-4.9,12.1c-1.2,5.2-1.1,10.5-0.4,15.7c0.4,2.6,1.9,4.7,4.2,6.1
					c2.7,1.5,5.4,1.1,8.2,0.4c2.9-0.7,4.7-2.7,6.3-5c1.9-2.7,3-5.7,3.9-8.8C245.9,405.2,246.8,401.3,246.7,398.1z"/>
				<path d="M246.7,398.1c0,3.2-0.8,7.1-1.9,11c-0.8,3.2-2,6.1-3.9,8.8c-1.6,2.3-3.5,4.3-6.3,5s-5.5,1.1-8.2-0.4
					c-2.4-1.3-3.9-3.4-4.2-6.1c-0.7-5.2-0.8-10.5,0.4-15.7c1-4.3,2.6-8.4,4.9-12.1c1-1.6,2.3-2.9,3.7-4.2c1.1-1,2.6-1.4,4.1-1.5
					c2.9-0.2,5.5,0.3,7.8,2.2c0.8,0.7,1.5,1.7,1.9,2.6C246,390.8,246.8,393.9,246.7,398.1z M245.1,397.4c0.2-2.7-0.6-5.9-1.8-9.1
					c-0.2-0.5-0.6-1.2-1.1-1.4c-2-0.9-4.2-0.4-5.7,1.3c-1.8,2.2-3.3,4.6-4.3,7.2c-2.2,5.4-3.3,11-3.6,16.7c-0.1,2.6-0.2,5.1,0.6,7.6
					c0.5,1.5,1,2.2,2.3,2.1c2.7-0.2,5.1-0.8,6.9-3c1.5-1.8,2.7-3.7,3.5-5.9C243.7,408.2,245,403.3,245.1,397.4z"/>
			</g>
			<g>
				<path class="st2" d="M352.2,322.8c-1.9,0-3.3-1.4-3.3-3.3c0-2,1.5-3.3,3.3-3.3c1.7,0,3.2,1.3,3.2,3.3S353.9,322.8,352.2,322.8z
					 M352.2,316.8c-1.4,0-2.5,1.1-2.5,2.7c0,1.5,1,2.7,2.5,2.7c1.4,0,2.5-1.1,2.5-2.7S353.6,316.8,352.2,316.8z M351.5,321.4h-0.6
					v-3.7h1.4c0.9,0,1.3,0.3,1.3,1.1c0,0.7-0.4,0.9-1,1l1,1.6H353l-0.9-1.6h-0.6V321.4z M352.2,319.3c0.5,0,0.8,0,0.8-0.6
					c0-0.4-0.4-0.5-0.8-0.5h-0.7v1.1H352.2z"/>
			</g>
			<g>
				<path d="M280.2,304.1c4.1,2.7,4.8,4.8,3.4,9.6c0,0.1,0.1,0.2,0.1,0.3c2.4,2.1,2,4.7,1.1,7.3c-0.4,1.1-1.2,2-2.4,2.4
					c-2.8,0.9-5.5,1.9-8.3,2.6c-1.6,0.4-2.7,1.2-2.9,2.9c-0.1,0.9-0.7,1.3-1.5,1.4c-1.7,0.2-3.4,0.6-5.2,0.8c-1.1,0.2-2.1-0.1-2.8-1
					c-0.9-1.1-1.9-1.4-3.3-1c-1.8,0.5-3.7,0.8-5.6,0.9c-1.4,0.1-2.9-0.2-4.1-0.7c-1.6-0.7-2.7-2.1-2.8-4c-0.1-1.3,0-2.6,0-4
					c-1.7-0.7-2.5-2.1-3.3-3.6c-0.9-1.7,0.1-3.2,0.7-4.7c-0.2-0.2-0.3-0.3-0.5-0.3c-2.6-1.1-3.8-3.6-2.9-6.2c0.4-1.1,1-2,1.7-3
					c0.6-0.8,1.4-1.5,2-2.3c0.2-0.3,0.3-0.8,0.2-1.2c-0.7-2.6-1.9-5.1-3.7-7c-1.9-2.1-3.9-4.2-6.2-5.9c-2.6-1.9-5.2-3.6-7.9-5.3
					c-5.5-3.4-10.9-7-15.2-11.9c-2.7-3.1-5.6-5.8-8-9.1c-1.8-2.6-3.3-5.3-4.5-8.2c-0.7-1.6-1.5-3.2-2-4.9c-0.8-2.6-1.4-5.2-1.4-7.9
					c-0.1-2.9-0.2-5.9-0.1-8.8c0.1-3.5,1.1-6.9,2.1-10.3c0.9-3.1,1.9-6.2,3.1-9.2c1.5-3.7,3.2-7.2,5.8-10.2c1.5-1.7,3.1-3.2,4.6-4.9
					c2.5-2.6,5.2-4.9,8.5-6.4c3.9-1.7,7.6-4.1,11.8-5.2c0.2-0.1,0.4-0.2,0.6-0.2c2.1-0.3,4.2-0.6,6.3-0.9c1.1-0.1,2.2-0.3,3.2-0.4
					c3.3-0.5,6.6,0.1,9.8,0.9c4.1,0.9,8.1,2.2,11.9,4.2c0.6,0.3,1.1,0.7,1.6,1.1c1.8,1.4,3.7,2.8,5.5,4.1c3.3,2.4,6.3,5.1,8.9,8.2
					c1.7,2,3.4,3.9,4.6,6.1c2.7,4.9,4.3,10,4.5,15.6c0.1,2.6,0.5,5.2,0.7,7.8c0.1,0.8,0.1,1.6,0,2.5c-0.3,3.9-0.9,7.8-2.3,11.5
					c-1.1,2.8-1.9,5.7-3.2,8.4c-1.2,2.6-2.1,5.3-3.9,7.5c-0.8,1.1-1.3,2.4-1.9,3.6c-1.3,2.5-2.7,5-4.1,7.5s-1.6,5.3-1.7,8.1
					c-0.1,2.6,0.4,5.1,1.3,7.6c0.5,1.5,0.8,3.2,1.1,4.8c0.2,0.8,0.5,1.4,1.4,1.5c2,0.2,3.5,1.1,4.5,2.9c1,1.9,1,3.9,0.6,5.9
					C280.3,303.8,280.3,304,280.2,304.1z M251.3,300.1c-0.2-0.8-0.3-1.5-0.5-2.1c-0.7-2.8-1.4-5.6-2.2-8.4c-0.8-2.5-1.9-4.9-2.6-7.4
					c-1.1-3.7-2.3-7.4-4.2-10.8c-2.2-4.1-4.1-8.4-6.3-12.4c-1.8-3.4-3.9-6.6-5.8-9.9c-1.8-3.1-3.9-5.9-6.3-8.6c-2-2.2-4-4.3-6-6.5
					c-0.2-0.2-0.4-0.4-0.5-0.6c-0.4-0.6-0.3-1.7,0.2-2.2c0.6-0.6,1.3-0.4,2,0c1.4,0.8,2.2,2,2.6,3.5c0.4,1.8,1.5,2.5,3.3,2.1
					c2.2-0.5,3.5-1.9,3.9-3.8c-1-1.5-2-2.7-2.7-4.1c-0.5-1-0.6-2.2-0.8-3.3c-0.1-0.7,0.3-1.2,0.9-1.6c0.7-0.3,1.2,0,1.5,0.6
					c0.5,0.8,1.1,1.6,1.5,2.5c0.5,1.2,0.7,2.4,1,3.6c0.2,0.8,0.6,1.2,1.4,1.4c2.4,0.6,4.3-0.3,6-1.8c0.6-0.6,0.7-1.1,0.2-1.9
					c-0.7-1-1.3-2.1-1.7-3.2c-0.7-1.6-1-3.3-0.3-4.9c0.4-1,1.1-1.7,2.2-1.8c1-0.1,1.8,0.5,2.2,1.4c0.3,0.6,0.5,1.2,0.7,1.8
					c0.5,1.9,0.4,3.8-0.1,5.7c-0.3,1.3-0.1,1.6,1.1,2.1c1.2,0.5,2.4,0.3,3.6,0c1.8-0.5,3.6-1,4.4-3.1c-1.3-1.5-1.8-3.4-1.9-5.3
					c-0.1-1.2,0.3-2.5,0.5-3.7c0.2-0.7,0.8-1.2,1.5-1.3c0.8-0.1,1.3,0.4,1.7,1c0.7,1.2,1.3,2.4,1.1,3.9c-0.2,1.6-0.4,3.2-0.6,4.8
					c1.4,0.9,3.6,1.4,5.2,1.2c1.5-0.2,2.9-0.5,3.3-2.3c0.1-0.4,0.3-0.7,0.5-1c0.3-0.3,0.7-0.7,1.2-0.8c0.9-0.3,1.5,0.1,1.5,1.1
					s-0.4,1.7-1.1,2.3c-1,0.8-1.5,1.8-1.5,3.1c0,0.3-0.2,0.6-0.2,1c-0.5,3.2-1.3,6.4-1.2,9.7c0.1,3.6,0,7.1,0,10.7
					c0,3.7,0,7.4,0.1,11.1c0,2.2,0.2,4.4,0.4,6.5c0.3,3.1,0.5,6.2,1,9.3c0.8,4.6,1.9,9.2,3,13.8c0.4,1.6,0.4,3.4,1.5,4.8
					c0.3,0,0.6,0,0.8-0.1c0.8-0.2,1.6-0.3,2.4-0.5c1.6-0.4,1.9-0.8,1.4-2.5c-0.6-2.3-1.3-4.6-2-6.9c-1-3.3-1.4-6.7-0.3-10
					c0.8-2.4,1.8-4.7,2.7-7c0.3-0.7,0.7-1.4,1-2.1c0.9-2.5,2.3-4.6,3.9-6.6c0.4-0.6,0.8-1.2,1.1-1.8c1.5-3.2,2.8-6.4,4.4-9.5
					c1.5-3.1,2.6-6.4,3.2-9.8c0.7-4.1,0.6-8.3,0.3-12.4c-0.1-0.9-0.1-1.8-0.3-2.6c-0.6-2.7-1.2-5.3-1.8-8c-0.8-3.2-2.1-6.2-4.3-8.8
					c-2.8-3.2-5.7-6.3-8.6-9.4c-0.5-0.5-1-1-1.6-1.4c-2.3-1.6-4.7-3.2-7.1-4.7s-4.8-2.9-7.6-3.4c-1.9-0.4-3.8-0.7-5.7-0.9
					c-1.2-0.2-2.5-0.5-3.7-0.4c-3.3,0.2-6.7,0.5-10,1c-1.7,0.3-3.4,0.9-5,1.6c-2.5,1.1-5,2.5-7.4,3.8c-1.6,0.8-3,1.8-4.2,3.1
					c-1.7,2-3.9,3.5-5.8,5.3c-1.6,1.4-3.3,2.6-3.8,4.8c-0.1,0.3-0.4,0.5-0.5,0.8c-1.4,2.1-2.7,4.3-3.4,6.8c-0.4,1.6-1.3,3-1.9,4.5
					c-0.9,2.6-1.9,5.1-2.5,7.8c-0.5,2.3-0.6,4.8-0.7,7.2c0,2.8,0.1,5.6,0.4,8.3c0.4,4.5,1.7,8.7,4.1,12.5c1.8,2.9,3.8,5.6,5.9,8.2
					c1.8,2.2,3.8,4.1,5.8,6c1.3,1.2,2.6,2.3,4,3.4c1.3,1,2.8,1.9,4.1,2.9c3.5,2.4,7,4.8,10.6,7.2c2.8,1.9,5.7,3.7,7.9,6.3
					c1.3,1.6,2.7,3.2,3.6,5c1.2,2.3,1.9,4.7,2.8,7.2C249,300.8,250.1,300.5,251.3,300.1z M252.7,299.4c0.4,0.1,0.6,0.1,0.7,0.1
					c3.1-0.8,6.2-1.6,9.3-2.4c0.8-0.2,1-0.8,0.8-1.5c-0.7-2.9-1.6-5.8-2.1-8.7c-1.2-6.1-2.8-12-2.9-18.3c0-3.3-0.5-6.7-0.6-10
					c-0.1-4.7,0-9.4,0.1-14.1c0.1-4.9,0-9.9,1.2-14.7c0.1-0.4,0.1-0.8,0.1-1.5c-3,0.7-5.7,0.1-8.3-0.8c-3.3,3.8-7.1,4.7-11.6,2.8
					c-2.5,2.7-5.4,4.3-9.3,3.1c-1,3.1-3.3,4.6-6.2,5.3c1.9,2.5,4,4.8,5.6,7.3c2.3,3.6,4.4,7.3,6.5,11c1.8,3.3,3.4,6.7,5.1,10.1
					c2.2,4.4,4.4,8.8,5.7,13.5c0.5,1.7,1.3,3.4,1.9,5.1c0.1,0.4,0.3,0.7,0.4,1.1c0.7,2.5,1.4,4.9,2.1,7.4
					C251.9,295.9,252.3,297.6,252.7,299.4z M277.1,301c-0.1-1.3-0.4-2.1-1.3-2.4c-1.1-0.4-2.4-0.5-3.4-1c-1.1-0.5-2.1-0.4-3.2-0.2
					c-3.4,0.8-6.8,1.6-10.2,2.5c-3.9,1.1-7.9,2.3-11.8,3.4c-2.1,0.6-3.1,2.2-3.7,4c-0.4,1.2-0.2,1.6,1,2.2c0.6,0.3,1.4,0.5,1.9,0.9
					c0.7,0.6,1.4,0.6,2.1,0.5c2-0.4,4-0.8,5.9-1.3c6.6-1.5,13.1-3.3,19.6-5.2c0.9-0.3,1.5-0.6,1.9-1.4
					C276.4,302.2,276.9,301.5,277.1,301z M250.7,319.3c0.6,0,0.9,0,1.1-0.1c5.1-1,10.2-2.1,15.2-3.1c3.3-0.6,6.5-1.3,9.8-1.7
					c1.6-0.2,2.5-0.9,3-2.2c0.2-0.5,0.4-1,0.5-1.5c0.5-1.8,0.1-2.6-1.7-3.2c-0.9-0.3-1.8-0.6-2.6-0.8c-0.5-0.1-1-0.1-1.4,0
					c-2.2,0.5-4.5,0.9-6.7,1.5c-6.3,1.5-12.5,3.1-18.8,4.7c-1.3,0.3-2.1,0.9-2.7,2.1c-0.7,1.4-0.6,1.7,0.7,2.5
					c0.7,0.4,1.4,0.8,2.1,1.2C249.8,318.8,250.4,319.1,250.7,319.3z M249.2,324.1c0.1,2.7,1,3.4,3.6,2.9c0.1,0,0.2,0,0.3-0.1
					c2-0.4,3.9-0.9,5.9-1.2c2.1-0.4,3.9-0.2,5.3,1.9c1,1.6,1.2,1.4,3,0.9c1.1-0.3,1.6-1,1.7-2.1c0-0.6,0-1.2,0-1.8
					c0-0.7,0.2-1.2,0.9-1.4c1.6-0.4,3.3-0.7,4.9-1.2c1.7-0.4,3.4-0.8,5-1.4c1.2-0.4,1.8-2.1,1.4-3.3c-0.3-1-1.3-1.4-2.7-1.2
					c-2.2,0.4-4.4,0.9-6.6,1.4c-4.7,0.9-9.4,1.8-14.1,2.7c-2.4,0.4-4.8,0.6-7,1.5C249.6,322.3,249.2,322.9,249.2,324.1z M239.1,227
					c0.7-1.7,0.8-4,0.1-5.5c-0.3-0.6-0.3-1.5-1.3-1.5c-0.6,0-1,0.8-0.9,1.9c0.1,1.7,0.6,3.3,1.6,4.8
					C238.7,226.8,238.9,226.9,239.1,227z M250.5,224.2c1.2-2.6,1-4.9-0.6-6.5C249,220,249.2,222.1,250.5,224.2z M227.3,227.4
					c0.1-0.1,0.2-0.1,0.3-0.2c-0.1-0.2-0.3-0.5-0.4-0.7c-0.1,0-0.1,0.1-0.2,0.1C227.1,226.9,227.2,227.1,227.3,227.4z"/>
				<path class="st3" d="M251.3,300.1c-1.2,0.4-2.3,0.7-3.4,1c-1-2.5-1.7-5-2.8-7.2c-0.9-1.8-2.3-3.4-3.6-5
					c-2.2-2.6-5.1-4.4-7.9-6.3c-3.5-2.4-7-4.8-10.6-7.2c-1.4-1-2.8-1.9-4.1-2.9c-1.4-1.1-2.7-2.2-4-3.4c-2-1.9-4.1-3.8-5.8-6
					c-2.1-2.6-4.1-5.4-5.9-8.2c-2.4-3.8-3.7-8-4.1-12.5c-0.2-2.8-0.4-5.6-0.4-8.3c0-2.4,0.2-4.8,0.7-7.2c0.6-2.7,1.6-5.2,2.5-7.8
					c0.5-1.5,1.4-3,1.9-4.5c0.7-2.5,2-4.7,3.4-6.8c0.2-0.3,0.5-0.5,0.5-0.8c0.6-2.2,2.3-3.4,3.8-4.8c2-1.7,4.1-3.2,5.8-5.3
					c1.1-1.4,2.6-2.3,4.2-3.1c2.5-1.3,4.9-2.6,7.4-3.8c1.6-0.7,3.3-1.3,5-1.6c3.3-0.5,6.6-0.8,10-1c1.2-0.1,2.5,0.2,3.7,0.4
					c1.9,0.3,3.8,0.6,5.7,0.9c2.8,0.5,5.2,1.9,7.6,3.4c2.4,1.5,4.7,3.1,7.1,4.7c0.6,0.4,1.1,0.9,1.6,1.4c2.9,3.1,5.9,6.2,8.6,9.4
					c2.2,2.5,3.5,5.5,4.3,8.8c0.6,2.7,1.2,5.3,1.8,8c0.2,0.9,0.2,1.7,0.3,2.6c0.3,4.2,0.4,8.3-0.3,12.4c-0.6,3.4-1.7,6.7-3.2,9.8
					s-2.9,6.4-4.4,9.5c-0.3,0.6-0.6,1.3-1.1,1.8c-1.6,2-3,4.2-3.9,6.6c-0.3,0.7-0.7,1.4-1,2.1c-0.9,2.3-2,4.6-2.7,7
					c-1.1,3.3-0.7,6.7,0.3,10c0.7,2.3,1.4,4.6,2,6.9c0.5,1.6,0.2,2.1-1.4,2.5c-0.8,0.2-1.6,0.3-2.4,0.5c-0.3,0-0.5,0-0.8,0.1
					c-1.1-1.5-1.1-3.2-1.5-4.8c-1.1-4.6-2.2-9.1-3-13.8c-0.6-3.1-0.8-6.2-1-9.3c-0.2-2.2-0.4-4.4-0.4-6.5c-0.1-3.7-0.1-7.4-0.1-11.1
					c0-3.6,0.1-7.1,0-10.7c-0.1-3.3,0.7-6.5,1.2-9.7c0-0.3,0.2-0.6,0.2-1c0.1-1.3,0.5-2.3,1.5-3.1c0.7-0.5,1.2-1.3,1.1-2.3
					c0-1-0.6-1.4-1.5-1.1c-0.4,0.2-0.8,0.5-1.2,0.8c-0.3,0.3-0.5,0.6-0.5,1c-0.4,1.8-1.8,2.1-3.3,2.3c-1.6,0.2-3.8-0.3-5.2-1.2
					c0.2-1.6,0.5-3.2,0.6-4.8c0.1-1.4-0.4-2.7-1.1-3.9c-0.4-0.7-0.9-1.1-1.7-1s-1.4,0.6-1.5,1.3c-0.3,1.2-0.6,2.5-0.5,3.7
					c0.1,1.9,0.6,3.8,1.9,5.3c-0.7,2.1-2.6,2.6-4.4,3.1c-1.1,0.3-2.4,0.5-3.6,0c-1.2-0.5-1.4-0.9-1.1-2.1c0.5-1.9,0.6-3.8,0.1-5.7
					c-0.2-0.6-0.5-1.2-0.7-1.8c-0.4-1-1.2-1.5-2.2-1.4c-1.1,0.1-1.7,0.8-2.2,1.8c-0.7,1.7-0.4,3.4,0.3,4.9c0.5,1.1,1.1,2.2,1.7,3.2
					c0.5,0.8,0.4,1.3-0.2,1.9c-1.7,1.5-3.6,2.5-6,1.8c-0.8-0.2-1.2-0.6-1.4-1.4c-0.3-1.2-0.6-2.5-1-3.6c-0.3-0.9-0.9-1.7-1.5-2.5
					c-0.3-0.5-0.8-0.9-1.5-0.6c-0.7,0.3-1.1,0.8-0.9,1.6c0.2,1.1,0.3,2.3,0.8,3.3c0.7,1.4,1.7,2.7,2.7,4.1c-0.4,2-1.7,3.4-3.9,3.8
					c-1.8,0.4-2.8-0.3-3.3-2.1c-0.4-1.5-1.2-2.7-2.6-3.5c-0.7-0.4-1.3-0.6-2,0c-0.5,0.5-0.6,1.5-0.2,2.2c0.1,0.2,0.3,0.4,0.5,0.6
					c2,2.2,4,4.3,6,6.5c2.4,2.6,4.5,5.5,6.3,8.6c1.9,3.3,4,6.5,5.8,9.9c2.2,4.1,4.1,8.3,6.3,12.4c1.8,3.5,3.1,7.1,4.2,10.8
					c0.7,2.5,1.9,4.9,2.6,7.4c0.9,2.8,1.5,5.6,2.2,8.4C251,298.7,251.1,299.3,251.3,300.1z"/>
				<path class="st3" d="M252.7,299.4c-0.4-1.8-0.8-3.6-1.3-5.3c-0.7-2.5-1.4-4.9-2.1-7.4c-0.1-0.4-0.3-0.7-0.4-1.1
					c-0.6-1.7-1.4-3.3-1.9-5.1c-1.3-4.8-3.5-9.2-5.7-13.5c-1.7-3.4-3.3-6.8-5.1-10.1c-2.1-3.7-4.2-7.4-6.5-11
					c-1.6-2.5-3.6-4.8-5.6-7.3c2.8-0.7,5.1-2.2,6.2-5.3c3.9,1.2,6.8-0.4,9.3-3.1c4.5,1.9,8.3,1,11.6-2.8c2.6,0.9,5.3,1.5,8.3,0.8
					c0,0.6,0,1.1-0.1,1.5c-1.2,4.8-1.1,9.8-1.2,14.7c-0.1,4.7-0.2,9.4-0.1,14.1c0.1,3.3,0.5,6.7,0.6,10c0.1,6.2,1.7,12.2,2.9,18.3
					c0.6,2.9,1.4,5.8,2.1,8.7c0.2,0.8,0,1.3-0.8,1.5c-3.1,0.8-6.2,1.6-9.3,2.4C253.3,299.6,253.2,299.5,252.7,299.4z"/>
				<path class="st0" d="M277.1,301c-0.3,0.5-0.7,1.2-1.1,2c-0.4,0.8-1,1.1-1.9,1.4c-6.5,1.9-13,3.7-19.6,5.2
					c-2,0.4-3.9,0.9-5.9,1.3c-0.8,0.2-1.5,0.1-2.1-0.5c-0.5-0.4-1.2-0.6-1.9-0.9c-1.2-0.5-1.5-0.9-1-2.2c0.6-1.8,1.6-3.4,3.7-4
					c3.9-1.1,7.8-2.3,11.8-3.4c3.4-0.9,6.8-1.7,10.2-2.5c1.1-0.3,2.1-0.3,3.2,0.2c1.1,0.5,2.3,0.6,3.4,1
					C276.7,298.9,277.1,299.7,277.1,301z"/>
				<path class="st0" d="M250.7,319.3c-0.3-0.2-0.9-0.4-1.4-0.7c-0.7-0.4-1.4-0.8-2.1-1.2c-1.3-0.8-1.4-1.1-0.7-2.5
					c0.6-1.2,1.4-1.8,2.7-2.1c6.3-1.5,12.5-3.1,18.8-4.7c2.2-0.5,4.5-1,6.7-1.5c0.5-0.1,1-0.1,1.4,0c0.9,0.2,1.8,0.6,2.6,0.8
					c1.8,0.6,2.3,1.4,1.7,3.2c-0.2,0.5-0.3,1-0.5,1.5c-0.6,1.3-1.4,2-3,2.2c-3.3,0.4-6.6,1.1-9.8,1.7c-5.1,1-10.2,2.1-15.2,3.1
					C251.6,319.3,251.3,319.2,250.7,319.3z"/>
				<path class="st0" d="M249.2,324.1c0-1.3,0.4-1.8,1.6-2.3c2.3-0.9,4.7-1.1,7-1.5c4.7-0.9,9.4-1.8,14.1-2.7
					c2.2-0.4,4.4-0.9,6.6-1.4c1.4-0.3,2.4,0.2,2.7,1.2c0.4,1.2-0.2,2.9-1.4,3.3c-1.6,0.6-3.3,1-5,1.4c-1.6,0.4-3.3,0.7-4.9,1.2
					c-0.7,0.2-0.9,0.7-0.9,1.4c0,0.6,0,1.2,0,1.8c0,1.1-0.5,1.8-1.7,2.1c-1.8,0.6-1.9,0.7-3-0.9c-1.3-2-3.2-2.2-5.3-1.9
					c-2,0.3-4,0.8-5.9,1.2c-0.1,0-0.2,0-0.3,0.1C250.2,327.6,249.2,326.8,249.2,324.1z"/>
				<path class="st3" d="M239.1,227c-0.2-0.2-0.4-0.2-0.5-0.3c-0.9-1.4-1.4-3.1-1.6-4.8c-0.1-1.1,0.3-1.9,0.9-1.9c1,0,1,0.9,1.3,1.5
					C239.9,223,239.8,225.3,239.1,227z"/>
				<path class="st3" d="M250.5,224.2c-1.3-2.1-1.5-4.2-0.6-6.5C251.5,219.3,251.7,221.6,250.5,224.2z"/>
				<path class="st3" d="M227.3,227.4c-0.1-0.3-0.2-0.5-0.3-0.8c0.1,0,0.1-0.1,0.2-0.1c0.1,0.2,0.3,0.5,0.4,0.7
					C227.5,227.3,227.4,227.3,227.3,227.4z"/>
			</g>
			<path class="st3" d="M416.2,224.3c1.5-0.6,2.9-0.1,4.2,0.1c3,0.4,6.1,1,9.1,1.6c1.9,0.4,3.8,1,5.7,1.5c1.9,0.4,3.8,0.7,5.7,1.1
				c2.8,0.6,5.6,1.4,8.4,2c3,0.6,6.1,0.9,9.1,1.6c3.1,0.7,6.3,0.8,9.4,1.7s6.4,1.4,9.6,2.1c1.4,0.3,2.8,0.7,4.2,1.1
				c0.4,0.1,0.7,0.4,1.3,0.7c-1,0.6-1.9,0.4-2.7,0.4c-2,0-4.1,0-6.1-0.1c-3.4-0.1-6.8-0.3-10.2-0.2c-3.9,0.1-7.8,0.3-11.7,0.5
				c-1.4,0.1-2.7,0.2-4.1,0.2c-2.7-0.1-5.4,0.5-8.1,0.8c-0.4,0-0.8,0.2-1.1,0.4c-1,0.7-1,1.8-0.3,3.1c1.5,2.4,3.3,4.4,5.4,6.3
				c0.5,0.5,1,1,1.8,1.8c-0.9,0.1-1.5,0.2-2,0.1c-2.9-0.2-5.8-0.5-8.7-0.7c-4-0.4-8.1-0.8-12.1-1.3c-3.7-0.5-7.3-1-11-1.7
				c-4.5-0.8-9-1.7-13.5-2.6c-1.1-0.2-2.2-0.3-3.3-0.4c-1.2-0.1-2.3-0.4-3.5-1.2c0.7-0.7,1.5-0.9,2.3-1c2.6-0.5,5.1-1,7.7-1.5
				c3.8-0.8,7.5-1.7,11.4-1.7c2.6-0.1,5.3-0.8,7.9-1.2c0.2,0,0.3-0.1,0.5-0.1c1.1-0.4,1.3-0.9,0.8-1.9c-0.8-1.6-1.8-3.1-2.6-4.6
				c-1-1.7-2-3.4-2.9-5.2C416.3,225.4,416.3,224.8,416.2,224.3z"/>
			<path class="st3" d="M370.1,196.3c0.6-0.5,1.2-0.9,1.8-1.4c4.5-3.4,8.9-6.9,13.1-10.7l0.1-0.1c2.4-2.8,5.4-4.9,8.2-7.2
				c0.6-0.5,1.2-1.2,1.7-1.8c0.8-1,0.7-1.4-0.2-2.2c-0.3-0.2-0.6-0.5-0.9-0.7c-2.3-1.5-4.6-2.9-7.2-3.7c-0.3-0.1-0.6-0.2-0.9-0.4
				c-0.1,0-0.1-0.2-0.3-0.4c19-5.4,38.1-10.7,57.5-14.5c-1.2,0.8-2.3,1.6-3.5,2.3c-4.9,2.6-9.6,5.5-14.3,8.5
				c-4.1,2.7-8.3,5.2-12.5,7.8c-0.2,0.1-0.4,0.3-0.6,0.5c-1.2,1.1-0.9,2.5,0.5,3.1c2.8,1.2,5.7,2.3,8.5,3.5c0.7,0.3,1.4,0.6,2.1,0.9
				c0,0.1,0,0.2,0,0.4c-1,0.3-1.9,0.6-2.9,0.8c-4.3,1.1-8.5,2.2-12.8,3.1c-6,1.3-11.8,3.2-17.6,5.2c-4.1,1.4-8,3.1-11.9,4.7
				c-2.5,1-5.2,1.7-7.8,2.6C370.2,196.5,370.1,196.4,370.1,196.3z"/>
			<path class="st3" d="M29.6,236.5c1.6,0.3,3.2,0.5,4.8,0.8c6,1.2,12,2.4,18.1,3.2c4.4,0.6,8.7,1.7,13.1,2.6c0.5,0.1,1,0.5,1.5,0.5
				s1-0.1,1.4-0.4c0.2-0.1,0.1-0.8-0.1-1.1c-0.4-0.6-0.9-1-1.3-1.5c-1.3-1.6-2.6-3.1-3.9-4.7c-0.2-0.2-0.3-0.5-0.5-1.1
				c0.8,0.2,1.4,0.4,1.9,0.6c1.5,0.5,3,1.1,4.4,1.7c4.1,1.8,8.2,3.6,12.3,5.3c1.8,0.8,3.6,1.4,5.4,2.1c3.1,1.1,6.2,2.3,9.3,3.4
				c0.4,0.1,0.7,0.3,1.4,0.6c-0.5,0.1-0.7,0.2-0.9,0.3c-3.6,0.2-7.2,0-10.8-0.5c-2.4-0.4-4.9-0.5-7.3-0.6c-1.1-0.1-1.6,0.4-1.6,1.5
				c0,0.4,0,0.9,0.1,1.3c0.7,3.6,1.5,7.2,2.3,10.8c0.2,0.7,0.6,1.5,0.1,2.4c-0.4-0.1-0.9-0.2-1.3-0.4c-2.5-1.1-5.1-2.3-7.6-3.5
				c-4.3-2.1-8.6-4.1-12.9-6.3c-2.7-1.4-5.2-3-7.8-4.5c-3-1.8-6.1-3.5-9.1-5.3c-3.3-1.9-6.5-3.8-9.8-5.8c-0.4-0.2-0.7-0.6-1.1-0.8
				C29.5,236.8,29.5,236.7,29.6,236.5z"/>
			<path class="st3" d="M45.6,333.3c0.4-0.4,0.7-0.9,1.1-1.3c2.6-2.8,5.1-5.5,7.7-8.3c3.4-3.7,6.7-7.6,10.6-10.8
				c1.4-1.1,2.7-2.4,4-3.7c1-1,0.9-1.6-0.4-2.1c-2.8-1.2-5.7-1.7-8.7-1.9c-1.3-0.1-2.6-0.3-4-0.4c0-0.1,0-0.3-0.1-0.4
				c0.4-0.2,0.8-0.4,1.3-0.6c6.5-1.8,12.8-4,19.1-6.4c4-1.5,8.2-2.5,12.3-3.7c1.6-0.5,3.2-0.8,4.8-1.2c0.3-0.1,0.7-0.1,1.3-0.2
				c-2.2,2.1-4.4,3.7-6.6,5.3c-2.4,1.7-4.6,3.5-6.9,5.2c-1.2,1-1.2,1.6,0.1,2.3c2.2,1.2,4.4,2.3,6.7,3.3c1.5,0.7,2.5,1.1,3.6,2.1
				c-0.3,0.3-0.5,0.6-0.8,0.8c-3,2.2-6.3,3.7-9.6,5.3c-4.7,2.2-9.4,4.5-14.1,6.8c-6.5,3.2-13,6.4-19.5,9.5c-0.5,0.2-1,0.4-1.5,0.7
				C45.8,333.6,45.7,333.4,45.6,333.3z"/>
			<path class="st3" d="M449,322.8c-0.4-0.1-0.9-0.2-1.3-0.4c-2.6-1.2-5.2-2.4-7.8-3.6c-4-1.8-8.1-3.6-12-5.5c-4.2-1.9-8.3-4-12.5-6
				c-1.2-0.6-2.4-1.3-3.6-1.9c-0.2-0.1-0.5-0.2-0.7-0.3c-1.2-0.3-1.8,0.3-1.5,1.4c0.6,2.3,1.3,4.6,2.1,6.9c0.4,1.3,1.1,2.5,1.6,3.8
				c0.1,0.3,0.1,0.7,0.2,1.3c-1.6-0.4-2.8-1.1-4-1.8c-2.1-1.2-4-2.6-6-4c-4.7-3.1-9.3-6.3-13.9-9.5c-2-1.4-4-2.7-6-4
				c-0.4-0.3-0.7-0.7-1.1-1c0-0.1,0.1-0.2,0.1-0.3c0.6,0.1,1.2,0.1,1.8,0.3c1.7,0.4,3.3,0.9,5,1.4c2,0.6,4.2,0.7,6.3,0.5
				c2.3-0.1,3-0.9,3.5-3.1c0.5-2.2,0.5-4.5,0.4-6.7c0-0.9,0-1.9,0.1-3.1c0.7,0.3,1.1,0.4,1.6,0.6c3.1,1.5,5.9,3.6,8.8,5.5
				c1.9,1.3,3.9,2.5,5.7,3.9c4.5,3.4,9,6.8,13.6,10.2c3.2,2.4,6.5,4.8,9.7,7.3c2.6,2,5.3,4,7.9,5.9c0.8,0.6,1.7,1.2,2.5,1.8
				C449.2,322.6,449.1,322.7,449,322.8z"/>
			<g>
				<path d="M116.3,354.1c1.2,0.8,2.3,1.6,3.4,2.3c1.4,0.9,3,1.7,4.4,2.5c0.4,0.2,0.7,0.5,0.9,0.6c-0.1,1.2-0.8,1.5-1.4,1.9
					c-3.8,2-7.5,4.1-11.4,6c-4.5,2.2-9.1,4.2-13.7,6.3c-3.2,1.5-6.4,3.1-9.6,4.7c-1.2,0.6-2.4,1.1-3.6,1.7c-2.8,1.4-5.5,2.8-8.3,4.2
					c-0.2,0.1-0.4,0.3-0.7,0.3c-0.5,0.2-1.1,0.2-1.3-0.4c-0.1-0.3,0.1-0.9,0.4-1.2c4.2-4.2,8.4-8.3,12.5-12.5
					c3.7-3.7,7.3-7.3,10.9-11c0.8-0.8,1.5-1.8,2.4-3c-1.2-0.3-2.1-0.5-3-0.7c-0.8-0.2-1.6-0.3-2.4-0.7c-0.9-0.4-1-1-0.2-1.6
					c0.2-0.1,0.4-0.2,0.5-0.3c4.8-2.1,9.2-5,13.8-7.5c3.6-1.9,7.2-3.6,10.8-5.3c2.4-1.2,4.9-2.2,7.4-3.3c0.2-0.1,0.4-0.2,0.6-0.3
					c0.6-0.2,1-0.1,1.4,0.4s0.3,0.9-0.1,1.4c-3.5,3.8-6.5,8-10.4,11.5c-0.8,0.7-1.5,1.4-2.2,2.2C117,353,116.7,353.5,116.3,354.1z
					 M79.8,380.9c0.1,0.1,0.2,0.3,0.3,0.4c0.9-0.4,1.9-0.8,2.8-1.3c7.8-4.1,15.7-7.8,23.7-11.5c2.6-1.2,5.2-2.5,7.8-3.9
					c2.7-1.4,5.3-2.8,7.9-4.3c0.2-0.1,0.4-0.3,0.6-0.6c-0.4-0.3-0.7-0.6-1.1-0.7c-2.3-1-4.3-2.4-6.4-3.8c-1-0.7-1.2-1.2-0.5-2.2
					c0.5-0.8,1.2-1.4,1.8-2.1c2.6-2.7,5.2-5.3,7.7-8.1c0.8-0.9,1.4-2,2.1-3.1c-2.8,0-26.3,12.8-27.9,14.7c1.1,0.2,2.1,0.4,3.1,0.5
					c1.6,0.3,2,1.1,0.9,2.4c-0.5,0.6-1,1.1-1.5,1.6c-1.9,2-3.7,4-5.6,6c-1.5,1.6-3.1,3-4.7,4.5c-2.6,2.6-5.2,5.3-7.8,8
					C82,378.7,80.9,379.8,79.8,380.9z"/>
				<path class="st3" d="M79.8,380.9c1.1-1.1,2.3-2.2,3.4-3.3c2.6-2.6,5.2-5.3,7.8-8c1.5-1.5,3.2-3,4.7-4.5c1.9-2,3.7-4,5.6-6
					c0.5-0.5,1-1,1.5-1.6c1-1.3,0.7-2.2-0.9-2.4c-1-0.2-2-0.3-3.1-0.5c1.7-1.8,25.1-14.7,27.9-14.7c-0.7,1.1-1.3,2.2-2.1,3.1
					c-2.5,2.7-5.1,5.4-7.7,8.1c-0.6,0.7-1.3,1.3-1.8,2.1c-0.7,1-0.5,1.5,0.5,2.2c2.1,1.4,4.1,2.8,6.4,3.8c0.4,0.2,0.7,0.4,1.1,0.7
					c-0.3,0.3-0.4,0.5-0.6,0.6c-2.6,1.4-5.3,2.9-7.9,4.3c-2.6,1.3-5.1,2.7-7.8,3.9c-8,3.6-15.9,7.4-23.7,11.5
					c-0.9,0.5-1.8,0.9-2.8,1.3C79.9,381.2,79.8,381.1,79.8,380.9z"/>
			</g>
		</g>
	</g>
</g>
</svg>
