<?xml version="1.0" encoding="utf-8"?>
<!-- Generator: Adobe Illustrator 21.1.0, SVG Export Plug-In . SVG Version: 6.00 Build 0)  -->
<svg version="1.1" id="Layer_1" xmlns="http://www.w3.org/2000/svg" xmlns:xlink="http://www.w3.org/1999/xlink" x="0px" y="0px"
	 viewBox="0 0 150 73" style="enable-background:new 0 0 150 73;" xml:space="preserve">
<style type="text/css">
	.st0{fill:#FDB913;}
	.st1{font-family:'Montserrat-SemiBold';}
	.st2{font-size:17.8253px;}
	.st3{fill:none;stroke:#000000;stroke-miterlimit:10;}
</style>
<g>
	<path class="st0" d="M149.9,9.8V8.9c0,0-3.9,0.2-6.9-2.2c-2.9-2.4-3.1-6.6-3.1-6.6H75.3h-0.4H10.3c0,0-0.2,4.2-3.1,6.6
		S0.3,8.9,0.3,8.9v0.9c1.7,0,3.1,1.3,3.1,2.8S2,15.5,0.3,15.5v1.2c1.7,0,3.1,1.3,3.1,2.8c0,1.6-1.4,2.8-3.1,2.8v1.2c0,0,0,0,0.1,0
		c1.7,0,3.1,1.3,3.1,2.8c0,1.6-1.4,2.8-3.1,2.8c0,0,0,0-0.1,0v1.2c1.7,0,3,1.3,3,2.8c0,1.5-1.4,2.8-3,2.8v0.6h0V37
		c1.7,0,3,1.3,3,2.8c0,1.5-1.4,2.8-3,2.8v1.2c0,0,0,0,0.1,0c1.7,0,3.1,1.3,3.1,2.8s-1.4,2.8-3.1,2.8c0,0,0,0-0.1,0v1.2
		c1.7,0,3.1,1.3,3.1,2.8c0,1.6-1.4,2.8-3.1,2.8v1.2c1.7,0,3.1,1.3,3.1,2.8s-1.4,2.8-3.1,2.8v0.9c0,0,3.9-0.2,6.9,2.2
		s3.1,6.6,3.1,6.6h64.5h0.5h64.5c0,0,0.2-4.2,3.1-6.6c2.9-2.4,6.9-2.2,6.9-2.2v-0.9c-1.7,0-3.1-1.3-3.1-2.8s1.4-2.8,3.1-2.8v-1.2
		c-1.7,0-3.1-1.3-3.1-2.8c0-1.6,1.4-2.8,3.1-2.8v-1.2c0,0,0,0-0.1,0c-1.7,0-3.1-1.3-3.1-2.8s1.4-2.8,3.1-2.8c0,0,0,0,0.1,0v-1.2
		c-1.7,0-3-1.3-3-2.8c0-1.5,1.4-2.8,3-2.8v-0.4h0V36c-1.7,0-3-1.3-3-2.8c0-1.5,1.4-2.8,3-2.8v-1.2c0,0,0,0-0.1,0
		c-1.7,0-3.1-1.3-3.1-2.8c0-1.6,1.4-2.8,3.1-2.8c0,0,0,0,0.1,0v-1.2c-1.7,0-3.1-1.3-3.1-2.8c0-1.6,1.4-2.8,3.1-2.8v-1.2
		c-1.7,0-3.1-1.3-3.1-2.8S148.2,9.8,149.9,9.8z"/>
	<text transform="matrix(1 0 0 1 35.7873 32.6318)"><tspan x="0" y="0" class="st1 st2">Redeem</tspan><tspan x="12.1" y="17.8" class="st1 st2">Prize</tspan></text>
	<g>
		<polygon points="23.7,32 25.1,35 28.4,35.5 26,37.8 26.6,41 23.7,39.5 20.7,41 21.3,37.8 18.9,35.5 22.2,35 		"/>
		<polygon points="23.8,21.4 25.3,24.3 28.6,24.8 26.2,27.1 26.8,30.4 23.8,28.9 20.9,30.4 21.5,27.1 19.1,24.8 22.4,24.3 		"/>
		<polygon points="23.6,42.9 25,45.9 28.3,46.4 25.9,48.7 26.5,52 23.6,50.4 20.6,52 21.2,48.7 18.8,46.4 22.1,45.9 		"/>
		<polygon points="126.5,31.7 128,34.6 131.2,35.1 128.9,37.4 129.4,40.7 126.5,39.2 123.6,40.7 124.1,37.4 121.8,35.1 125,34.6 		
			"/>
		<polygon points="126.7,21 128.1,24 131.4,24.5 129,26.8 129.6,30.1 126.7,28.5 123.7,30.1 124.3,26.8 121.9,24.5 125.2,24 		"/>
		<polygon points="126.4,42.6 127.9,45.6 131.1,46.1 128.8,48.4 129.3,51.6 126.4,50.1 123.5,51.6 124,48.4 121.7,46.1 124.9,45.6 
					"/>
	</g>
	<path class="st3" d="M133.9,64.1H16.3c-2.2,0-3.9-1.8-3.9-3.9V12.8c0-2.2,1.8-3.9,3.9-3.9h117.7c2.2,0,3.9,1.8,3.9,3.9v47.3
		C137.9,62.3,136.1,64.1,133.9,64.1z"/>
	<path class="st0" d="M149.7,9.8V8.9c0,0-3.9,0.2-6.9-2.2c-2.9-2.4-3.1-6.6-3.1-6.6H75.1h-0.4H10.1c0,0-0.2,4.2-3.1,6.6
		S0.1,8.9,0.1,8.9v0.9c1.7,0,3.1,1.3,3.1,2.8s-1.4,2.8-3.1,2.8v1.2c1.7,0,3.1,1.3,3.1,2.8c0,1.6-1.4,2.8-3.1,2.8v1.2c0,0,0,0,0.1,0
		c1.7,0,3.1,1.3,3.1,2.8c0,1.6-1.4,2.8-3.1,2.8c0,0,0,0-0.1,0v1.2c1.7,0,3,1.3,3,2.8c0,1.5-1.4,2.8-3,2.8v0.6h0V37
		c1.7,0,3,1.3,3,2.8c0,1.5-1.4,2.8-3,2.8v1.2c0,0,0,0,0.1,0c1.7,0,3.1,1.3,3.1,2.8s-1.4,2.8-3.1,2.8c0,0,0,0-0.1,0v1.2
		c1.7,0,3.1,1.3,3.1,2.8c0,1.6-1.4,2.8-3.1,2.8v1.2c1.7,0,3.1,1.3,3.1,2.8s-1.4,2.8-3.1,2.8v0.9c0,0,3.9-0.2,6.9,2.2
		s3.1,6.6,3.1,6.6h64.5h0.5h64.5c0,0,0.2-4.2,3.1-6.6c2.9-2.4,6.9-2.2,6.9-2.2v-0.9c-1.7,0-3.1-1.3-3.1-2.8s1.4-2.8,3.1-2.8v-1.2
		c-1.7,0-3.1-1.3-3.1-2.8c0-1.6,1.4-2.8,3.1-2.8v-1.2c0,0,0,0-0.1,0c-1.7,0-3.1-1.3-3.1-2.8s1.4-2.8,3.1-2.8c0,0,0,0,0.1,0v-1.2
		c-1.7,0-3-1.3-3-2.8c0-1.5,1.4-2.8,3-2.8v-0.4h0V36c-1.7,0-3-1.3-3-2.8c0-1.5,1.4-2.8,3-2.8v-1.2c0,0,0,0-0.1,0
		c-1.7,0-3.1-1.3-3.1-2.8c0-1.6,1.4-2.8,3.1-2.8c0,0,0,0,0.1,0v-1.2c-1.7,0-3.1-1.3-3.1-2.8c0-1.6,1.4-2.8,3.1-2.8v-1.2
		c-1.7,0-3.1-1.3-3.1-2.8S148,9.8,149.7,9.8z"/>
	<text transform="matrix(1 0 0 1 35.5656 32.6318)"><tspan x="0" y="0" class="st1 st2">Redeem</tspan><tspan x="12.1" y="17.8" class="st1 st2">Prize</tspan></text>
	<g>
		<polygon points="23.4,32 24.9,35 28.2,35.5 25.8,37.8 26.4,41 23.4,39.5 20.5,41 21.1,37.8 18.7,35.5 22,35 		"/>
		<polygon points="23.6,21.4 25.1,24.3 28.3,24.8 26,27.1 26.5,30.4 23.6,28.9 20.7,30.4 21.2,27.1 18.9,24.8 22.1,24.3 		"/>
		<polygon points="23.3,42.9 24.8,45.9 28.1,46.4 25.7,48.7 26.3,52 23.3,50.4 20.4,52 21,48.7 18.6,46.4 21.9,45.9 		"/>
		<polygon points="126.3,31.7 127.7,34.6 131,35.1 128.6,37.4 129.2,40.7 126.3,39.2 123.3,40.7 123.9,37.4 121.5,35.1 124.8,34.6 
					"/>
		<polygon points="126.4,21 127.9,24 131.2,24.5 128.8,26.8 129.4,30.1 126.4,28.5 123.5,30.1 124.1,26.8 121.7,24.5 125,24 		"/>
		<polygon points="126.2,42.6 127.6,45.6 130.9,46.1 128.5,48.4 129.1,51.6 126.2,50.1 123.2,51.6 123.8,48.4 121.4,46.1 
			124.7,45.6 		"/>
	</g>
	<path class="st3" d="M133.7,64.1H16.1c-2.2,0-3.9-1.8-3.9-3.9V12.8c0-2.2,1.8-3.9,3.9-3.9h117.7c2.2,0,3.9,1.8,3.9,3.9v47.3
		C137.7,62.3,135.9,64.1,133.7,64.1z"/>
</g>
</svg>
