<?xml version="1.0" encoding="utf-8"?>
<!-- Generator: Adobe Illustrator 22.0.1, SVG Export Plug-In . SVG Version: 6.00 Build 0)  -->
<svg version="1.1" id="Layer_1" xmlns="http://www.w3.org/2000/svg" xmlns:xlink="http://www.w3.org/1999/xlink" x="0px" y="0px"
	 viewBox="0 0 409 58" style="enable-background:new 0 0 409 58;" xml:space="preserve">
<style type="text/css">
	.st0{fill:#62BB46;}
	.st1{fill:#FFFFFF;}
	.st2{fill:#231F20;}
</style>
<g>
	<g>
		<g>
			<path class="st0" d="M48.7,55.9c-3.6-1.1-7.1-3.3-10.9-6.9c-1.1-1.1-2.2-2.2-2.9-3.5c-0.5-0.3-1-0.6-1.4-0.9
				c-3.2-2.3-5.7-6.1-7-10.6c-0.7-2.4-1-4.7-0.9-6.9c-0.2,0.1-0.4,0.1-0.6,0.2l-0.5,0.2c-3.4,1.2-7.9,2.6-12.2,2.8
				C10,30.5,7.9,30.3,6,29.7c-2.1-0.6-3.9-1.6-5.4-3.1c-0.1-0.1-0.1-0.2,0-0.3c0.1-0.1,0.2-0.1,0.3,0c1.5,1.4,3.2,2.4,5.2,3
				c1.8,0.5,3.8,0.7,6.1,0.6c4.3-0.2,8.7-1.6,12.1-2.8l0.5-0.2c0.3-0.1,0.5-0.2,0.8-0.3c0-0.6,0.1-1.3,0.2-1.9
				c0.6-3.3,2.2-6.1,4.5-8c1.5-1.3,3.4-2.2,5.6-2.7c0.2-0.3,0.4-0.6,0.6-0.9c0.5-1.7,1.2-3.2,2.1-4.6c3-4.7,8.5-7.4,13.6-6.9
				C53,1.8,54,2,55,2.4c1.7-0.4,3.5-0.5,5.2,0c2.4,0.6,4.5,2,5.7,3.9c0.6,0.9,1,1.8,1.2,2.8C67.4,9,67.6,9,67.8,9
				c1.8-0.1,3.4,0.6,4.4,2c0.7,1.1,1,2.4,0.9,3.8c0,0.4-0.1,0.8-0.2,1.1c0.1,0.2,0.3,0.4,0.4,0.7c1.2,0.2,2.3,0.7,3.3,1.3
				c1.7,1.1,2.7,2.7,3,4.5c0.3,2.2-0.6,4.5-2.3,6.3c0.2,1.7,0.2,3.5,0.1,5.3c0.7,1,1.3,2.1,1.6,3.2c1.7-0.8,3.3-1.8,4.9-2.9
				c0.6-0.4,1.2-0.8,1.8-1.2c6-3.8,12.5-6.9,19.3-9.1c0.1,0,0.2,0,0.3,0.1c0,0.1,0,0.2-0.1,0.3c-6.8,2.2-13.2,5.2-19.2,9.1
				c-0.6,0.4-1.2,0.8-1.8,1.2c-1.6,1.1-3.2,2.1-5,2.9c0.1,0.3,0.1,0.5,0.2,0.8c0.3,2.1,0,4.3-1,6.3c-1,2-2.5,3.6-4.3,4.7
				c-1.1,0.6-2.4,1.1-3.6,1.3c0,0,0,0,0,0c-1.9,1.8-4.1,3.3-6.5,4.2c-1.7,0.6-3.5,1-5.2,1.1c-1.5,0.5-3.1,0.8-4.8,0.8
				C52.1,56.7,50.4,56.4,48.7,55.9z M56,55.8c-3.5-0.4-7-2.2-9.9-4.9c-1.1-1.1-2.2-2.3-3.1-3.7c-0.4,0-0.8,0.1-1.1,0.1
				c-2.2,0-4.4-0.5-6.3-1.4c0.7,1.1,1.6,2,2.5,2.9c3.8,3.5,7.2,5.7,10.7,6.8c2.8,0.9,5.6,1,8.1,0.4C56.6,55.9,56.3,55.9,56,55.8z
				 M61,54.2c1.4-1,2.6-2.3,3.7-3.9c-1.1-0.3-2.2-0.8-3.2-1.5c-0.8-0.6-1.6-1.3-2.3-2c-0.1,0-0.2,0.1-0.3,0.1
				c-2.4,0.8-5.1,0.9-7.6,0.3c-1.3-0.3-2.6-0.8-3.8-1.4c-1.2,0.7-2.6,1.2-4,1.4c0.9,1.3,1.9,2.4,3,3.4c2.8,2.7,6.2,4.4,9.6,4.8
				c0.7,0.1,1.5,0.1,2.3,0.1C59.3,55.2,60.2,54.7,61,54.2z M65.1,50.4c-1.1,1.7-2.4,3.1-3.8,4.1c-0.5,0.3-1,0.6-1.5,0.9
				c1.3-0.2,2.5-0.5,3.7-0.9c2.2-0.8,4.2-2.1,6-3.7C68,50.9,66.5,50.8,65.1,50.4z M74.2,44.2c0.8-1.7,1.5-3.6,2-5.6
				c-1.6,0.4-3.1,0.7-4.7,0.7c-0.1,0.6-0.2,1.1-0.4,1.6c-0.6,2.1-2.1,4-4,5.1c-0.3,0.9-0.6,1.8-1,2.6c-0.2,0.5-0.5,0.9-0.7,1.4
				c1.5,0.4,3.1,0.4,4.6,0.2C71.7,48.5,73.1,46.5,74.2,44.2z M77.4,38.2c-0.3,0.1-0.5,0.2-0.8,0.2c-0.5,2.1-1.2,4.1-2.1,5.9
				c-1,2.2-2.3,4.1-3.9,5.7c1-0.2,2-0.6,2.9-1.1c1.8-1,3.2-2.6,4.2-4.5c0.9-1.9,1.3-4.1,1-6c0-0.2-0.1-0.4-0.1-0.7
				C78.3,37.9,77.9,38.1,77.4,38.2z M65.4,46.9c-1.3,0.4-3.2,0.7-5.2-0.5c-0.2,0.1-0.4,0.1-0.5,0.2c0.6,0.7,1.3,1.3,2.1,1.8
				c1,0.7,2,1.1,3.1,1.5c0.3-0.5,0.5-0.9,0.8-1.5c0.3-0.7,0.6-1.3,0.9-2.1C66.2,46.6,65.8,46.8,65.4,46.9z M57.6,44.4
				c-2,0.2-4.1-0.2-6.1-1.1c-0.3-0.1-0.6-0.3-0.9-0.4c-0.2,0.3-0.4,0.6-0.7,0.8c-0.6,0.7-1.2,1.2-2,1.7c1.1,0.6,2.2,1,3.5,1.2
				c2.5,0.6,5,0.5,7.4-0.3c0,0,0.1,0,0.1,0C58.4,45.8,58,45.1,57.6,44.4z M40,41.7c-0.4-0.9-0.7-1.8-1-2.7c-1-0.3-1.9-0.2-2.6,0.2
				c-1.7,0.8-2.2,3.1-1.7,4.9c0.1,0.4,0.3,0.8,0.4,1.1c2,1.1,4.4,1.7,6.7,1.7c0.3,0,0.6,0,0.9,0C41.8,45.3,40.8,43.6,40,41.7z
				 M67.9,41.1c0.1-0.7,0.2-1.3,0.3-2c0,0-0.1,0-0.1,0c-0.7,1.3-1.6,2.6-2.7,3.7c-1.4,1.4-3,2.6-4.7,3.4c1.7,0.9,3.4,0.7,4.6,0.3
				c0.5-0.2,1-0.4,1.5-0.7C67.2,44.4,67.6,42.8,67.9,41.1z M44.6,43.7c-0.5-0.5-0.9-0.9-1.4-1.4c-0.7-0.8-1.4-1.5-2.2-2.2
				c-0.5-0.4-1-0.6-1.5-0.8c0.3,0.8,0.6,1.5,0.9,2.3c0.8,1.9,1.8,3.7,2.8,5.2c1.4-0.2,2.7-0.6,3.9-1.3C46.2,45,45.4,44.4,44.6,43.7z
				 M59.7,46.1c-0.6-0.5-1.2-1-1.6-1.7c0,0,0,0,0,0c0.4,0.7,0.8,1.3,1.3,1.9C59.5,46.2,59.6,46.2,59.7,46.1
				C59.7,46.1,59.7,46.1,59.7,46.1z M65.7,38.6c-1,2.2-2.8,4-4.9,5c-0.7,0.3-1.5,0.5-2.2,0.7c0.4,0.6,0.9,1.1,1.4,1.4
				c0.1,0.1,0.2,0.1,0.3,0.2c1.8-0.8,3.4-1.9,4.8-3.4c1-1,1.9-2.2,2.5-3.5C67,38.9,66.3,38.8,65.7,38.6z M68.6,39.2
				c-0.1,0.7-0.2,1.3-0.3,2c-0.3,1.5-0.6,2.9-1,4.2c1.6-1.1,2.8-2.8,3.4-4.6c0.1-0.5,0.3-1,0.3-1.5C70.2,39.3,69.4,39.3,68.6,39.2z
				 M44,37.6c-1.1-1.2-2.1-2.4-3-3.7c-1-0.4-2-1-2.8-1.6c0.1,2.1,0.5,4.2,1.3,6.4c0.7,0.2,1.4,0.6,1.9,1c0.9,0.6,1.6,1.4,2.3,2.2
				c0.4,0.5,0.9,1,1.3,1.4c0.8,0.7,1.7,1.4,2.6,1.9c0.8-0.5,1.5-1.1,2.1-1.8c0.2-0.2,0.4-0.5,0.6-0.8C48.1,41.6,46.1,40,44,37.6z
				 M38.9,38.6c-0.7-2.3-1.1-4.5-1.2-6.7c-1.9-1.6-3.4-3.9-4-6.5c0-0.2-0.1-0.4-0.1-0.6C31,25.3,28.4,26.2,26,27
				c-0.1,2.2,0.2,4.5,0.9,6.9c1.3,4.4,3.7,8.1,6.9,10.4c0.3,0.2,0.6,0.4,0.8,0.6c-0.1-0.2-0.2-0.4-0.2-0.6c-0.6-1.9,0-4.5,2-5.4
				c0.5-0.2,1.1-0.4,1.6-0.4C38.2,38.5,38.5,38.5,38.9,38.6z M65.2,38.5c-0.9,1.7-2.1,3.2-3.7,4.2c-1,0.6-2,1-3.2,1.3c0,0,0,0,0,0
				c0.8-0.1,1.6-0.4,2.3-0.7c2-0.9,3.6-2.6,4.7-4.7C65.3,38.5,65.2,38.5,65.2,38.5z M56.1,37.7c0-0.9,0.2-1.8,0.4-2.7
				c-0.2-0.2-0.5-0.4-0.7-0.6c-0.8,0.8-1.7,1.4-2.6,1.9c-0.2,0.1-0.4,0.2-0.6,0.3c0,2-0.5,4-1.5,5.6c1.1,0.7,2.4,1.1,3.8,1.3
				c0.8,0.1,1.6,0.1,2.4,0C56.4,41.8,56,39.7,56.1,37.7z M64.1,38.1c-2.1-0.2-4.1-0.9-5.9-1.9c-0.1,0.3-0.3,0.6-0.4,1
				c-0.8,2.4-0.6,4.7,0.3,6.4c1.1-0.2,2.2-0.6,3.1-1.2c1.5-0.9,2.7-2.3,3.5-4C64.6,38.2,64.3,38.1,64.1,38.1z M56.9,35.2
				c-0.2,0.8-0.3,1.6-0.4,2.5c-0.1,2,0.3,3.9,1.1,5.7c-0.2-0.5-0.3-0.9-0.5-1.5c-0.3-1.6-0.2-3.4,0.3-5c0.1-0.4,0.3-0.7,0.4-1.1
				C57.5,35.7,57.2,35.5,56.9,35.2z M48.7,40.9c-0.8-0.9-1.5-2-1.9-3.2c-0.9-0.1-1.8-0.4-2.7-0.9c-0.3-0.2-0.6-0.3-0.8-0.5
				c0.3,0.4,0.6,0.7,1,1.1c2.1,2.3,4.1,4,6.2,5.1c0,0,0,0,0,0C49.8,42,49.2,41.5,48.7,40.9z M47.3,37.8c0.4,1.1,1,2.1,1.8,2.9
				c0.5,0.5,1,1,1.6,1.4c0.9-1.5,1.4-3.3,1.4-5.2C50.5,37.6,48.9,37.9,47.3,37.8z M71.1,36.8c-0.7,0.4-1.5,0.7-2.4,0.9
				c0,0.4-0.1,0.7-0.1,1.1c0.8,0.1,1.6,0.1,2.4,0.1C71.2,38.2,71.2,37.5,71.1,36.8z M76.5,36.9c0.2-1,0.3-1.9,0.4-2.9
				c-0.4-0.6-1-1.1-1.5-1.6c-0.7,1.4-1.7,2.5-2.8,3.4c-0.3,0.2-0.6,0.5-1,0.7c0.1,0.8,0,1.6,0,2.3c1.6-0.1,3.2-0.3,4.8-0.8
				C76.4,37.7,76.4,37.3,76.5,36.9z M65.9,38.1c0,0,0,0.1-0.1,0.1c0.6,0.2,1.3,0.3,1.9,0.4c0.1-0.3,0.3-0.6,0.4-0.8
				C67.5,38,66.7,38.1,65.9,38.1z M77.3,34.6c-0.1,0.8-0.2,1.6-0.3,2.4c-0.1,0.3-0.1,0.6-0.2,1c0.2-0.1,0.4-0.1,0.5-0.2
				c0.4-0.1,0.8-0.3,1.2-0.5C78.3,36.3,77.8,35.4,77.3,34.6z M66.4,33.6c0,1.4-0.4,2.8-0.9,4.1c0,0,0.1,0,0.1,0
				C66.1,36.4,66.4,35,66.4,33.6z M63.5,31.2c-0.3,0.1-0.5,0.2-0.8,0.2c-0.5,0.1-1,0.3-1.5,0.4c-0.7,0.8-1.3,1.6-1.9,2.4
				c1.3,1.4,3,2.6,4.9,3.4c0.1,0,0.1,0,0.2,0c0.2,0,0.4,0,0.6,0c0-0.1,0.1-0.2,0.1-0.3c0.7-1.9,1-4,0.7-5.9
				C65.1,31.4,64.3,31.3,63.5,31.2z M68.6,31.7c-0.6,0-1.3,0-1.9-0.1c0.1,0.5,0.1,0.9,0.1,1.4c0.1,1.6-0.2,3.2-0.7,4.7
				c0.8,0,1.5-0.2,2.3-0.3C68.6,35.5,68.6,33.6,68.6,31.7z M58.4,35.8c1.3,0.8,2.8,1.4,4.3,1.7c-1.4-0.7-2.7-1.7-3.7-2.8
				C58.8,35,58.6,35.4,58.4,35.8z M51.6,33.3c-0.1-0.3-0.2-0.6-0.3-0.8c-1.5,1-3.1,1.6-4.6,2c0,1,0.2,1.9,0.5,2.9
				c1.9,0.2,3.6-0.3,5-0.9C52.1,35.4,51.9,34.3,51.6,33.3z M44.9,34.7c-0.1,0-0.2,0-0.3,0c-0.9,0-1.8-0.1-2.7-0.4
				c0.7,0.9,1.5,1.6,2.4,2.1c0.8,0.4,1.6,0.7,2.3,0.8c-0.3-0.9-0.4-1.8-0.4-2.7C45.8,34.6,45.3,34.7,44.9,34.7z M70,31.6
				c-0.1,0-0.1,0-0.2,0c0,1.6-0.2,3.2-0.6,4.6c-0.1,0.3-0.2,0.6-0.3,1c0.8-0.2,1.5-0.5,2.2-0.9C71,34.8,70.6,33.2,70,31.6z
				 M54.2,32.7c-0.8-0.1-1.7-0.3-2.5-0.5c0,0-0.1,0-0.1,0.1c0.1,0.3,0.2,0.6,0.3,0.9c0.3,1,0.5,2,0.5,3c0.2-0.1,0.3-0.2,0.4-0.2
				c0.9-0.5,1.7-1.1,2.5-1.9C55,33.6,54.6,33.2,54.2,32.7z M73.2,31c-0.8,0.3-1.8,0.4-2.7,0.5c0.6,1.6,0.9,3.1,1.1,4.5
				c0.3-0.2,0.5-0.3,0.8-0.5c1.2-0.9,2.1-2.1,2.8-3.4C74.5,31.7,73.9,31.3,73.2,31z M69.1,31.6c0,1.3,0,2.7-0.1,4
				c0.3-1.3,0.5-2.7,0.5-4.1C69.3,31.6,69.2,31.6,69.1,31.6z M57.9,33.3c-0.1-0.2-0.2-0.3-0.3-0.5c-0.2,0.6-0.5,1.3-0.6,1.9
				c0.4,0.3,0.7,0.5,1.1,0.8c0.2-0.4,0.4-0.8,0.7-1.2C58.4,34,58.2,33.7,57.9,33.3z M56.1,34.1c0.2,0.1,0.3,0.3,0.5,0.4
				c0.1-0.4,0.3-0.9,0.4-1.3C56.7,33.5,56.4,33.8,56.1,34.1z M46.3,33.4c0.1-1.3,0.4-2.5,0.9-3.6c-0.4-0.3-0.7-0.6-1.1-1
				c-1-1-1.7-2.2-2.2-3.5c-0.8-0.3-1.5-0.5-2.3-0.7c-0.5,0.8-0.9,1.7-1.1,2.6c-0.4,1.7-0.3,3.6,0.4,5.2c0.2,0.4,0.4,0.8,0.6,1.2
				c1.1,0.4,2.2,0.6,3.3,0.5c0.5,0,0.9-0.1,1.4-0.1C46.2,33.9,46.3,33.6,46.3,33.4z M51,32c-1.3-0.5-2.5-1.1-3.5-1.9
				c-0.5,1-0.7,2.2-0.8,3.3c0,0.2,0,0.4,0,0.6c1.6-0.3,3.1-1.1,4.4-1.9C51.1,32,51.1,32,51,32z M58,32.6c0.1,0.2,0.2,0.3,0.3,0.5
				c0.2,0.3,0.4,0.6,0.7,0.9c0.4-0.7,0.9-1.3,1.4-1.9C59.6,32.3,58.8,32.5,58,32.6z M54.8,32.7c0.3,0.4,0.7,0.7,1,1
				c0.4-0.3,0.7-0.7,1.1-1.1C56.2,32.8,55.5,32.8,54.8,32.7z M76.4,29.4c-0.1,0.4-0.2,0.7-0.3,1.1c-0.2,0.5-0.3,1-0.6,1.5
				c0.2,0.2,0.5,0.4,0.7,0.6c0.2,0.2,0.5,0.5,0.7,0.7c0.1-1.5,0.1-2.9-0.1-4.4C76.7,29.1,76.6,29.3,76.4,29.4z M38.1,30.5
				c0,0.4,0,0.8,0,1.2c0.8,0.6,1.6,1.2,2.4,1.6c-0.9-1.3-1.7-2.7-2.3-4C38.1,29.7,38.1,30.1,38.1,30.5z M39.3,24.4
				c-0.5,1.3-0.8,2.6-1,4.1c0.6,1.4,1.4,2.7,2.2,4c-0.6-1.7-0.8-3.5-0.4-5.3c0.2-0.9,0.6-1.8,1-2.6C40.5,24.5,39.9,24.4,39.3,24.4z
				 M57.3,32.3c-0.6-1.1-1-2.3-1.1-3.6c-0.1-0.1-0.2-0.1-0.3-0.2c-0.4,0.4-0.8,0.9-1.3,1.3c-0.4,0.4-0.8,0.7-1.1,1
				c0.3,0.5,0.6,1,1,1.4C55.4,32.4,56.3,32.4,57.3,32.3C57.3,32.3,57.3,32.3,57.3,32.3z M52.2,31.9c0.5,0.1,1.1,0.3,1.6,0.3
				c-0.3-0.3-0.5-0.7-0.7-1.1C52.8,31.4,52.5,31.6,52.2,31.9z M61.6,30.8c-0.7-0.2-1.5-0.4-2.2-0.7c-0.5,0.7-1,1.4-1.5,2.1
				c1-0.2,2-0.4,3-0.7C61.1,31.2,61.4,31,61.6,30.8z M56.6,28.9c0.1,1,0.5,2,0.9,2.9c0.3-0.7,0.7-1.4,1-2.1
				C57.9,29.5,57.3,29.3,56.6,28.9z M75.3,30.1c-0.5,0.3-1,0.5-1.5,0.7c0.5,0.3,1,0.6,1.5,0.9c0.3-0.6,0.5-1.3,0.7-2
				C75.7,29.9,75.5,30,75.3,30.1z M52.2,29.4c-0.5-1.1-0.8-2.3-1-3.5c-0.4,0.2-0.7,0.5-1,0.7c-0.5,0.4-1,0.9-1.4,1.4
				c1.1,1.1,2,2.3,2.6,3.6c0.1,0,0.2,0.1,0.3,0.1c0.4-0.3,0.8-0.6,1.2-0.9C52.6,30.3,52.4,29.9,52.2,29.4z M47.7,29.7
				c0.9,0.7,1.9,1.3,3,1.7c-0.6-1.1-1.4-2.1-2.3-3C48.2,28.8,47.9,29.2,47.7,29.7z M36.4,24.4c-0.8,0.1-1.6,0.2-2.4,0.3
				c0,0.2,0.1,0.4,0.1,0.6c0.5,2.3,1.8,4.4,3.5,6c0-0.3,0-0.6,0-0.8c0-0.7,0.1-1.4,0.2-2C37.2,27.1,36.7,25.8,36.4,24.4z M62.1,30.9
				c-0.1,0.1-0.2,0.2-0.4,0.4c0.3-0.1,0.5-0.2,0.8-0.2c0,0,0,0,0.1,0C62.4,31,62.2,30.9,62.1,30.9z M68.6,30.1
				c-0.7,0-1.4,0.1-2.2,0.3c0.1,0.2,0.1,0.5,0.2,0.7c0.7,0.1,1.4,0.1,2,0.1C68.6,30.9,68.6,30.5,68.6,30.1z M69.4,30.1
				c-0.1,0-0.2,0-0.3,0c0,0.4,0,0.7,0,1.1c0.1,0,0.2,0,0.4,0C69.4,30.8,69.4,30.5,69.4,30.1z M69.9,31.1
				C69.9,31.2,69.9,31.2,69.9,31.1C69.9,31.2,69.9,31.2,69.9,31.1C69.9,31.2,69.9,31.2,69.9,31.1z M70.5,30.2c-0.2,0-0.4,0-0.6-0.1
				c0.1,0.1,0.1,0.3,0.2,0.4c0.1,0.2,0.2,0.4,0.2,0.6c0.8-0.1,1.6-0.2,2.3-0.4C71.9,30.5,71.2,30.3,70.5,30.2z M64.4,30.9
				c0.5,0.1,0.9,0.1,1.4,0.2c0-0.2-0.1-0.3-0.1-0.5C65.3,30.7,64.8,30.8,64.4,30.9z M64.9,28.1c-0.3,0.3-0.6,0.6-1,1
				c-0.5,0.5-1,0.9-1.5,1.4c0.3,0.1,0.7,0.1,1,0.2c0.7-0.2,1.4-0.4,2.1-0.6C65.4,29.5,65.2,28.8,64.9,28.1z M75.6,24.2
				c-0.8-2.1-2.5-3.9-4.5-5c-0.2,0.3-0.5,0.5-0.8,0.8C70,21,69.6,22.1,69,23.1c-0.2,0.3-0.3,0.6-0.5,0.8c0.1,0.5,0.1,1,0.2,1.5
				c0.4,1,0.7,2.1,0.9,3.2c0.1,0.4,0.1,0.7,0.2,1.1c0.3,0,0.6,0,0.9,0.1c0.9,0.1,1.8,0.4,2.6,0.8c0.7-0.2,1.3-0.5,1.9-0.8
				c0.3-0.2,0.6-0.4,0.9-0.6C76.3,27.5,76.2,25.8,75.6,24.2z M53.2,26.8c-0.5-0.4-1-0.8-1.4-1.2c-0.1,0-0.1,0.1-0.2,0.1
				c0.2,1.2,0.5,2.4,1,3.5c0.2,0.4,0.4,0.9,0.6,1.3c0.4-0.3,0.7-0.7,1.1-1c0.4-0.4,0.8-0.8,1.2-1.2C54.7,27.8,53.9,27.3,53.2,26.8z
				 M63.1,25.4c-0.2-0.3-0.5-0.6-0.7-0.8c-0.2,0.2-0.3,0.5-0.5,0.7c-0.2,0.4-0.5,0.7-0.7,1.1c-0.4,1.1-0.9,2.2-1.5,3.2
				c0,0.1-0.1,0.1-0.1,0.2c0.7,0.3,1.5,0.5,2.3,0.7c0.5-0.6,1.1-1.1,1.6-1.6c0.4-0.3,0.7-0.7,1.1-1.1C64.2,26.9,63.7,26.1,63.1,25.4
				z M59,30c0,0.1-0.1,0.1-0.1,0.2C58.9,30.1,59,30,59,30C59,30,59,30,59,30z M68.5,28.2c-0.4-0.8-0.9-1.7-1.3-2.5
				c-0.6,0.7-1.1,1.3-1.7,1.9c0.4,0.8,0.7,1.6,0.9,2.4c0.7-0.1,1.5-0.3,2.3-0.3C68.6,29.2,68.5,28.7,68.5,28.2z M69.2,29.7
				c-0.1-0.2-0.2-0.3-0.2-0.5c0,0.2,0,0.3,0,0.5C69.1,29.7,69.1,29.7,69.2,29.7C69.2,29.7,69.2,29.7,69.2,29.7z M59.2,29.6
				C59.2,29.6,59.2,29.6,59.2,29.6c0.1-0.1,0.1-0.1,0.2-0.2c0.2-0.3,0.4-0.7,0.6-1C59.7,28.7,59.4,29.2,59.2,29.6z M61.4,23.5
				c-0.1-0.1-0.2-0.2-0.3-0.3c-0.3,0-0.5,0.1-0.8,0.1c-0.7,0.8-1.3,1.5-2,2.3c-0.6,0.7-1.2,1.4-1.8,2.1c0,0.2,0,0.5,0,0.7
				c0.7,0.4,1.5,0.7,2.2,1c0.5-0.8,1-1.6,1.5-2.4c0.2-0.3,0.4-0.6,0.6-0.9C61.1,25.3,61.3,24.4,61.4,23.5z M44.5,25.6
				c0.5,1.1,1.2,2.1,2,2.9c0.3,0.3,0.6,0.6,0.9,0.9c0.2-0.5,0.5-0.9,0.8-1.3C47.1,27.1,45.9,26.2,44.5,25.6z M76.6,26.7
				c0-0.3-0.1-0.5-0.1-0.8c0.1,0.9,0.2,1.9,0,2.8c0.1-0.1,0.2-0.2,0.3-0.3C76.8,27.9,76.7,27.3,76.6,26.7z M68.9,28.1
				c0.1,0.1,0.1,0.2,0.2,0.4c-0.1-0.3-0.1-0.7-0.2-1C68.9,27.6,68.9,27.9,68.9,28.1z M77,26.7c0.1,0.5,0.1,0.9,0.2,1.4
				c0.4-0.4,0.8-0.9,1.1-1.4c0.8-1.4,1.1-2.8,0.9-4.2c-0.3-1.6-1.3-3.1-2.8-4.2c-0.8-0.6-1.8-1-2.7-1.2C75.3,20,76.4,23.2,77,26.7z
				 M56.3,25.6c0.1-0.6,0.3-1.2,0.5-1.7c-1.4,0.3-3,0.7-4.6,1.4c0.4,0.4,0.8,0.7,1.3,1.1c0.7,0.6,1.5,1.1,2.3,1.5
				c0.1-0.1,0.2-0.3,0.4-0.4C56.1,26.9,56.2,26.3,56.3,25.6z M51.1,24.8c-1.4-1.5-2.4-3.1-3.2-4.9c0,0-0.1,0-0.1,0
				c-1.6,0.5-3,1.3-4.2,2.4c0,0.3,0.1,0.7,0.2,1c0.1,0.6,0.3,1.1,0.5,1.7c0.1,0,0.2,0.1,0.3,0.1c1.5,0.6,2.8,1.5,3.9,2.6
				c0.4-0.5,0.9-1,1.4-1.4c0.3-0.3,0.7-0.6,1.2-0.9C51.1,25.2,51.1,25,51.1,24.8z M36.8,24.4c0.3,1.1,0.7,2.2,1.1,3.3
				c0.2-1.2,0.5-2.3,0.9-3.3C38.1,24.3,37.5,24.3,36.8,24.4z M66.8,25c-0.5-0.8-0.9-1.7-1.4-2.6c-0.1,0-0.3,0.1-0.4,0.1
				c-0.5,0.1-0.9,0.2-1.4,0.3c-0.2,0.3-0.4,0.6-0.6,0.9c0.9,1.1,1.7,2.2,2.3,3.4c0.6-0.6,1.2-1.2,1.7-1.9
				C66.9,25.2,66.8,25.1,66.8,25z M67.9,24.7c-0.2,0.2-0.3,0.4-0.5,0.6c0.3,0.6,0.6,1.2,1,1.8c0-0.5-0.1-1-0.2-1.6
				C68.2,25.3,68,25,67.9,24.7z M57.4,23.8c-0.3,0.6-0.5,1.2-0.6,1.9c-0.1,0.5-0.2,0.9-0.2,1.4c0.5-0.6,1-1.1,1.4-1.7
				c0.5-0.6,1.1-1.3,1.7-1.9C58.9,23.6,58.1,23.7,57.4,23.8z M34.1,17.8c0.4-1.1,0.8-2.2,1.4-3.2c-1.9,0.5-3.6,1.4-5,2.5
				c-2.2,1.9-3.7,4.6-4.3,7.8C26.1,25.4,26,26,26,26.5c2.4-0.8,4.9-1.7,7.5-2.2C33.2,22.3,33.4,20,34.1,17.8z M61.8,23.9
				c-0.1,0.4-0.1,0.8-0.2,1.1c0,0,0,0,0,0c0.2-0.3,0.4-0.5,0.5-0.8C62,24.1,61.9,24,61.8,23.9z M58.4,21.4c-0.1,0-0.1-0.1-0.2-0.1
				c-2-1-4.1-1.6-6.1-1.7c-0.5,1.6-0.7,3.4-0.6,5.1c0.1,0.1,0.3,0.3,0.4,0.4c1.2-0.6,2.8-1.2,5.2-1.6C57.4,22.7,57.8,22,58.4,21.4z
				 M72.5,16.9c-0.2,0.6-0.5,1.1-0.9,1.6c-0.1,0.1-0.2,0.2-0.3,0.3c0.1,0.1,0.3,0.2,0.4,0.3c1.9,1.2,3.4,3,4.1,5
				c0.1,0.3,0.2,0.6,0.3,0.9c-0.6-2.8-1.7-5.4-3.1-7.8c0-0.1-0.1-0.2-0.1-0.2C72.9,16.9,72.7,16.9,72.5,16.9z M66.4,22.1
				c-0.2,0.1-0.4,0.1-0.6,0.2c0.4,0.8,0.9,1.7,1.4,2.5c0,0.1,0.1,0.1,0.1,0.2c0.2-0.2,0.3-0.4,0.5-0.6
				C67.3,23.5,66.9,22.8,66.4,22.1z M62.7,24.2c0.2,0.2,0.4,0.4,0.6,0.7C63.1,24.6,62.9,24.4,62.7,24.2
				C62.7,24.2,62.7,24.2,62.7,24.2z M41.8,24.3c0.6,0.1,1.2,0.3,1.9,0.5c-0.2-0.7-0.4-1.4-0.5-2.1C42.6,23.2,42.2,23.7,41.8,24.3z
				 M36.2,23.9c-0.8-3.2-0.8-6.5-0.2-9.5c-0.7,1.1-1.2,2.2-1.6,3.4c-0.7,2.1-0.9,4.3-0.6,6.4C34.7,24.2,35.5,24.1,36.2,23.9
				C36.3,24,36.2,24,36.2,23.9z M43.3,18.5c-0.5,0.5-1,1-1.5,1.5c-1,1.1-1.8,2.5-2.4,3.9c0.6,0,1.3,0.1,1.9,0.3c0.5-0.7,1-1.4,1.7-2
				C42.9,21,43,19.7,43.3,18.5z M48.3,19.8c0.7,1.5,1.6,3,2.7,4.3c0-1.6,0.2-3.1,0.6-4.6C50.5,19.5,49.4,19.6,48.3,19.8z M39,23.9
				c0.6-1.5,1.5-2.9,2.5-4.1c0.6-0.7,1.3-1.4,2.1-2c0-0.1,0.1-0.3,0.1-0.4c0.4-1,0.9-1.9,1.6-2.7c-1.9-0.5-3.7-0.7-5.3-0.7
				c-1.2,0-2.3,0.1-3.4,0.3c-0.7,3-0.7,6.3,0.1,9.5c0,0,0,0.1,0,0.1c0.5,0,1-0.1,1.4-0.1C38.4,23.9,38.7,23.9,39,23.9z M67.7,21.6
				c-0.3,0.1-0.5,0.2-0.8,0.3c0.4,0.6,0.8,1.3,1.2,2c0,0,0,0,0,0C67.9,23.1,67.8,22.3,67.7,21.6z M61.9,23.2c0,0,0,0.1,0,0.1
				c0.2,0.2,0.3,0.3,0.5,0.5c0,0,0,0,0-0.1C62.2,23.6,62.1,23.4,61.9,23.2z M62.3,23.1c0.1,0.1,0.2,0.2,0.3,0.4
				c0.1-0.2,0.2-0.3,0.3-0.5C62.8,23,62.5,23,62.3,23.1z M60.4,22.7c-0.5-0.4-1.1-0.8-1.6-1.1c-0.4,0.5-0.8,1.1-1.2,1.8
				c0.8-0.1,1.6-0.2,2.4-0.3c0.1,0,0.1,0,0.2,0C60.2,22.9,60.3,22.8,60.4,22.7z M68,21.4c0.1,0.6,0.2,1.3,0.3,1.9
				c0.1-0.1,0.2-0.3,0.3-0.4c0.5-0.8,0.8-1.7,1.1-2.6C69.2,20.7,68.7,21.1,68,21.4z M61.1,22.5c0,0-0.1,0.1-0.1,0.1
				c0.1,0.1,0.2,0.1,0.2,0.2c0.1,0,0.1,0,0.2,0C61.3,22.7,61.2,22.6,61.1,22.5z M64.5,20.5c-0.1-0.3-0.2-0.5-0.3-0.8
				c-0.7,0.6-1.5,1.2-2.2,1.9c0,0.3,0,0.7,0,1c0,0,0,0,0,0c0.4-0.1,0.9-0.1,1.3-0.2C63.7,21.8,64.1,21.2,64.5,20.5z M60.8,22.2
				c-0.5-0.4-1-0.8-1.5-1.2c-0.1,0.1-0.2,0.2-0.3,0.3c0.6,0.3,1.1,0.7,1.6,1.1C60.7,22.3,60.8,22.2,60.8,22.2
				C60.8,22.2,60.8,22.2,60.8,22.2z M64.9,21.5c-0.1-0.1-0.1-0.3-0.2-0.5c-0.3,0.5-0.5,0.9-0.8,1.3c0.3-0.1,0.6-0.1,1-0.2
				c0.1,0,0.2-0.1,0.3-0.1C65.1,21.8,65,21.6,64.9,21.5z M61.4,22.2C61.5,22.2,61.5,22.2,61.4,22.2C61.5,22.2,61.5,22.1,61.4,22.2
				C61.5,22.1,61.5,22.1,61.4,22.2z M65,20.3c0,0.1-0.1,0.1-0.1,0.2c0.1,0.2,0.2,0.5,0.3,0.7c0.1,0.2,0.2,0.4,0.3,0.6
				c0.2-0.1,0.4-0.1,0.6-0.2C65.8,21.2,65.4,20.8,65,20.3z M61.2,19.4c-0.6,0.4-1.1,0.8-1.6,1.3c0.5,0.4,1,0.8,1.5,1.2c0,0,0,0,0,0
				c0.1-0.1,0.3-0.3,0.4-0.4C61.5,20.8,61.4,20.1,61.2,19.4z M46.8,16.3c-1,0.5-2,1.1-2.9,1.8c-0.4,1.2-0.5,2.5-0.4,3.8
				c1.2-1,2.6-1.8,4.2-2.2c0,0,0.1,0,0.1,0C47.3,18.5,47,17.4,46.8,16.3z M67.3,20c-0.2-0.7-0.3-1.4-0.5-2c-0.3,0.1-0.6,0.3-0.9,0.5
				c-0.2,0.5-0.4,1-0.7,1.4c0.5,0.5,0.9,1,1.3,1.6c0.3-0.1,0.7-0.3,1-0.4C67.5,20.8,67.4,20.4,67.3,20z M63.9,19.2
				c-0.3-0.3-0.6-0.5-0.9-0.7c-0.5,0.2-1,0.4-1.4,0.7c0.2,0.6,0.3,1.3,0.3,1.9c0.7-0.7,1.4-1.2,2.1-1.8
				C63.9,19.3,63.9,19.2,63.9,19.2z M52.9,17.3c-0.3,0.6-0.5,1.2-0.7,1.8c2.1,0.1,4.2,0.7,6.2,1.8c0.1,0,0.2,0.1,0.3,0.1
				c0.1-0.1,0.2-0.2,0.3-0.4C57.3,19.5,55.3,18.4,52.9,17.3z M70.1,18.6c-0.9-0.4-1.9-0.6-2.8-0.7c0.2,0.7,0.3,1.3,0.5,2
				c0.1,0.3,0.1,0.7,0.2,1c0.7-0.4,1.4-0.8,2-1.3C70,19.3,70,19,70.1,18.6z M61.1,18.7c-0.2-0.7-0.5-1.4-0.9-2.1
				c-1.8-0.9-3.8-1.5-5.7-1.7c-0.5,0.6-0.9,1.3-1.3,2c2.4,1,4.4,2.2,6.1,3.4c0.1-0.1,0.2-0.2,0.4-0.3c0.5-0.4,1-0.8,1.5-1.1
				C61.1,18.9,61.1,18.8,61.1,18.7z M64.6,19.9c0,0,0,0.1,0.1,0.1C64.7,20,64.7,20,64.6,19.9C64.7,20,64.7,19.9,64.6,19.9z
				 M64.7,19.3c0.1,0.1,0.2,0.2,0.3,0.3c0.1-0.2,0.2-0.5,0.3-0.7C65.1,19,64.9,19.2,64.7,19.3z M51.8,19.1c0.2-0.7,0.5-1.3,0.8-1.9
				c-0.9-0.4-1.8-0.7-2.7-1.1c-0.5-0.2-0.9-0.3-1.3-0.5c-0.4,0.1-0.8,0.3-1.3,0.5c0.2,1.1,0.5,2.2,0.9,3.3c1-0.2,2-0.4,3.1-0.4
				C51.4,19.1,51.6,19.1,51.8,19.1z M70.5,18.8c0,0.1,0,0.2-0.1,0.4c0.1-0.1,0.2-0.2,0.3-0.3C70.6,18.9,70.6,18.9,70.5,18.8z
				 M65.8,17.9c-0.1,0-0.1,0-0.2,0c-0.5,0-1.1,0.1-1.6,0.3c0.1,0.3,0.2,0.5,0.3,0.8c0,0,0.1,0.1,0.1,0.1c0.4-0.3,0.8-0.6,1.3-0.8
				C65.7,18.1,65.7,18,65.8,17.9z M60.8,17c0.3,0.5,0.5,1.1,0.6,1.6c0,0,0,0.1,0,0.1c0.4-0.2,0.8-0.4,1.2-0.6
				C62.1,17.7,61.5,17.3,60.8,17z M71.2,16.8c-0.2,0-0.5,0-0.7,0.1c0,0.5,0,1,0,1.5c0.2,0.1,0.3,0.1,0.5,0.2
				c0.1-0.1,0.2-0.2,0.3-0.4c0.3-0.4,0.6-0.9,0.8-1.4C71.8,16.8,71.5,16.8,71.2,16.8z M63.5,18.3c0,0,0.1,0.1,0.1,0.1
				C63.6,18.3,63.6,18.3,63.5,18.3C63.6,18.3,63.5,18.3,63.5,18.3z M67.9,17.6c0.7,0.1,1.5,0.3,2.2,0.6c0-0.4,0-0.8,0-1.2
				C69.4,17.1,68.7,17.3,67.9,17.6z M63.7,11.5c0.1-0.2,0.2-0.4,0.4-0.6c-0.1-0.1-0.1-0.2-0.2-0.3c-0.6-0.1-1.2-0.1-1.8-0.1
				c-1.8,0.1-3.6,0.8-5.2,2c0.6,0.3,1.1,0.7,1.6,1.2c0.8,0.7,1.5,1.6,2,2.5c0.9,0.5,1.8,1,2.7,1.7c0.1,0,0.2-0.1,0.3-0.1
				C62.8,15.7,62.7,13.4,63.7,11.5z M66.2,17.9C66.2,17.9,66.2,17.9,66.2,17.9C66.2,17.9,66.3,17.9,66.2,17.9
				C66.3,17.9,66.2,17.9,66.2,17.9z M66,17.3c0.1-0.3,0.2-0.6,0.3-0.9c-0.6-1.9-1.3-3.5-2.1-5c-0.1,0.1-0.1,0.2-0.2,0.4
				c-0.9,1.8-0.8,4-0.2,6c0.5-0.1,1.1-0.2,1.7-0.3c0.1,0,0.3,0,0.4,0C66,17.4,66,17.3,66,17.3z M69.4,14.3c-0.4-0.8-1.1-1.6-1.9-2.2
				c0,1.4-0.3,2.8-0.7,4.2c0.1,0.4,0.2,0.7,0.3,1.1c1-0.4,2-0.7,3-0.9C70,15.7,69.7,15,69.4,14.3z M66.4,17.4
				C66.4,17.4,66.4,17.4,66.4,17.4c0.1,0,0.2,0,0.3,0c0-0.1-0.1-0.3-0.1-0.4C66.5,17.2,66.5,17.3,66.4,17.4z M46.7,15.1
				c-0.3-0.1-0.6-0.2-0.9-0.3c-0.7,0.7-1.2,1.6-1.6,2.5c0.8-0.6,1.7-1.1,2.6-1.5C46.7,15.6,46.7,15.4,46.7,15.1z M49.2,15.4
				c0.3,0.1,0.5,0.2,0.8,0.3c1,0.4,1.9,0.7,2.8,1.1c0.3-0.6,0.7-1.3,1.2-1.9C52.3,14.8,50.7,15,49.2,15.4z M72.3,16.4
				c0.1-0.2,0.1-0.3,0.1-0.5c-1.4-2.1-3.1-3.9-5-5.5c0,0.4,0.1,0.7,0.1,1.1c1,0.7,1.7,1.5,2.3,2.5c0.4,0.7,0.6,1.5,0.7,2.3
				c0.2,0,0.5-0.1,0.7-0.1c0.1,0,0.3,0,0.4,0C71.8,16.4,72.1,16.4,72.3,16.4z M72.7,16.5C72.7,16.5,72.7,16.5,72.7,16.5
				C72.7,16.5,72.7,16.4,72.7,16.5C72.7,16.4,72.7,16.5,72.7,16.5z M54.7,14.6c1.7,0.2,3.4,0.7,5,1.4c-0.5-0.7-1-1.3-1.6-1.9
				c-0.5-0.5-1.1-0.9-1.7-1.2C55.9,13.4,55.3,13.9,54.7,14.6z M47.1,15.2c0,0.2,0,0.3,0,0.5c0.2-0.1,0.4-0.2,0.6-0.2
				C47.5,15.4,47.3,15.3,47.1,15.2z M64.7,10.8c0,0.1-0.1,0.1-0.1,0.2c0.8,1.4,1.4,2.9,2,4.7c0.3-1.3,0.5-2.5,0.5-3.8
				C66.3,11.4,65.5,11,64.7,10.8z M67.8,9.4c-0.2,0-0.4,0-0.6,0.1c0,0.1,0.1,0.3,0.1,0.4c2,1.6,3.8,3.4,5.2,5.5
				c0.3-1.4,0.1-3-0.7-4.2c-0.8-1.1-2.1-1.8-3.7-1.8C68,9.4,67.9,9.4,67.8,9.4z M54.2,14.5C54.2,14.5,54.2,14.5,54.2,14.5
				c0.6-0.7,1.2-1.3,1.9-1.9c-0.9-0.5-1.8-0.8-2.8-0.9c-1.9-0.2-3.8,0.2-5.6,1.3c-0.2,0.2-0.5,0.3-0.7,0.5c0,0.4,0,0.7,0,1.1
				c0,0,0,0,0,0.1c0.5,0.1,0.9,0.3,1.4,0.4c1.5-0.5,3.1-0.7,4.7-0.7C53.5,14.5,53.9,14.5,54.2,14.5z M46,14.5
				c0.2,0.1,0.4,0.1,0.6,0.2c0-0.2,0-0.5,0-0.7C46.4,14.1,46.2,14.3,46,14.5z M48.3,7.9c0.5-0.9,1-1.6,1.6-2.3c-1,0.2-2,0.4-2.9,0.7
				c-3.3,1-6.3,2.8-8.6,5.2c-0.6,0.6-1.1,1.3-1.6,2c0,0.2-0.1,0.3-0.1,0.5c1-0.2,2.1-0.3,3.3-0.3c1.8,0,3.6,0.3,5.7,0.8
				c0.3-0.4,0.7-0.7,1.1-1C46.8,11.5,47.3,9.6,48.3,7.9z M53.4,11.3c1.1,0.1,2.1,0.5,3.1,1c1.7-1.3,3.6-2.1,5.5-2.2c0.5,0,1,0,1.6,0
				c-0.4-0.6-0.7-1.2-1.1-1.7c-0.5-0.6-1-1.2-1.5-1.8c-1.2-0.5-2.5-0.8-3.8-1.1c-2.1-0.4-4.3-0.5-6.5-0.2c-0.7,0.8-1.4,1.6-1.9,2.6
				c-0.8,1.5-1.4,3.2-1.5,5c0.1-0.1,0.3-0.2,0.4-0.3c1.5-1,3.2-1.5,4.9-1.5C52.7,11.3,53.1,11.3,53.4,11.3z M53.3,3
				c0.3-0.2,0.7-0.3,1-0.4c-0.7-0.2-1.5-0.4-2.3-0.5c-4.9-0.5-10.2,2.2-13.2,6.7c-0.7,1-1.2,2.2-1.7,3.3c0.3-0.3,0.6-0.7,0.9-1
				c2.3-2.4,5.4-4.3,8.8-5.3c1.2-0.4,2.3-0.6,3.5-0.8C51.2,4.2,52.2,3.5,53.3,3z M66.4,9.7c-0.5,0.2-0.9,0.4-1.3,0.8
				c0.5,0.1,1,0.3,1.4,0.6c0.2,0.1,0.4,0.2,0.6,0.3c0-0.4-0.1-0.8-0.1-1.2C66.8,10,66.6,9.8,66.4,9.7z M61.9,7.1
				c0.3,0.4,0.6,0.7,0.9,1.1c0.5,0.6,0.9,1.3,1.4,2c0.1,0,0.3,0.1,0.4,0.1C65,10,65.4,9.6,66,9.4C64.7,8.5,63.3,7.7,61.9,7.1z
				 M65.6,6.4c-1.2-1.8-3.1-3.1-5.5-3.7c-1.5-0.4-3-0.4-4.4-0.1c2,0.8,3.8,2.1,5.5,3.7c1.9,0.7,3.6,1.7,5.3,2.9
				c0.1,0,0.2-0.1,0.3-0.1C66.5,8.2,66.1,7.3,65.6,6.4z M53.4,3.4c-0.8,0.4-1.6,0.9-2.4,1.6c2-0.2,4.1-0.1,6.1,0.2
				c1,0.2,2,0.5,3,0.8c-1.6-1.4-3.4-2.5-5.2-3.2C54.4,3,53.9,3.2,53.4,3.4z"/>
			<path class="st0" d="M53.7,56.8c-1.7,0-3.4-0.3-5-0.8l0,0c-3.6-1.1-7.1-3.3-10.9-6.9c-1-1-2.2-2.2-3-3.5c-0.5-0.3-1-0.6-1.4-0.9
				c-3.2-2.4-5.8-6.2-7.1-10.7c-0.7-2.3-1-4.6-0.9-6.7l-0.9,0.3c-3.4,1.2-7.9,2.6-12.2,2.8C10,30.6,7.9,30.4,6,29.9
				c-2.1-0.6-4-1.7-5.5-3.1c-0.1-0.1-0.1-0.3,0-0.5s0.3-0.1,0.5,0c1.4,1.4,3.2,2.4,5.2,3c1.8,0.5,3.8,0.7,6,0.6
				c4.3-0.2,8.7-1.6,12.1-2.8l1.2-0.4c0-0.6,0.1-1.2,0.2-1.8c0.6-3.3,2.2-6.2,4.5-8.1c1.5-1.3,3.4-2.2,5.6-2.7
				c0.2-0.3,0.3-0.5,0.5-0.8c0.5-1.7,1.2-3.2,2.1-4.6c3-4.7,8.5-7.5,13.7-6.9c1,0.1,2,0.3,2.9,0.7c1.7-0.4,3.5-0.5,5.3,0
				c2.5,0.6,4.5,2,5.8,3.9C66.6,7,67,7.9,67.2,8.9c0.2,0,0.4,0,0.5-0.1c1.9-0.1,3.5,0.6,4.5,2c0.7,1.1,1.1,2.4,0.9,3.9
				c0,0.4-0.1,0.7-0.2,1.1c0.1,0.2,0.2,0.4,0.4,0.6c1.2,0.2,2.3,0.7,3.3,1.4c1.7,1.1,2.8,2.8,3.1,4.5c0.3,2.2-0.5,4.5-2.3,6.3
				c0.2,1.7,0.2,3.5,0.1,5.2c0.7,1,1.2,2,1.6,3.1c1.7-0.8,3.1-1.8,4.7-2.8c0.6-0.4,1.2-0.8,1.8-1.2c6-3.8,12.6-6.9,19.4-9.1
				c0.2-0.1,0.4,0,0.4,0.2c0,0.1,0,0.2,0,0.3c0,0.1-0.1,0.1-0.2,0.2c-6.8,2.2-13.2,5.2-19.2,9.1c-0.6,0.4-1.2,0.8-1.8,1.2
				c-1.6,1.1-3.2,2.1-4.9,2.9c0.1,0.2,0.1,0.5,0.1,0.7c0.3,2.1,0,4.3-1,6.4c-1,2-2.5,3.7-4.4,4.7c-1.1,0.6-2.3,1.1-3.6,1.3l0,0
				c-1.9,1.8-4.1,3.3-6.6,4.2c-1.7,0.6-3.5,1-5.2,1.1C57,56.6,55.4,56.8,53.7,56.8z M25.7,27l0,0.2c-0.1,2.2,0.2,4.4,0.9,6.8
				c1.3,4.5,3.8,8.2,7,10.6c0.4,0.3,0.9,0.6,1.4,0.9l0,0l0,0c0.7,1.4,1.9,2.5,2.9,3.5c3.8,3.6,7.3,5.7,10.9,6.8l0,0
				c1.6,0.5,3.3,0.8,5,0.8c1.7,0,3.2-0.3,4.7-0.8l0,0c1.7-0.1,3.5-0.4,5.2-1.1c2.4-0.9,4.6-2.3,6.5-4.2l0.1-0.1l0,0
				c1.3-0.2,2.5-0.7,3.6-1.3c1.8-1,3.3-2.7,4.3-4.6c1-2,1.3-4.2,1-6.2c0-0.2-0.1-0.5-0.1-0.8l0-0.1l0.1,0c1.8-0.8,3.3-1.8,5-2.9
				c0.6-0.4,1.2-0.8,1.8-1.2c6-3.8,12.5-6.9,19.3-9.1c0,0,0,0,0.1,0c0,0,0,0,0-0.1c0,0-0.1-0.1-0.1-0.1c-6.8,2.2-13.3,5.3-19.3,9.1
				c-0.6,0.4-1.2,0.8-1.8,1.2c-1.6,1.1-3.1,2.1-4.9,2.9l-0.1,0.1l0-0.1C78.5,36,78,35,77.2,34l0,0l0,0c0.1-1.7,0.1-3.5-0.1-5.2
				l0-0.1l0,0c1.8-1.7,2.6-4.1,2.3-6.2c-0.3-1.7-1.3-3.3-3-4.4c-1-0.6-2.1-1.1-3.2-1.3l-0.1,0l0,0c-0.1-0.2-0.3-0.4-0.4-0.7l0,0
				l0-0.1c0.1-0.4,0.2-0.7,0.2-1.1c0.1-1.4-0.2-2.7-0.9-3.7c-0.9-1.3-2.5-2-4.2-1.9c-0.2,0-0.4,0-0.6,0.1l-0.1,0l0-0.1
				c-0.3-1-0.7-2-1.2-2.8c-1.2-1.9-3.2-3.3-5.6-3.8C58.5,2,56.7,2,55,2.5l0,0l0,0C54,2.1,53,1.9,52,1.8C47,1.3,41.6,4,38.6,8.7
				c-0.9,1.4-1.6,2.9-2.1,4.6l0,0c-0.2,0.3-0.4,0.6-0.6,0.8l0,0l-0.1,0c-2.1,0.5-4,1.4-5.5,2.7c-2.3,1.9-3.8,4.7-4.4,7.9
				c-0.1,0.6-0.2,1.2-0.2,1.9l0,0.1l-1.3,0.5c-3.4,1.2-7.8,2.6-12.1,2.8C10,30.2,7.9,30,6.1,29.5c-2-0.6-3.8-1.6-5.3-3
				c0,0-0.1,0-0.1,0s0,0.1,0,0.1C2.2,28,4,29,6.1,29.6c1.8,0.5,3.9,0.7,6.2,0.6c4.3-0.2,8.8-1.6,12.2-2.8L25.7,27z M53.7,56.4
				c-1.6,0-3.3-0.3-4.9-0.8c-3.6-1.1-7-3.3-10.8-6.8c-0.9-0.8-1.8-1.8-2.6-2.9l-0.2-0.4l0.4,0.2c2,1,4.2,1.4,6.3,1.4
				c0.4,0,0.8,0,1.1-0.1l0.1,0l0,0.1c1,1.4,2,2.6,3.1,3.7c2.8,2.7,6.3,4.4,9.8,4.9l0,0c0.3,0,0.6,0.1,0.9,0.1l0.9,0.1L57,56
				C55.9,56.3,54.8,56.4,53.7,56.4z M35.9,46.2c0.7,0.9,1.5,1.8,2.3,2.5c3.8,3.5,7.2,5.6,10.7,6.7c2.4,0.7,4.9,0.9,7.2,0.6
				c0,0,0,0,0,0l0,0c-3.5-0.4-7-2.2-9.9-4.9C45,50,43.9,48.7,43,47.4c-0.4,0-0.7,0.1-1.1,0.1C39.9,47.5,37.8,47,35.9,46.2z
				 M57.8,55.6c-0.6,0-1.2,0-1.8-0.1c-3.4-0.4-6.9-2.1-9.7-4.8c-1.1-1-2.1-2.2-3-3.5l-0.1-0.2l0.2,0c1.5-0.2,2.8-0.7,4-1.4l0.1,0
				l0.1,0c1.2,0.6,2.4,1.1,3.8,1.4c2.5,0.6,5.2,0.5,7.6-0.3c0.1,0,0.2-0.1,0.3-0.1l0.1,0l0.1,0.1c0.7,0.8,1.4,1.4,2.3,2
				c0.9,0.6,2,1.1,3.1,1.5l0.2,0l-0.1,0.1c-1,1.6-2.3,2.9-3.7,3.9l0,0c-0.8,0.6-1.7,1-2.7,1.3l0,0C58.2,55.6,58,55.6,57.8,55.6z
				 M43.7,47.3c0.9,1.2,1.8,2.3,2.8,3.3c2.8,2.6,6.2,4.3,9.5,4.7c0.7,0.1,1.5,0.1,2.2,0.1c0.9-0.3,1.8-0.8,2.6-1.3l0,0
				c1.4-0.9,2.5-2.2,3.5-3.7c-1.1-0.3-2.1-0.8-3-1.5c-0.8-0.6-1.6-1.2-2.3-2c-0.1,0-0.1,0-0.2,0.1c-2.4,0.8-5.1,0.9-7.7,0.3
				c-1.3-0.3-2.6-0.8-3.8-1.4C46.4,46.6,45.1,47,43.7,47.3z M59,55.6l0.7-0.3c0.5-0.3,1-0.5,1.5-0.9c1.5-1,2.8-2.4,3.8-4.1l0-0.1
				l0.1,0c1.4,0.4,2.9,0.5,4.3,0.3l0.4,0l-0.3,0.3c-1.7,1.6-3.8,2.9-6,3.7c-1.2,0.5-2.5,0.8-3.8,0.9L59,55.6z M65.2,50.6
				c-1.1,1.7-2.4,3.1-3.8,4.1c-0.3,0.2-0.6,0.4-0.9,0.5c1-0.2,2-0.5,3-0.8c2-0.8,4-2,5.7-3.4C67.8,51,66.5,50.9,65.2,50.6z
				 M68.2,50.5c-1,0-1.9-0.1-2.9-0.3l-0.2,0l0.1-0.1c0.3-0.4,0.5-0.9,0.7-1.4c0.4-0.8,0.7-1.7,1-2.6l0,0l0,0
				c1.9-1.2,3.3-3.1,3.9-5.1c0.2-0.5,0.3-1.1,0.4-1.6l0-0.1l0.1,0c1.6-0.1,3.1-0.3,4.7-0.7l0.2-0.1l0,0.2c-0.5,2-1.1,3.9-2,5.6
				l-0.1-0.1l0.1,0.1c-1.1,2.3-2.5,4.4-4.2,6.1l0,0l0,0C69.4,50.4,68.8,50.5,68.2,50.5z M65.5,49.9c1.4,0.3,3,0.4,4.4,0.2
				c1.7-1.7,3.1-3.7,4.2-6c0.8-1.7,1.5-3.5,1.9-5.4c-1.5,0.4-3,0.6-4.4,0.7c-0.1,0.5-0.2,1.1-0.4,1.6c-0.6,2-2.1,4-4,5.2
				c-0.3,0.9-0.6,1.8-1,2.6C66,49.1,65.8,49.6,65.5,49.9z M70.4,50.3l0.3-0.3c1.5-1.6,2.8-3.5,3.8-5.7c0.9-1.8,1.6-3.8,2-5.9l0-0.1
				l0.1,0c0.3-0.1,0.5-0.2,0.8-0.2c0.4-0.1,0.8-0.3,1.2-0.5l0.1-0.1l0,0.1c0.1,0.2,0.1,0.4,0.1,0.7c0.3,2,0,4.2-1,6.1
				c-0.9,1.9-2.4,3.5-4.2,4.6c-0.9,0.5-1.9,0.9-2.9,1.1L70.4,50.3z M76.8,38.5c-0.5,2.1-1.2,4.1-2,5.9c-1,2-2.2,3.9-3.6,5.4
				c0.9-0.2,1.7-0.6,2.5-1c1.7-1,3.2-2.6,4.1-4.5c0.9-1.9,1.3-4,1-6c0-0.2-0.1-0.3-0.1-0.5c-0.4,0.1-0.7,0.3-1.1,0.4v0
				C77.2,38.4,77,38.5,76.8,38.5z M65,50.1L65,50.1c-1.2-0.4-2.3-0.9-3.3-1.5c-0.8-0.5-1.5-1.1-2.1-1.8l-0.1-0.1l0.2-0.1
				c0.2-0.1,0.4-0.1,0.5-0.2l0.1,0l0.1,0c1.9,1.1,3.8,0.9,5.1,0.5l0,0.1l0-0.1c0.4-0.1,0.8-0.3,1.1-0.5l0.3-0.1l-0.1,0.3
				c-0.3,0.7-0.5,1.4-0.9,2.1C65.6,49,65.3,49.5,65,50.1L65,50.1z M59.9,46.7c0.6,0.6,1.2,1.2,1.9,1.7c0.9,0.6,1.9,1.1,3,1.4
				c0.3-0.4,0.5-0.9,0.7-1.4c0.3-0.6,0.5-1.1,0.7-1.8c-0.3,0.1-0.6,0.3-0.9,0.4c-1.3,0.4-3.2,0.7-5.2-0.4
				C60.1,46.6,60,46.6,59.9,46.7z M54.6,47.2c-1.1,0-2.2-0.1-3.2-0.4c-1.2-0.3-2.4-0.7-3.5-1.3l-0.2-0.1l0.2-0.1
				c0.7-0.5,1.4-1,1.9-1.7c0.2-0.3,0.5-0.5,0.7-0.8l0.1-0.1l0.1,0c0.3,0.1,0.6,0.3,0.9,0.4c2,0.9,4.1,1.2,6.1,1l0.1,0l0,0.1
				c0.4,0.7,0.8,1.4,1.3,2l0.1,0.1l-0.3,0.1C57.5,47,56.1,47.2,54.6,47.2z M48.2,45.5c1,0.5,2.1,0.9,3.2,1.1c2.4,0.5,5,0.5,7.3-0.3
				c-0.4-0.6-0.8-1.2-1.2-1.8c-2,0.2-4.1-0.2-6.1-1.1c-0.3-0.1-0.5-0.2-0.8-0.4c-0.2,0.3-0.4,0.5-0.6,0.8
				C49.5,44.5,48.9,45,48.2,45.5z M41.7,47c-2.2,0-4.6-0.6-6.6-1.7l0,0l0,0c-0.2-0.4-0.3-0.8-0.4-1.1c-0.5-1.8,0-4.2,1.8-5
				c0.7-0.4,1.7-0.4,2.7-0.2l0.1,0l0,0.1c0.3,0.9,0.6,1.8,1,2.7l0,0c0.8,1.9,1.7,3.6,2.7,5.1l0.1,0.2l-0.2,0c-0.3,0-0.6,0-0.9,0
				C41.8,47,41.8,47,41.7,47z M35.3,45.1c2,1.1,4.4,1.7,6.6,1.6c0.2,0,0.4,0,0.7,0c-1-1.5-1.9-3.1-2.6-4.9l0,0
				c-0.4-0.9-0.7-1.7-1-2.6c-0.9-0.2-1.7-0.2-2.4,0.2c-1.7,0.8-2.2,3-1.7,4.7C35,44.4,35.1,44.8,35.3,45.1z M63.2,46.9
				c-0.8,0-1.7-0.2-2.6-0.6l-0.2-0.1l0.2-0.1c1.7-0.8,3.3-1.9,4.7-3.3c1.1-1.1,1.9-2.3,2.7-3.7l0-0.1l0.3,0l0,0.1
				c-0.1,0.7-0.2,1.3-0.3,2v0c-0.3,1.7-0.7,3.3-1.1,4.7l0,0l0,0c-0.5,0.3-1,0.5-1.5,0.7C64.7,46.8,64,46.9,63.2,46.9z M61,46.2
				c1.6,0.8,3.2,0.5,4.2,0.2c0.5-0.2,1-0.4,1.4-0.7c0.5-1.4,0.8-2.9,1.1-4.6c0.1-0.5,0.2-1,0.2-1.5c-0.7,1.2-1.5,2.4-2.5,3.4
				C64.2,44.3,62.7,45.4,61,46.2z M43.2,46.9L43.2,46.9c-1.1-1.6-2-3.4-2.9-5.3c-0.3-0.8-0.6-1.6-0.9-2.3L39.3,39l0.2,0.1
				c0.5,0.2,1,0.5,1.5,0.8c0.8,0.6,1.6,1.4,2.3,2.2c0.4,0.4,0.9,0.9,1.3,1.4l0,0c0.7,0.7,1.6,1.3,2.5,1.9l0.2,0.1l-0.2,0.1
				C46,46.3,44.7,46.7,43.2,46.9L43.2,46.9z M39.7,39.5c0.2,0.7,0.5,1.4,0.8,2.1c0.8,1.9,1.7,3.6,2.8,5.1c1.3-0.2,2.5-0.6,3.6-1.1
				c-0.9-0.5-1.6-1.1-2.3-1.8l0,0c-0.5-0.5-1-1-1.4-1.4c-0.7-0.8-1.4-1.5-2.2-2.1C40.5,39.9,40.1,39.6,39.7,39.5z M59.3,46.4
				L59.3,46.4c-0.5-0.7-1-1.3-1.4-2l-0.1-0.2l0.3,0l0.1,0.1c0.4,0.7,0.9,1.2,1.6,1.7l0,0l0.3,0.2l-0.2,0.1
				C59.7,46.3,59.6,46.4,59.3,46.4L59.3,46.4z M59.2,45.8c0.1,0.1,0.2,0.2,0.2,0.3c0,0,0.1,0,0.1,0C59.4,46,59.3,45.9,59.2,45.8z
				 M60.2,46.1L60.2,46.1c-0.2-0.1-0.3-0.2-0.4-0.2c-0.5-0.4-1-0.9-1.4-1.5l-0.1-0.2l0.2,0c0.8-0.1,1.5-0.4,2.2-0.7
				c2-0.9,3.8-2.7,4.8-4.9l0-0.1l0.1,0c0.6,0.2,1.3,0.3,1.9,0.4l0.2,0l-0.1,0.2c-0.7,1.3-1.5,2.5-2.6,3.5
				C63.8,44.1,62.1,45.3,60.2,46.1L60.2,46.1z M58.8,44.4c0.4,0.5,0.8,0.9,1.2,1.2c0.1,0.1,0.2,0.1,0.3,0.2c1.7-0.8,3.4-1.9,4.7-3.3
				c1-1,1.8-2.1,2.4-3.3c-0.6-0.1-1.1-0.2-1.7-0.4c-1.1,2.3-2.8,4-4.9,5C60.2,44,59.5,44.2,58.8,44.4z M67.1,45.7l0.1-0.4
				c0.4-1.3,0.7-2.7,1-4.2c0.1-0.7,0.2-1.3,0.3-2l0-0.1l0.1,0c0.8,0.1,1.6,0.1,2.4,0.1l0.1,0l0,0.1c-0.1,0.5-0.2,1-0.3,1.5
				c-0.6,1.8-1.8,3.5-3.4,4.7L67.1,45.7z M68.7,39.3c-0.1,0.6-0.2,1.3-0.3,1.9c-0.2,1.4-0.5,2.7-0.9,3.9c1.4-1.1,2.5-2.7,3-4.3
				c0.1-0.4,0.2-0.9,0.3-1.4C70.2,39.4,69.4,39.4,68.7,39.3z M47.5,45.4L47.5,45.4c-1-0.6-1.9-1.2-2.7-2c-0.5-0.4-0.9-0.9-1.3-1.4
				c-0.7-0.8-1.4-1.6-2.3-2.2c-0.6-0.4-1.2-0.8-1.9-1l-0.1,0l0-0.1c-0.7-2.2-1.1-4.4-1.3-6.5l0-0.3l0.2,0.2c0.9,0.7,1.8,1.2,2.8,1.6
				l0,0l0,0c0.9,1.2,1.9,2.5,3,3.7l0,0c2.2,2.4,4.1,4,6.2,5.1l0.1,0.1l-0.1,0.1c-0.2,0.3-0.4,0.5-0.6,0.8
				C49.1,44.3,48.4,44.9,47.5,45.4L47.5,45.4z M39.5,38.6c0.7,0.2,1.3,0.6,1.9,1c0.9,0.6,1.6,1.5,2.3,2.2c0.4,0.5,0.9,1,1.3,1.4
				c0.8,0.7,1.6,1.4,2.6,1.9c0.7-0.5,1.4-1,2-1.7c0.2-0.2,0.4-0.4,0.5-0.6c-2.1-1.1-4-2.7-6.2-5.1l0,0c-1.1-1.2-2.1-2.4-3-3.7
				c-0.9-0.4-1.8-0.9-2.6-1.5C38.4,34.5,38.8,36.6,39.5,38.6z M34.8,45.2L34.5,45c-0.3-0.2-0.6-0.4-0.8-0.6c-3.2-2.3-5.6-6-6.9-10.5
				c-0.7-2.4-1-4.7-0.9-6.9l0-0.1l0.1,0c2.3-0.8,5-1.7,7.6-2.2l0.1,0l0,0.1c0,0.2,0.1,0.4,0.1,0.6c0.6,2.5,2,4.7,3.9,6.4l0,0l0,0.1
				c0.1,2.1,0.5,4.4,1.2,6.6l0.1,0.2l-0.2,0c-0.9-0.2-1.8-0.1-2.5,0.2c-1.9,0.9-2.4,3.4-1.9,5.2c0.1,0.2,0.1,0.4,0.2,0.6L34.8,45.2z
				 M26.1,27.1c-0.1,2.1,0.2,4.4,0.9,6.8c1.3,4.4,3.7,8.1,6.8,10.3c0.2,0.1,0.3,0.2,0.5,0.4c0-0.1-0.1-0.2-0.1-0.3
				c-0.6-2,0-4.6,2-5.5c0.7-0.4,1.6-0.5,2.5-0.3c-0.7-2.2-1.1-4.4-1.2-6.4c-2-1.7-3.4-4-4-6.5c0-0.2-0.1-0.4-0.1-0.5
				C30.9,25.5,28.3,26.3,26.1,27.1z M58.2,44.1l0-0.3l0.1,0c1.1-0.2,2.2-0.6,3.1-1.2c1.5-1,2.8-2.4,3.7-4.1l0-0.1l0.3,0.1l-0.1,0.1
				c-1,2.2-2.7,3.9-4.7,4.8c-0.7,0.3-1.5,0.6-2.3,0.7L58.2,44.1z M56.3,43.8c-0.5,0-0.9,0-1.4-0.1c-1.4-0.2-2.7-0.6-3.9-1.3
				l-0.1-0.1l0.1-0.1c1-1.6,1.5-3.6,1.5-5.6v-0.1l0.1,0c0.2-0.1,0.4-0.2,0.6-0.3c0.9-0.5,1.8-1.2,2.6-1.9l0.1-0.1l0.1,0.1
				c0.2,0.2,0.4,0.4,0.7,0.6l0.1,0l0,0.1c-0.2,0.9-0.4,1.8-0.4,2.7l0,0c-0.1,2,0.3,4,1.1,5.9l0.1,0.2l-0.2,0
				C56.9,43.8,56.6,43.8,56.3,43.8z M51.2,42.2c1.1,0.6,2.3,1.1,3.7,1.2c0.7,0.1,1.4,0.1,2.2,0.1c-0.8-1.9-1.2-3.9-1.1-5.9l0,0
				c0-0.9,0.2-1.8,0.4-2.7c-0.2-0.1-0.4-0.3-0.5-0.5c-0.8,0.7-1.7,1.4-2.6,1.9c-0.2,0.1-0.4,0.2-0.6,0.3
				C52.6,38.7,52.1,40.6,51.2,42.2z M58.1,43.7L58.1,43.7c-1-2-1.1-4.3-0.3-6.6c0.1-0.3,0.2-0.7,0.4-1l0.1-0.1l0.1,0.1
				c1.8,1.1,3.8,1.7,5.8,1.9l0,0c0.2,0.1,0.4,0.2,0.7,0.3l0.1,0l-0.1,0.1c-0.8,1.7-2.1,3.1-3.6,4C60.4,43,59.3,43.4,58.1,43.7
				L58.1,43.7z M58.3,36.3c-0.1,0.3-0.2,0.6-0.3,0.8c-0.8,2.2-0.7,4.4,0.2,6.2c1.1-0.2,2.1-0.6,3-1.2c1.4-0.9,2.6-2.2,3.4-3.8
				c-0.2-0.1-0.4-0.1-0.5-0.2C62.1,38,60.1,37.3,58.3,36.3z M57.5,43.5c-0.8-1.8-1.2-3.8-1.1-5.8c0-0.8,0.2-1.7,0.4-2.5l0-0.2
				l0.2,0.1c0.3,0.2,0.7,0.5,1,0.7l0.1,0.1l0,0.1c-0.2,0.3-0.3,0.7-0.4,1c-0.5,1.6-0.7,3.3-0.3,4.9c0.1,0.5,0.3,1,0.4,1.4L57.5,43.5
				z M56.9,35.4c-0.2,0.8-0.3,1.5-0.3,2.3c-0.1,1,0,1.9,0.2,2.9c-0.1-1.2,0.1-2.5,0.5-3.6c0.1-0.3,0.2-0.7,0.4-1
				C57.5,35.8,57.2,35.6,56.9,35.4z M50.5,42.6l-0.1-0.1c-2.1-1.1-4.1-2.7-6.2-5.1c-0.3-0.4-0.7-0.7-1-1.1l-0.7-0.8l0.9,0.6
				c0.3,0.2,0.5,0.4,0.8,0.5c0.9,0.5,1.7,0.8,2.7,0.9l0.1,0l0,0.1c0.4,1.2,1.1,2.3,1.9,3.2c0.5,0.5,1.1,1,1.7,1.4l0.1,0.1L50.5,42.6
				L50.5,42.6z M44,36.8c0.1,0.1,0.3,0.3,0.4,0.4c1.6,1.8,3.1,3.1,4.7,4.1c-0.1-0.1-0.2-0.2-0.4-0.4l0,0c-0.8-0.9-1.5-2-1.9-3.2
				c-0.9-0.2-1.8-0.5-2.7-0.9C44,36.9,44,36.9,44,36.8z M50.7,42.2l-0.1-0.1c-0.6-0.4-1.2-0.9-1.6-1.4c-0.8-0.8-1.4-1.8-1.8-2.9
				l-0.1-0.2l0.2,0c1.5,0.1,3.1-0.1,4.7-0.9l0.2-0.1l0,0.2c0,1.9-0.5,3.7-1.4,5.2L50.7,42.2z M47.5,37.9c0.4,1,1,1.9,1.7,2.7
				c0.4,0.5,0.9,0.9,1.5,1.3c0.8-1.4,1.3-3.1,1.3-4.8C50.5,37.7,49,38,47.5,37.9z M70.7,39c-0.7,0-1.4,0-2.1-0.1l-0.1,0l0-0.1
				c0-0.4,0.1-0.7,0.1-1.1l0-0.1l0.1,0c0.8-0.2,1.6-0.5,2.3-0.9l0.2-0.1l0,0.2c0,0.7,0,1.5-0.1,2.1l0,0.1l-0.1,0
				C71,39,70.9,39,70.7,39z M68.8,38.7c0.7,0.1,1.4,0.1,2.2,0.1C71,38.2,71,37.6,71,37c-0.7,0.3-1.4,0.6-2.1,0.8
				C68.9,38.1,68.8,38.4,68.8,38.7z M71.4,39l0-0.1c0.1-0.7,0.1-1.5,0-2.3l0-0.1l0.1,0c0.3-0.2,0.7-0.4,1-0.6c1.1-0.9,2.1-2,2.8-3.4
				l0.1-0.1l0.1,0.1c0.6,0.5,1.1,1,1.5,1.6l0,0l0,0c-0.1,1-0.2,1.9-0.4,2.9l0,0c-0.1,0.4-0.1,0.8-0.2,1.2l0,0.1l-0.1,0
				c-1.6,0.4-3.2,0.7-4.8,0.8L71.4,39z M71.7,36.6c0,0.7,0,1.5,0,2.1c1.5-0.1,3-0.3,4.5-0.7c0.1-0.4,0.2-0.7,0.2-1.1l0,0
				c0.2-0.9,0.3-1.9,0.4-2.8c-0.4-0.5-0.9-1-1.3-1.4c-0.7,1.3-1.7,2.5-2.8,3.3C72.3,36.2,72,36.4,71.7,36.6z M67.9,38.8L67.9,38.8
				c-0.7-0.1-1.4-0.3-2-0.4l-0.1,0l0.1-0.3l0.1,0c0.8,0,1.5-0.1,2.3-0.3l0.2-0.1l-0.1,0.2C68.2,38.2,68.1,38.4,67.9,38.8L67.9,38.8z
				 M66.3,38.2c0.5,0.1,1,0.2,1.4,0.3c0.1-0.2,0.2-0.3,0.2-0.5C67.4,38.1,66.9,38.2,66.3,38.2z M76.6,38.2l0-0.2
				c0.1-0.3,0.1-0.6,0.2-1c0.1-0.8,0.3-1.6,0.3-2.4l0-0.3l0.2,0.3c0.6,0.9,1,1.8,1.3,2.8l0,0.1l-0.1,0c-0.4,0.2-0.8,0.3-1.3,0.5
				C77.2,38,77,38,76.8,38.1L76.6,38.2z M77.4,34.9c-0.1,0.7-0.2,1.4-0.3,2.1c0,0.3-0.1,0.5-0.1,0.8c0.1,0,0.2-0.1,0.3-0.1
				c0.4-0.1,0.8-0.3,1.1-0.4C78.2,36.5,77.8,35.7,77.4,34.9z M65.5,37.8h-0.2l0.1-0.2c0.5-1.3,0.8-2.7,0.9-4.1l0.2,0
				c0,1.4-0.3,2.8-0.8,4.2l0,0.1L65.5,37.8z M65.2,37.8L65.2,37.8c-0.3,0-0.5,0-0.7,0l-0.3,0c-1.9-0.8-3.7-2-5-3.4l-0.1-0.1l0.1-0.1
				c0.5-0.8,1.1-1.6,1.9-2.4l0,0l0,0c0.5-0.1,1-0.3,1.5-0.4l0.9-0.3l0,0c0.8,0.1,1.6,0.3,2.4,0.3l0.1,0l0,0.1c0.3,2,0,4.1-0.7,6
				C65.3,37.6,65.2,37.6,65.2,37.8L65.2,37.8z M64.2,37.5l0.2,0c0.2,0,0.4,0,0.6,0c0-0.1,0-0.1,0.1-0.2c0.7-1.8,1-3.8,0.7-5.7
				c-0.8-0.1-1.5-0.2-2.3-0.3l-0.8,0.2c-0.5,0.1-1,0.3-1.5,0.4c-0.7,0.8-1.3,1.6-1.8,2.3C60.7,35.6,62.4,36.7,64.2,37.5z M65.9,37.8
				l0.1-0.2c0.5-1.5,0.8-3.1,0.7-4.6c0-0.5-0.1-0.9-0.1-1.4l0-0.2l0.2,0c0.7,0,1.3,0.1,1.9,0.1l0.1,0l0,0.1c0,1.9-0.1,3.8-0.3,5.7
				l0,0.1l-0.1,0c-0.7,0.2-1.5,0.3-2.3,0.3L65.9,37.8z M66.8,31.7c0.1,0.4,0.1,0.8,0.1,1.3c0.1,1.5-0.2,3.1-0.7,4.6
				c0.7,0,1.3-0.1,2-0.3c0.2-1.8,0.3-3.6,0.3-5.5c0,0,0,0-0.1,0C67.9,31.8,67.4,31.8,66.8,31.7z M63.6,37.7l-0.9-0.2
				c-1.5-0.3-3-0.9-4.4-1.7l-0.1-0.1l0.1-0.1c0.2-0.4,0.4-0.7,0.6-1.1l0.1-0.1l0.1,0.1c1,1.1,2.3,2,3.7,2.7L63.6,37.7z M58.6,35.7
				c1.1,0.6,2.2,1.1,3.3,1.4c-1.1-0.6-2-1.4-2.8-2.2C58.9,35.1,58.7,35.4,58.6,35.7z M48.1,37.5c-0.3,0-0.6,0-1-0.1l-0.1,0l0-0.1
				c-0.3-0.9-0.5-1.9-0.5-2.9l0-0.1l0.1,0c1.5-0.3,3-1,4.6-1.9l0.1-0.1l0.1,0.1c0.1,0.3,0.2,0.6,0.3,0.8l0,0c0.3,1,0.5,2,0.5,3.1
				l0,0.1l-0.1,0C50.8,37.2,49.4,37.5,48.1,37.5z M47.2,37.2c1.5,0.2,3.1-0.1,4.7-0.9c0-1-0.2-2-0.5-2.9c-0.1-0.2-0.2-0.5-0.2-0.7
				c-1.5,0.9-3,1.6-4.4,1.9C46.8,35.5,47,36.3,47.2,37.2z M46.9,37.4l-0.2,0c-0.8-0.1-1.6-0.4-2.4-0.8c-0.9-0.5-1.8-1.2-2.5-2.2
				l-0.2-0.3l0.4,0.1c1,0.3,1.9,0.4,2.9,0.4c0.5,0,0.9-0.1,1.4-0.1l0.1,0l0,0.1c0,0.9,0.2,1.8,0.4,2.7L46.9,37.4z M42.2,34.5
				c0.6,0.8,1.3,1.4,2.1,1.8c0.7,0.4,1.4,0.6,2.1,0.8c-0.2-0.8-0.3-1.6-0.4-2.4c-0.4,0.1-0.8,0.1-1.3,0.1h0
				C44,34.8,43.1,34.7,42.2,34.5z M68.7,37.4l0.1-0.2c0.1-0.3,0.2-0.6,0.3-0.9c0.4-1.5,0.6-3,0.6-4.6l0-0.1l0.4,0l0,0.1
				c0.6,1.6,1,3.2,1.1,4.7l0,0.1l-0.1,0c-0.7,0.4-1.4,0.7-2.2,0.9L68.7,37.4z M70,31.9c0,1.5-0.2,3-0.6,4.4
				c-0.1,0.2-0.2,0.5-0.2,0.7c0.6-0.2,1.3-0.5,1.9-0.8C70.8,34.8,70.5,33.4,70,31.9z M52.4,36.4l0-0.2c0-1-0.2-2-0.5-3
				c-0.1-0.3-0.2-0.6-0.3-0.9l0-0.1l0.2-0.2l0.1,0c0.8,0.2,1.6,0.4,2.4,0.5l0.1,0l0,0c0.4,0.5,0.8,0.9,1.3,1.4l0.1,0.1l-0.1,0.1
				c-0.8,0.7-1.7,1.4-2.6,1.9c-0.1,0.1-0.3,0.2-0.4,0.2L52.4,36.4z M51.8,32.3c0.1,0.3,0.2,0.5,0.3,0.8c0.3,0.9,0.5,1.9,0.5,2.8
				c0.1,0,0.2-0.1,0.3-0.1c0.8-0.5,1.6-1.1,2.4-1.8c-0.4-0.4-0.8-0.8-1.2-1.3C53.3,32.7,52.6,32.6,51.8,32.3z M71.4,36.3l0-0.2
				c-0.1-1.4-0.5-2.9-1-4.5l-0.1-0.1l0.2,0c1-0.1,1.9-0.3,2.7-0.5l0,0l0,0c0.7,0.3,1.3,0.7,1.9,1.2l0.1,0.1l0,0.1
				c-0.7,1.4-1.7,2.5-2.8,3.4c-0.2,0.2-0.5,0.4-0.8,0.5L71.4,36.3z M70.6,31.7c0.5,1.4,0.8,2.8,1,4.2c0.2-0.1,0.4-0.3,0.6-0.4
				c1.1-0.8,2-1.9,2.7-3.2c-0.5-0.4-1.1-0.8-1.7-1.1C72.4,31.4,71.5,31.6,70.6,31.7z M69.1,35.7l-0.2,0c0.1-1.3,0.1-2.7,0.1-4l0-0.1
				l0.1,0c0.1,0,0.2,0,0.4,0l0.1,0l0,0.1C69.6,33,69.4,34.4,69.1,35.7z M69.2,31.8c0,0.7,0,1.5,0,2.2c0.1-0.7,0.2-1.5,0.2-2.2
				C69.3,31.8,69.2,31.8,69.2,31.8z M58.1,35.7L58,35.6c-0.4-0.2-0.7-0.5-1.1-0.8l-0.1-0.1l0-0.1c0.2-0.6,0.4-1.3,0.6-1.9l0.1-0.2
				l0.1,0.2c0.1,0.2,0.2,0.3,0.3,0.5c0.2,0.3,0.5,0.7,0.8,1l0.1,0.1l0,0.1c-0.2,0.4-0.5,0.8-0.7,1.2L58.1,35.7z M57.1,34.7
				c0.3,0.2,0.6,0.4,0.9,0.6c0.2-0.3,0.4-0.7,0.6-1c-0.3-0.3-0.5-0.6-0.8-1l0,0c-0.1-0.1-0.1-0.2-0.2-0.3
				C57.4,33.7,57.3,34.2,57.1,34.7z M56.7,34.7l-0.1-0.1c-0.2-0.1-0.3-0.3-0.5-0.4l-0.1-0.1L56,34c0.3-0.3,0.6-0.6,0.9-0.9l0.4-0.4
				l-0.2,0.6c-0.2,0.4-0.3,0.9-0.4,1.3L56.7,34.7z M56.3,34.1c0.1,0.1,0.2,0.1,0.2,0.2c0.1-0.2,0.1-0.4,0.2-0.6
				C56.6,33.8,56.5,33.9,56.3,34.1z M44.6,34.4c-1,0-2.1-0.2-3.1-0.5l0,0l0,0c-0.2-0.4-0.4-0.8-0.6-1.2c-0.7-1.7-0.9-3.6-0.4-5.3
				c0.2-0.9,0.6-1.8,1.1-2.6l0-0.1l0.1,0c0.8,0.2,1.6,0.4,2.3,0.7l0,0l0,0c0.5,1.3,1.3,2.4,2.2,3.4c0.3,0.3,0.7,0.7,1,1l0.1,0.1
				l0,0.1c-0.5,1.1-0.8,2.3-0.9,3.5l0,0c0,0.2,0,0.5,0,0.7l0,0.1l-0.1,0c-0.5,0.1-0.9,0.1-1.4,0.1C44.8,34.4,44.7,34.4,44.6,34.4z
				 M41.6,33.6c1.1,0.4,2.2,0.5,3.2,0.5c0.4,0,0.8-0.1,1.3-0.1c0-0.2,0-0.4,0-0.6l0,0c0.1-1.2,0.4-2.4,0.9-3.5
				c-0.3-0.3-0.7-0.6-1-0.9c-0.9-1-1.7-2.2-2.3-3.5c-0.7-0.3-1.4-0.5-2.2-0.7c-0.5,0.8-0.8,1.6-1,2.5c-0.4,1.7-0.3,3.5,0.4,5.2
				C41.2,32.9,41.4,33.2,41.6,33.6z M46.5,34.2l0-0.2c0-0.2,0-0.4,0-0.6c0.1-1.2,0.4-2.3,0.8-3.4l0.1-0.1l0.1,0.1
				c1,0.8,2.2,1.4,3.5,1.9l0,0l0.1,0.3l-0.1,0.1c-1.5,1-3,1.6-4.5,1.9L46.5,34.2z M47.6,30.3c-0.4,1-0.7,2-0.8,3.1
				c0,0.1,0,0.3,0,0.4c1.4-0.3,2.7-0.9,4.1-1.8C49.7,31.6,48.6,31,47.6,30.3z M59,34.2L58.9,34c-0.3-0.3-0.5-0.6-0.7-0.9
				c-0.1-0.2-0.2-0.3-0.3-0.5l-0.1-0.2l0.2,0c0.7-0.1,1.5-0.3,2.4-0.5l0.4-0.1l-0.3,0.3c-0.6,0.6-1,1.3-1.4,1.9L59,34.2z M58.2,32.7
				c0.1,0.1,0.1,0.2,0.2,0.3c0.2,0.3,0.4,0.5,0.6,0.8c0.3-0.5,0.7-1,1.1-1.5C59.4,32.5,58.8,32.6,58.2,32.7z M55.8,34L55.8,34
				c-0.4-0.4-0.8-0.8-1.1-1.1l-0.2-0.2l0.3,0c0.7,0,1.4,0,2,0l0.3,0L57,32.8C56.6,33.2,56.2,33.6,55.8,34L55.8,34z M55.1,32.9
				c0.2,0.3,0.5,0.5,0.7,0.7c0.2-0.2,0.5-0.5,0.7-0.7C56.1,32.9,55.6,32.9,55.1,32.9z M77,33.7l-0.2-0.2c-0.2-0.2-0.4-0.5-0.7-0.7
				c-0.2-0.2-0.4-0.4-0.7-0.6l-0.1-0.1l0-0.1c0.2-0.5,0.4-1,0.6-1.5c0.1-0.4,0.2-0.7,0.3-1.1l0,0l0,0c0.2-0.1,0.3-0.2,0.5-0.4
				l0.2-0.2l0,0.2c0.1,1.5,0.1,2.9,0.1,4.4L77,33.7z M75.7,32c0.2,0.2,0.4,0.4,0.6,0.6c0.2,0.2,0.3,0.3,0.5,0.5
				c0.1-1.3,0-2.6-0.1-3.8c-0.1,0.1-0.2,0.1-0.3,0.2c-0.1,0.4-0.1,0.7-0.3,1.1C76.1,31,75.9,31.5,75.7,32z M40.8,33.6l-0.4-0.2
				c-0.9-0.4-1.7-0.9-2.4-1.6l0,0l0-0.1c0-0.4,0-0.8,0-1.2l0,0c0-0.4,0-0.9,0.1-1.3l0-0.4l0.2,0.4c0.7,1.4,1.4,2.7,2.3,4L40.8,33.6z
				 M38.2,31.7c0.6,0.5,1.2,0.9,1.9,1.3c-0.7-1.1-1.3-2.2-1.9-3.3c0,0.3,0,0.5,0,0.8l0,0C38.2,30.9,38.2,31.3,38.2,31.7z M41,33.5
				l-0.6-1c-0.9-1.3-1.6-2.7-2.2-4l0,0l0,0c0.2-1.4,0.5-2.8,1-4.1l0-0.1l0.1,0c0.6,0,1.3,0.1,1.9,0.2l0.2,0l-0.1,0.2
				c-0.5,0.8-0.8,1.7-1,2.5c-0.4,1.7-0.3,3.5,0.4,5.2L41,33.5z M38.4,28.4c0.5,1.1,1,2.1,1.7,3.1c-0.4-1.5-0.4-3-0.1-4.4
				c0.2-0.8,0.5-1.7,1-2.4c-0.5-0.1-1-0.2-1.6-0.2C38.9,25.7,38.5,27,38.4,28.4z M55.8,32.5c-0.5,0-0.9,0-1.4-0.1l-0.1,0l0,0
				c-0.4-0.5-0.7-0.9-1-1.4l-0.1-0.1l0.1-0.1c0.4-0.3,0.8-0.7,1.1-1c0.4-0.4,0.8-0.8,1.3-1.3l0.1-0.1l0.1,0c0.1,0.1,0.2,0.1,0.3,0.2
				l0.1,0l0,0.1c0.1,1.2,0.5,2.4,1.1,3.5l0,0.1l-0.1,0.1l0,0C56.8,32.4,56.3,32.5,55.8,32.5z M54.5,32.2c0.9,0.1,1.7,0.1,2.6,0
				c-0.6-1.1-0.9-2.2-1-3.4c-0.1,0-0.1-0.1-0.2-0.1c-0.4,0.5-0.8,0.9-1.2,1.2c-0.4,0.3-0.7,0.7-1.1,1C53.9,31.3,54.2,31.8,54.5,32.2
				z M54.1,32.4l-0.3,0c-0.6-0.1-1.1-0.2-1.7-0.3l-0.2-0.1l0.2-0.2c0.3-0.2,0.6-0.5,0.9-0.7l0.1-0.1l0.1,0.1c0.2,0.4,0.5,0.7,0.7,1
				L54.1,32.4z M52.5,31.8c0.4,0.1,0.7,0.2,1.1,0.2c-0.2-0.2-0.3-0.5-0.5-0.7C52.9,31.5,52.7,31.7,52.5,31.8z M57.6,32.4l0.2-0.3
				c0.5-0.7,1-1.3,1.5-2.1l0.1-0.1l0.1,0c0.7,0.2,1.4,0.5,2.2,0.7l0.2,0.1l-0.1,0.2c-0.2,0.2-0.4,0.5-0.7,0.7l0,0l0,0
				c-1.2,0.3-2.2,0.6-3,0.7L57.6,32.4z M59.5,30.3c-0.4,0.6-0.8,1.2-1.3,1.7c0.8-0.1,1.6-0.3,2.6-0.6c0.2-0.2,0.3-0.4,0.5-0.5
				C60.7,30.7,60.1,30.5,59.5,30.3z M57.6,32.2l-0.1-0.2c-0.5-0.9-0.8-2-1-3l0-0.2l0.2,0.1c0.6,0.3,1.3,0.6,2,0.9l0.1,0.1l-0.1,0.1
				c-0.4,0.7-0.7,1.4-1,2.1L57.6,32.2z M56.8,29.2c0.1,0.8,0.4,1.7,0.8,2.4c0.3-0.6,0.5-1.1,0.9-1.7C57.9,29.7,57.3,29.4,56.8,29.2z
				 M75.3,32l-0.1-0.1c-0.5-0.4-0.9-0.7-1.4-0.9l-0.2-0.1l0.3-0.1c0.5-0.2,1-0.4,1.5-0.7l0,0c0.2-0.1,0.4-0.2,0.6-0.3l0.3-0.2
				L76,29.8c-0.2,0.7-0.4,1.4-0.7,2L75.3,32z M74.1,30.8c0.4,0.2,0.8,0.5,1.1,0.7c0.2-0.5,0.4-1,0.5-1.5c-0.1,0.1-0.2,0.1-0.3,0.2
				l0,0C75,30.4,74.5,30.7,74.1,30.8z M51.7,31.9L51.7,31.9c-0.2,0-0.3-0.1-0.4-0.1l0,0l0,0c-0.6-1.3-1.5-2.5-2.6-3.5L48.6,28
				l0.1-0.1c0.4-0.5,0.9-1,1.4-1.4c0.3-0.3,0.7-0.5,1-0.7l0.2-0.1l0,0.2c0.2,1.2,0.5,2.4,1,3.4l0,0c0.2,0.5,0.4,1,0.7,1.4l0.1,0.1
				L53,30.9C52.5,31.2,52.1,31.5,51.7,31.9L51.7,31.9z M51.4,31.5c0.1,0,0.1,0,0.2,0.1c0.4-0.3,0.7-0.5,1.1-0.8
				c-0.2-0.4-0.5-0.9-0.7-1.3l0,0c-0.4-1-0.8-2.2-1-3.3c-0.3,0.2-0.6,0.4-0.9,0.6c-0.5,0.4-0.9,0.8-1.3,1.3
				C50,29.1,50.8,30.2,51.4,31.5z M51,31.6l-0.3-0.1c-1.1-0.4-2.2-1-3.1-1.7l-0.1-0.1l0-0.1c0.2-0.5,0.5-0.9,0.8-1.3l0.1-0.1
				l0.1,0.1c0.9,0.9,1.7,1.9,2.3,3L51,31.6z M47.9,29.6c0.8,0.6,1.7,1.1,2.6,1.5c-0.5-0.9-1.2-1.8-2-2.6
				C48.3,28.9,48.1,29.3,47.9,29.6z M37.8,31.6l-0.2-0.2c-1.8-1.6-3-3.8-3.6-6.1c0-0.2-0.1-0.4-0.1-0.6l0-0.1l0.1,0
				c0.8-0.1,1.6-0.3,2.4-0.3l0.1,0l0,0.1c0.4,1.4,0.8,2.7,1.4,4.1l0,0l0,0c-0.1,0.7-0.1,1.3-0.2,2c0,0.3,0,0.5,0,0.8L37.8,31.6z
				 M34.1,24.8c0,0.2,0.1,0.3,0.1,0.5c0.5,2.1,1.7,4.1,3.3,5.7c0-0.2,0-0.4,0-0.5c0-0.7,0.1-1.3,0.2-2c-0.6-1.3-1-2.6-1.4-4
				C35.6,24.6,34.9,24.7,34.1,24.8z M61.3,31.5l0.3-0.3c0.1-0.1,0.2-0.2,0.4-0.4l0-0.1l0.1,0c0.2,0,0.3,0.1,0.5,0.1l0.4,0.1
				l-0.8,0.2L61.3,31.5z M68.5,31.4c-0.6,0-1.2,0-1.8-0.1l-0.1,0l0-0.1c0-0.2-0.1-0.5-0.2-0.7l0-0.1l0.1,0c0.8-0.2,1.5-0.2,2.2-0.3
				l0.1,0l0,0.1c0,0.4,0,0.7,0,1.1l0,0.1l-0.1,0C68.6,31.4,68.5,31.4,68.5,31.4z M66.7,31c0.6,0,1.2,0.1,1.8,0.1c0-0.3,0-0.6,0-0.8
				c-0.6,0-1.2,0.1-1.9,0.2C66.6,30.7,66.7,30.9,66.7,31z M68.9,31.3l0-0.1c0-0.4,0-0.7,0-1.1l0-0.1l0.1,0c0.1,0,0.2,0,0.3,0l0.1,0
				l0,0.1c0,0.4,0.1,0.7,0.1,1.1l0,0.1l-0.1,0c-0.1,0-0.2,0-0.4,0L68.9,31.3z M69.2,30.2c0,0.3,0,0.6,0,0.8c0,0,0.1,0,0.1,0
				C69.3,30.8,69.3,30.5,69.2,30.2C69.2,30.2,69.2,30.2,69.2,30.2z M69.7,31.3l0-0.2v-0.6l0.3,0.7h-0.2L69.7,31.3z M69.9,31.1H70
				H69.9z M70.2,31.3L70.2,31.3C70.1,31,70,30.8,70,30.6c-0.1-0.1-0.1-0.3-0.2-0.4L69.7,30l0.2,0c0.2,0,0.4,0,0.6,0.1l0,0
				c0.7,0.1,1.4,0.3,2.1,0.5l0.4,0.1l-0.4,0.1C71.9,31.1,71.1,31.2,70.2,31.3L70.2,31.3z M70.1,30.3c0,0.1,0.1,0.2,0.1,0.2
				c0.1,0.2,0.1,0.3,0.2,0.5c0.6-0.1,1.2-0.2,1.8-0.3c-0.5-0.2-1.1-0.3-1.6-0.4l0,0C70.4,30.3,70.2,30.3,70.1,30.3z M66,31.2l-0.2,0
				c-0.5,0-0.9-0.1-1.4-0.2l-0.6-0.1l0.6-0.2c0.5-0.1,0.9-0.2,1.3-0.3l0.1,0l0,0.1c0,0.2,0.1,0.3,0.1,0.5L66,31.2z M65,30.9
				c0.2,0,0.4,0.1,0.6,0.1c0-0.1,0-0.1,0-0.2C65.4,30.8,65.2,30.8,65,30.9z M63.5,30.9L63.5,30.9c-0.4-0.1-0.7-0.1-1.1-0.2l-0.2,0
				l0.2-0.2c0.5-0.5,1-1,1.5-1.4l0.2-0.2c0.3-0.2,0.5-0.5,0.8-0.7l0.1-0.1l0.1,0.2c0.3,0.7,0.6,1.4,0.7,2l0,0.1l-0.1,0
				C64.8,30.5,64.1,30.7,63.5,30.9L63.5,30.9z M62.7,30.5c0.3,0.1,0.5,0.1,0.8,0.2c0.6-0.2,1.3-0.4,2-0.5c-0.2-0.6-0.4-1.1-0.6-1.7
				c-0.2,0.2-0.4,0.4-0.6,0.6L64,29.2C63.5,29.6,63.1,30,62.7,30.5z M53.2,30.7l-0.1-0.1c-0.2-0.4-0.5-0.9-0.7-1.3
				c-0.5-1.1-0.8-2.3-1-3.6l0-0.1l0.1,0c0.1,0,0.1-0.1,0.2-0.1l0.1,0l0.1,0.1c0.4,0.4,0.9,0.8,1.4,1.2l0,0c0.7,0.5,1.4,1,2.2,1.5
				l0.1,0.1l-0.1,0.1c-0.4,0.4-0.8,0.9-1.2,1.2c-0.3,0.3-0.7,0.7-1.1,1L53.2,30.7z M51.7,25.7c0.2,1.2,0.5,2.3,0.9,3.4
				c0.2,0.4,0.4,0.8,0.6,1.2c0.3-0.3,0.6-0.6,0.9-0.9c0.4-0.3,0.7-0.7,1.1-1.1c-0.8-0.4-1.5-0.9-2.1-1.4l0,0
				C52.7,26.5,52.2,26.1,51.7,25.7C51.8,25.7,51.7,25.7,51.7,25.7z M73.2,30.7L73.2,30.7c-0.9-0.4-1.8-0.7-2.6-0.8
				c-0.3,0-0.6-0.1-0.8-0.1l-0.1,0l0-0.1c0-0.4-0.1-0.7-0.2-1.1c-0.2-1.1-0.5-2.2-0.9-3.2l0,0c-0.1-0.5-0.1-1-0.2-1.5l0,0l0,0
				c0.2-0.3,0.4-0.6,0.5-0.8c0.6-1,1-2.1,1.3-3.2l0,0l0,0c0.3-0.2,0.5-0.5,0.8-0.8l0.1-0.1l0.1,0c2.1,1.2,3.7,3,4.5,5.1l0,0
				c0.6,1.6,0.8,3.3,0.5,5l0,0l0,0c-0.3,0.2-0.6,0.4-0.9,0.6C74.6,30.2,73.9,30.4,73.2,30.7L73.2,30.7z M69.9,29.6
				c0.3,0,0.5,0,0.8,0.1c0.9,0.1,1.8,0.4,2.6,0.8c0.6-0.2,1.2-0.5,1.8-0.8c0.3-0.2,0.6-0.3,0.8-0.5c0.3-1.7,0.1-3.4-0.5-4.9l0,0
				c-0.8-2-2.3-3.8-4.3-4.9c-0.2,0.2-0.5,0.5-0.7,0.7c-0.3,1.1-0.7,2.2-1.3,3.2c-0.2,0.3-0.3,0.5-0.5,0.8c0.1,0.5,0.1,0.9,0.2,1.4
				c0.4,1,0.7,2.1,0.9,3.2C69.8,28.9,69.8,29.2,69.9,29.6z M62,30.6L62,30.6c-0.9-0.2-1.6-0.4-2.4-0.7l-0.1-0.1l0.2-0.3
				c0.6-1,1.1-2.1,1.5-3.2l0,0c0.2-0.4,0.5-0.7,0.7-1.1c0.2-0.2,0.3-0.5,0.5-0.7l0.1-0.1l0.1,0.1c0.2,0.3,0.5,0.5,0.7,0.8v0
				c0.6,0.8,1.1,1.6,1.5,2.4l0,0.1l-0.1,0.1c-0.4,0.4-0.7,0.7-1.1,1.1L63.6,29C63.1,29.5,62.5,30,62,30.6L62,30.6z M59.8,29.7
				c0.7,0.2,1.4,0.4,2.1,0.6c0.5-0.5,1-1,1.5-1.5l0.1-0.1c0.3-0.3,0.7-0.7,1-1c-0.4-0.8-0.9-1.6-1.5-2.3l0,0
				c-0.2-0.2-0.4-0.5-0.6-0.7c-0.1,0.2-0.3,0.4-0.4,0.6c-0.2,0.4-0.5,0.7-0.7,1.1C61,27.5,60.5,28.6,59.8,29.7L59.8,29.7z M59,30.2
				l-0.2-0.1l0.1-0.3l0.2,0.1l-0.1,0.2L59,30.2z M66.2,30.1l0-0.1c-0.2-0.8-0.5-1.6-0.9-2.4l0-0.1l0.1-0.1c0.7-0.7,1.2-1.3,1.7-1.9
				l0.1-0.1l0.1,0.2c0.4,0.7,0.9,1.6,1.3,2.5l0,0c0,0.5,0.1,1,0.1,1.5l0,0.1l-0.1,0c-0.7,0-1.4,0.1-2.2,0.3L66.2,30.1z M65.6,27.6
				c0.3,0.7,0.6,1.5,0.9,2.3c0.7-0.1,1.4-0.2,2-0.3c0-0.5,0-0.9-0.1-1.4c-0.4-0.8-0.8-1.6-1.2-2.3C66.7,26.4,66.2,27,65.6,27.6z
				 M68.9,29.8l0-0.1c0-0.2,0-0.3,0-0.5l0-0.6l0.3,0.6c0.1,0.2,0.2,0.3,0.2,0.5l0.1,0.2L68.9,29.8z M59.3,29.8L59,29.7l0-0.1
				c0.2-0.4,0.5-0.8,0.7-1.3l0.2,0.1c-0.2,0.3-0.4,0.7-0.6,1L59.3,29.8z M47.4,29.6l-0.1-0.1c-0.3-0.3-0.6-0.6-0.9-0.9
				c-0.8-0.8-1.5-1.8-2-3l-0.1-0.3l0.3,0.1c1.4,0.6,2.6,1.5,3.8,2.5l0.1,0.1l-0.1,0.1c-0.3,0.4-0.6,0.8-0.8,1.3L47.4,29.6z
				 M44.7,25.9c0.5,1,1.1,1.8,1.8,2.6c0.3,0.3,0.5,0.5,0.8,0.8c0.2-0.4,0.4-0.8,0.7-1.1C47,27.2,45.9,26.5,44.7,25.9z M58.9,29.6
				l-0.1,0c-0.8-0.3-1.5-0.6-2.2-1l-0.1,0l0-0.1c0-0.2,0-0.5,0-0.7v0l0,0c0.6-0.7,1.2-1.3,1.7-2l0.1-0.1c0.6-0.8,1.3-1.5,2-2.3l0,0
				l0.9-0.1l0,0c0.1,0.1,0.2,0.2,0.3,0.3l0,0l0,0.1c-0.1,0.9-0.3,1.8-0.6,2.7l0,0c-0.2,0.3-0.4,0.6-0.6,0.9
				C59.8,28,59.3,28.8,58.9,29.6L58.9,29.6z M56.7,28.3c0.7,0.3,1.3,0.7,2.1,0.9c0.4-0.7,0.9-1.5,1.4-2.3c0.2-0.3,0.4-0.6,0.6-0.9
				c0.3-0.8,0.5-1.7,0.6-2.5c-0.1-0.1-0.1-0.1-0.2-0.2l-0.7,0.1c-0.7,0.8-1.3,1.5-2,2.3l-0.1,0.1c-0.5,0.6-1.1,1.3-1.7,2
				C56.7,28,56.7,28.2,56.7,28.3z M69.4,29.3L69,28.5c-0.1-0.1-0.1-0.2-0.2-0.4l0,0c0-0.2,0-0.4,0-0.6l0.2,0c0.1,0.3,0.2,0.7,0.2,1
				L69.4,29.3z M76.3,29.1l0-0.3c0.1-0.9,0.1-1.9,0-2.8l0.2,0c0.1,0.3,0.1,0.5,0.1,0.8l0,0c0.1,0.6,0.2,1.2,0.2,1.7l0,0.1l0,0
				c-0.1,0.1-0.2,0.2-0.3,0.3L76.3,29.1z M76.7,28.2c0,0.1,0,0.1,0,0.2c0,0,0,0,0,0C76.7,28.4,76.7,28.3,76.7,28.2z M77.1,28.4
				l0-0.3c-0.1-0.5-0.1-0.9-0.2-1.4l0,0c-0.6-3.5-1.7-6.7-3.4-9.6l-0.1-0.3l0.3,0.1c1,0.2,1.9,0.7,2.8,1.2c1.6,1.1,2.6,2.6,2.9,4.2
				c0.2,1.4-0.1,2.9-0.9,4.3c-0.3,0.5-0.7,1-1.1,1.5L77.1,28.4z M77.1,26.7c0.1,0.4,0.1,0.7,0.2,1.1c0.3-0.4,0.6-0.8,0.9-1.2
				c0.8-1.3,1.1-2.8,0.9-4.1c-0.3-1.6-1.2-3-2.8-4.1c-0.7-0.5-1.5-0.9-2.4-1.1C75.5,20.1,76.6,23.3,77.1,26.7L77.1,26.7z M55.8,28.1
				L55.8,28.1c-0.9-0.5-1.7-1-2.4-1.6c-0.5-0.4-0.9-0.7-1.3-1.1L52,25.3l0.2-0.1c1.7-0.8,3.5-1.2,4.7-1.5l0.2,0L57,24
				c-0.2,0.6-0.4,1.1-0.5,1.7l0,0c-0.1,0.6-0.2,1.3-0.2,1.9v0l0,0C56.1,27.8,56,27.9,55.8,28.1L55.8,28.1z M52.4,25.4
				c0.4,0.3,0.7,0.7,1.1,1c0.7,0.5,1.4,1,2.2,1.5c0.1-0.1,0.2-0.2,0.3-0.3c0-0.6,0.1-1.3,0.2-1.9l0,0c0.1-0.5,0.3-1,0.4-1.5
				C55.5,24.3,54,24.7,52.4,25.4z M38,28.1l-0.2-0.4c-0.5-1.1-0.8-2.2-1.1-3.3l0-0.1l0.2,0c0.7,0,1.4-0.1,2,0l0.2,0l-0.1,0.2
				c-0.4,1.1-0.7,2.2-0.9,3.3L38,28.1z M37,24.5c0.2,0.9,0.6,1.8,0.9,2.8c0.2-1,0.4-1.9,0.8-2.8C38.1,24.4,37.5,24.5,37,24.5z
				 M48.5,27.9L48.5,27.9c-1.2-1.2-2.5-2-4-2.6c-0.1,0-0.2-0.1-0.3-0.1l0,0l0,0c-0.2-0.6-0.4-1.1-0.5-1.7c-0.1-0.3-0.1-0.7-0.2-1
				l0-0.1l0,0c1.2-1.1,2.7-1.9,4.3-2.4l0.2-0.1l0,0.1c0.8,1.8,1.8,3.4,3.2,4.8l0,0l0,0c0,0.2,0,0.4,0.1,0.6l0,0.1l-0.1,0
				c-0.4,0.3-0.8,0.5-1.2,0.9c-0.5,0.4-1,0.9-1.4,1.4L48.5,27.9z M44.3,25c0.1,0,0.2,0.1,0.3,0.1c1.4,0.6,2.7,1.5,3.8,2.5
				c0.4-0.5,0.9-1,1.4-1.4c0.4-0.3,0.8-0.6,1.2-0.8c0-0.2,0-0.3,0-0.5c-1.3-1.4-2.4-3-3.1-4.8l0,0c-1.5,0.5-3,1.2-4.1,2.3
				c0,0.3,0.1,0.6,0.2,0.9C43.9,23.9,44.1,24.4,44.3,25z M68.6,27.7l-0.3-0.5c-0.3-0.6-0.6-1.2-1-1.8l0-0.1l0.1-0.1
				c0.2-0.2,0.3-0.4,0.5-0.6l0.1-0.2l0.1,0.2c0.1,0.3,0.2,0.5,0.3,0.8l0,0c0.1,0.5,0.1,1,0.2,1.6L68.6,27.7z M67.6,25.3
				c0.2,0.4,0.4,0.8,0.6,1.1c0-0.3-0.1-0.6-0.1-0.9c-0.1-0.2-0.2-0.4-0.2-0.6C67.8,25.1,67.7,25.2,67.6,25.3z M56.4,27.4l0-0.4
				c0-0.5,0.1-0.9,0.2-1.4c0.1-0.6,0.3-1.3,0.6-1.9l0-0.1l0.1,0c0.8-0.1,1.6-0.2,2.3-0.4l0.3,0l-0.2,0.3c-0.5,0.6-1,1.2-1.5,1.8
				l-0.1,0.2c-0.5,0.6-1,1.1-1.4,1.7L56.4,27.4z M57.4,23.9c-0.3,0.6-0.5,1.2-0.6,1.8c-0.1,0.3-0.1,0.7-0.1,1
				c0.4-0.5,0.8-0.9,1.2-1.4l0.1-0.2c0.4-0.5,0.9-1,1.3-1.5C58.7,23.7,58.1,23.8,57.4,23.9z M65.2,27.4l-0.1-0.2
				c-0.6-1.2-1.4-2.3-2.3-3.4l-0.1-0.1l0.1-0.1c0.2-0.3,0.4-0.6,0.6-0.9l0,0l0.1,0c0.5-0.1,1-0.2,1.4-0.3c0.1,0,0.3-0.1,0.4-0.1
				l0.1,0l0,0.1c0.5,0.9,0.9,1.7,1.4,2.6l0.2,0.4L67,25.4c-0.5,0.6-1.1,1.2-1.7,1.9L65.2,27.4z M63.1,23.8c0.8,1,1.6,2.1,2.2,3.2
				c0.6-0.6,1.1-1.2,1.5-1.7L66.7,25c-0.4-0.8-0.9-1.6-1.4-2.5c-0.1,0-0.2,0.1-0.3,0.1c-0.4,0.1-0.9,0.2-1.4,0.3
				C63.5,23.2,63.3,23.5,63.1,23.8z M25.9,26.7l0-0.2c0-0.6,0.1-1.1,0.2-1.7c0.6-3.2,2.1-6,4.4-7.8c1.4-1.2,3.1-2,5.1-2.5l0.3-0.1
				l-0.1,0.3c-0.6,1-1.1,2.1-1.4,3.2l0,0c-0.7,2.2-0.9,4.4-0.6,6.5l0,0.1l-0.1,0c-2.6,0.5-5.3,1.4-7.5,2.1L25.9,26.7z M35.3,14.8
				c-1.8,0.5-3.4,1.3-4.7,2.4c-2.2,1.8-3.7,4.6-4.3,7.7c-0.1,0.5-0.2,1-0.2,1.5c2.2-0.7,4.7-1.6,7.2-2.1c-0.3-2.1-0.1-4.4,0.6-6.5
				l0,0C34.3,16.7,34.8,15.7,35.3,14.8z M61.3,25.6l0.1-0.6c0.1-0.4,0.2-0.8,0.2-1.1l0-0.2l0.2,0.2c0.1,0.1,0.2,0.2,0.3,0.3l0.1,0.1
				L61.3,25.6z M61.9,24.2c0,0.1,0,0.2,0,0.3L61.9,24.2C61.9,24.2,61.9,24.2,61.9,24.2z M51.8,25.2L51.8,25.2
				c-0.2-0.2-0.3-0.3-0.5-0.5l0,0l0,0c-0.1-1.7,0.1-3.5,0.6-5.2l0-0.1l0.1,0c2.1,0.1,4.2,0.7,6.2,1.8c0.1,0,0.1,0.1,0.2,0.1l0.1,0.1
				l-0.1,0.1c-0.5,0.6-0.9,1.3-1.3,2l0,0.1l-0.1,0C55,23.9,53.3,24.5,51.8,25.2L51.8,25.2z M51.6,24.6c0.1,0.1,0.2,0.2,0.3,0.3
				c1.4-0.7,3.1-1.2,5.1-1.6c0.3-0.7,0.7-1.3,1.2-1.9c0,0,0,0,0,0c-1.9-1-3.9-1.6-6-1.7C51.7,21.3,51.5,22.9,51.6,24.6z M67.2,25.1
				L67.1,25c0-0.1-0.1-0.1-0.1-0.2c-0.5-0.8-0.9-1.7-1.4-2.5l-0.1-0.1l0.1,0c0.2-0.1,0.4-0.1,0.6-0.2l0.1,0l0.1,0.1
				c0.5,0.7,0.9,1.5,1.3,2.2l0,0.1l0,0.1c-0.2,0.2-0.3,0.4-0.5,0.6L67.2,25.1z M66,22.4c0.4,0.8,0.8,1.6,1.3,2.3
				c0.1-0.1,0.2-0.3,0.3-0.4c-0.4-0.7-0.8-1.4-1.2-2.1C66.2,22.3,66.1,22.3,66,22.4z M43.9,25L43.6,25c-0.6-0.2-1.2-0.4-1.8-0.5
				l-0.2,0l0.1-0.2c0.4-0.6,0.8-1.1,1.3-1.6l0.2-0.2l0,0.2c0.1,0.7,0.3,1.4,0.5,2.1L43.9,25z M42,24.2c0.5,0.1,1,0.3,1.4,0.4
				c-0.2-0.5-0.3-1.1-0.4-1.7C42.7,23.4,42.3,23.8,42,24.2z M76.1,25c-0.1-0.3-0.2-0.6-0.3-0.9c-0.7-2-2.2-3.7-4.1-4.9
				c-0.1-0.1-0.3-0.2-0.4-0.3l-0.1-0.1l0.1-0.1c0.1-0.1,0.2-0.2,0.2-0.3c0.4-0.5,0.7-1,0.9-1.6l0-0.1l0.1,0c0.2,0,0.3,0,0.5,0.1
				l0.1,0l0,0c0,0.1,0.1,0.2,0.1,0.2c1.4,2.4,2.4,5,3.1,7.8L76.1,25z M71.6,18.8c0.1,0.1,0.2,0.1,0.3,0.2c1.6,1,2.9,2.4,3.7,3.9
				c-0.6-2-1.5-3.9-2.5-5.6c0-0.1-0.1-0.1-0.1-0.2c-0.1,0-0.2,0-0.3,0c-0.2,0.6-0.5,1.1-0.9,1.5C71.7,18.6,71.6,18.7,71.6,18.8z
				 M63.2,24.9c-0.2-0.2-0.4-0.4-0.6-0.6l-0.1-0.1l0.1-0.1l0.1,0.1l0,0l-0.1-0.1l0.1-0.1l0.1,0.1c0.2,0.2,0.4,0.5,0.6,0.7L63.2,24.9
				z M51.2,24.5l-0.2-0.3c-1.2-1.3-2.1-2.8-2.8-4.3l-0.1-0.1l0.1,0c1.1-0.3,2.2-0.4,3.4-0.3l0.2,0l0,0.2c-0.4,1.5-0.6,3-0.6,4.6
				L51.2,24.5z M48.5,19.9c0.6,1.4,1.4,2.7,2.4,3.9c0-1.4,0.2-2.8,0.6-4.2C50.4,19.6,49.4,19.7,48.5,19.9z M33.8,24.5l0-0.1
				c-0.3-2.1-0.1-4.3,0.6-6.4c0.4-1.2,0.9-2.4,1.6-3.5l0.4-0.7l-0.2,0.7c-0.6,3-0.6,6.2,0.2,9.4l0,0l0,0.1l-0.1,0
				c-0.7,0.1-1.5,0.2-2.3,0.3L33.8,24.5z M35.8,15.2c-0.5,0.9-0.9,1.8-1.2,2.8C34,20,33.8,22.2,34,24.2c0.7-0.1,1.4-0.2,2.1-0.3
				C35.4,21,35.3,18,35.8,15.2z M41.4,24.3L41.4,24.3c-0.7-0.1-1.4-0.2-2-0.3l-0.2,0l0.1-0.2c0.6-1.5,1.4-2.8,2.4-3.9
				c0.5-0.5,1-1.1,1.5-1.5l0.3-0.3l-0.1,0.4c-0.3,1.2-0.4,2.4-0.2,3.6l0,0.1l0,0C42.5,22.9,41.9,23.5,41.4,24.3L41.4,24.3z
				 M39.6,23.8c0.6,0,1.1,0.1,1.7,0.2c0.5-0.7,1-1.3,1.6-1.9c-0.1-1.1-0.1-2.2,0.2-3.3c-0.4,0.4-0.8,0.8-1.2,1.3
				C41,21.2,40.2,22.5,39.6,23.8z M68,24.1L67.9,24c-0.3-0.7-0.7-1.3-1.2-2l-0.1-0.1l0.1-0.1c0.3-0.1,0.5-0.2,0.8-0.3l0.1-0.1l0,0.2
				c0.1,0.8,0.3,1.5,0.4,2.3l0,0L68,24.1z M67,22c0.3,0.4,0.5,0.9,0.8,1.3c-0.1-0.5-0.2-1-0.3-1.5C67.4,21.8,67.2,21.9,67,22z
				 M36.6,24.1l-0.1-0.2c-0.8-3.2-0.8-6.5-0.1-9.6l0-0.1l0.1,0c1.1-0.2,2.2-0.3,3.4-0.3c1.7,0,3.4,0.2,5.4,0.7l0.2,0l-0.1,0.2
				c-0.7,0.8-1.2,1.7-1.6,2.7c0,0.1-0.1,0.2-0.1,0.4l0,0l0,0c-0.7,0.6-1.4,1.2-2,2c-1,1.2-1.8,2.6-2.5,4.1l0,0.1L39,24
				c-0.7,0-1.5,0-2.3,0L36.6,24.1z M36.7,14.4c-0.7,3-0.6,6.2,0.1,9.4v0c0.7,0,1.4-0.1,2.1,0c0.6-1.5,1.5-2.9,2.5-4.1
				c0.6-0.7,1.3-1.4,2-2c0-0.1,0.1-0.2,0.1-0.3c0.4-0.9,0.9-1.8,1.5-2.6c-1.8-0.4-3.5-0.6-5.1-0.6C38.8,14.2,37.7,14.3,36.7,14.4z
				 M62.4,24.1L62.3,24c-0.2-0.2-0.3-0.3-0.5-0.5l0,0l0-0.5l0.2,0.2c0.2,0.2,0.4,0.4,0.5,0.6l0.1,0.1L62.4,24.1z M68.3,23.7
				l-0.1-0.3c-0.1-0.6-0.2-1.3-0.3-1.9l0-0.1l0.1,0c0.6-0.3,1.2-0.6,1.7-1L70,20l-0.1,0.4c-0.3,0.9-0.6,1.8-1.1,2.6
				c-0.1,0.1-0.2,0.3-0.3,0.4L68.3,23.7z M68.2,21.4c0.1,0.5,0.2,1,0.3,1.5c0,0,0-0.1,0.1-0.1c0.4-0.7,0.7-1.4,1-2.2
				C69.1,20.9,68.7,21.2,68.2,21.4z M62.7,23.6l-0.1-0.1c-0.1-0.1-0.2-0.2-0.3-0.4L62.1,23l0.2,0c0.2,0,0.4-0.1,0.6-0.1l0.3-0.1
				L63.1,23c-0.1,0.2-0.2,0.3-0.3,0.5L62.7,23.6z M62.6,23.2C62.6,23.2,62.6,23.2,62.6,23.2c0.1,0,0.1,0,0.1,0
				C62.7,23.1,62.6,23.1,62.6,23.2z M57.4,23.5l0.1-0.2c0.3-0.6,0.7-1.2,1.2-1.8l0.1-0.1l0.1,0.1c0.6,0.3,1.1,0.7,1.6,1.1l0.1,0.1
				l-0.1,0.1c-0.1,0.1-0.2,0.2-0.3,0.3l0,0l-0.2,0c-0.7,0.1-1.5,0.2-2.4,0.3L57.4,23.5z M58.8,21.7c-0.4,0.5-0.7,0.9-1,1.4
				c0.7-0.1,1.5-0.2,2.1-0.3l0.1,0c0.1-0.1,0.1-0.1,0.2-0.2C59.7,22.3,59.3,22,58.8,21.7z M61.2,22.9L61.2,22.9
				c-0.1-0.1-0.2-0.2-0.3-0.2l-0.1-0.1l0.3-0.3l0.1,0.1c0.1,0.1,0.2,0.2,0.3,0.3l0.2,0.2L61.2,22.9z M61.9,22.8l-0.1-0.1l0-0.1
				c0-0.3,0-0.7,0-1l0-0.1l0,0c0.7-0.7,1.5-1.4,2.2-1.9l0.1-0.1l0.1,0.2c0.1,0.3,0.2,0.5,0.3,0.8l0,0.1l0,0.1
				c-0.3,0.6-0.7,1.2-1.2,1.9l0,0l-0.1,0C62.9,22.7,62.5,22.7,61.9,22.8L61.9,22.8z M62.1,21.7c0,0.3,0,0.6,0,0.8
				c0.4-0.1,0.8-0.1,1.2-0.2c0.4-0.7,0.8-1.3,1.1-1.8c-0.1-0.2-0.2-0.4-0.2-0.6C63.4,20.5,62.7,21.1,62.1,21.7z M61.6,22.5l-0.4-0.4
				l0.4-0.4L61.6,22.5z M63.6,22.5l0.2-0.3c0.3-0.5,0.6-0.9,0.8-1.3l0.1-0.2l0.1,0.2c0.1,0.2,0.1,0.3,0.2,0.5l0,0
				c0.1,0.2,0.2,0.4,0.3,0.6l0.1,0.1l-0.1,0c-0.1,0-0.2,0.1-0.3,0.1c-0.3,0.1-0.6,0.2-1,0.2L63.6,22.5z M64.7,21.3
				c-0.2,0.3-0.3,0.6-0.5,0.9c0.2-0.1,0.5-0.1,0.7-0.2c0.1,0,0.1,0,0.2-0.1c-0.1-0.1-0.1-0.3-0.2-0.4h0
				C64.7,21.4,64.7,21.4,64.7,21.3z M60.7,22.5L60.7,22.5c-0.6-0.5-1.2-0.8-1.7-1.2l-0.1-0.1l0.1-0.1c0.1-0.1,0.2-0.2,0.3-0.3
				l0.1-0.1l0.1,0.1c0.5,0.4,1,0.8,1.5,1.2l0.1,0.1L60.7,22.5z M59.2,21.2c0.5,0.3,0.9,0.6,1.3,0.9c-0.4-0.3-0.8-0.7-1.2-1
				C59.3,21.1,59.3,21.2,59.2,21.2z M43.4,22.1l0-0.2c-0.1-1.3,0-2.6,0.4-3.8l0,0l0,0c0.9-0.7,1.9-1.3,2.9-1.8l0.1-0.1l0,0.2
				c0.2,1.1,0.5,2.2,0.9,3.2l0.1,0.1l-0.2,0.1c-1.5,0.4-2.9,1.2-4.1,2.2L43.4,22.1z M44,18.1c-0.3,1.1-0.5,2.3-0.4,3.4
				c1.2-0.9,2.5-1.7,4-2.1c-0.4-1-0.7-2-0.8-3C45.7,16.9,44.8,17.5,44,18.1z M61.1,22L61,21.9c-0.5-0.4-0.9-0.8-1.5-1.2l-0.1-0.1
				l0.1-0.1c0.5-0.5,1-0.9,1.6-1.3l0.1-0.1l0,0.2c0.2,0.7,0.3,1.4,0.3,2.1l0,0.1l0,0C61.5,21.7,61.3,21.8,61.1,22L61.1,22z
				 M59.8,20.6c0.5,0.3,0.9,0.7,1.3,1.1c0.1-0.1,0.2-0.2,0.3-0.3c0-0.6-0.1-1.2-0.2-1.8C60.7,19.9,60.2,20.2,59.8,20.6z M65.5,22
				L65.5,22c-0.2-0.3-0.3-0.5-0.4-0.7c-0.1-0.2-0.2-0.5-0.3-0.7l0-0.1l0.2-0.4l0.1,0.1c0.4,0.4,0.8,0.9,1.1,1.4l0.1,0.1l-0.2,0.1
				C66,21.9,65.8,22,65.5,22L65.5,22z M65.1,20.6c0.1,0.2,0.2,0.4,0.3,0.7c0.1,0.2,0.2,0.4,0.3,0.5c0.1,0,0.2-0.1,0.3-0.1
				C65.7,21.3,65.4,20.9,65.1,20.6L65.1,20.6z M66.5,21.7L66.5,21.7c-0.5-0.6-0.9-1.2-1.4-1.7L65.1,20l0-0.1c0.3-0.5,0.5-1,0.7-1.4
				l0,0l0,0c0.3-0.2,0.6-0.3,0.9-0.5l0.1-0.1l0,0.1c0.2,0.6,0.3,1.3,0.5,2l0,0c0.1,0.4,0.2,0.7,0.2,1.1l0,0.1l-0.1,0
				C67.3,21.4,67,21.5,66.5,21.7L66.5,21.7z M65.4,19.9c0.4,0.5,0.8,1,1.2,1.5c0.3-0.1,0.5-0.2,0.8-0.3c-0.1-0.3-0.1-0.7-0.2-1
				c-0.1-0.6-0.3-1.3-0.5-1.8c-0.2,0.1-0.5,0.2-0.7,0.4C65.9,19,65.6,19.5,65.4,19.9z M61.8,21.4l0-0.3c0-0.7-0.1-1.3-0.3-1.9l0-0.1
				l0.1,0c0.5-0.3,1-0.5,1.5-0.7l0.1,0l0.1,0c0.3,0.2,0.6,0.5,0.9,0.7l0,0l0.1,0.2L64,19.4c-0.7,0.5-1.4,1.1-2,1.7L61.8,21.4z
				 M61.7,19.2c0.1,0.5,0.2,1.1,0.3,1.6c0.6-0.6,1.2-1.1,1.8-1.5l0,0c-0.2-0.2-0.5-0.4-0.8-0.7C62.6,18.8,62.2,19,61.7,19.2z
				 M58.7,21.2L58.3,21c-1.9-1-4-1.6-6.1-1.8l-0.2,0l0.1-0.2c0.2-0.6,0.4-1.2,0.7-1.8l0.1-0.1l0.1,0c2.4,1,4.3,2.1,6,3.4l0.1,0.1
				L59,20.8C58.9,20.9,58.8,21,58.7,21.2L58.7,21.2z M52.4,19c2.1,0.2,4.2,0.8,6.1,1.8l0.2,0.1c0.1-0.1,0.1-0.1,0.2-0.2
				c-1.6-1.2-3.5-2.2-5.8-3.2C52.8,18,52.6,18.5,52.4,19z M67.9,21.1l0-0.2c-0.1-0.3-0.1-0.7-0.2-1c-0.2-0.7-0.3-1.4-0.5-2l0-0.2
				l0.2,0c1,0.1,1.9,0.4,2.9,0.8l0.1,0l0,0.1c0,0.3-0.1,0.7-0.2,1l0,0l0,0c-0.6,0.5-1.2,0.9-2,1.3L67.9,21.1z M67.4,18
				c0.2,0.6,0.3,1.2,0.5,1.9c0.1,0.3,0.1,0.6,0.2,0.8c0.6-0.3,1.2-0.7,1.8-1.2c0.1-0.3,0.1-0.6,0.1-0.9C69.1,18.4,68.3,18.2,67.4,18
				z M59.3,20.5L59.3,20.5c-1.8-1.3-3.8-2.4-6.2-3.5L53,17l0.1-0.1c0.4-0.7,0.8-1.4,1.3-2l0-0.1l0.1,0c2,0.2,3.9,0.7,5.8,1.7l0,0
				l0,0c0.4,0.7,0.7,1.4,0.9,2.1l0,0c0,0.1,0,0.1,0.1,0.2l0,0.1l-0.1,0c-0.5,0.3-1,0.7-1.5,1.1C59.6,20.3,59.5,20.4,59.3,20.5
				L59.3,20.5z M53.3,16.9c2.3,1,4.3,2.1,5.9,3.3c0.1-0.1,0.2-0.2,0.3-0.3c0.4-0.4,0.9-0.8,1.4-1.1c0,0,0-0.1,0-0.1v0
				c-0.2-0.7-0.5-1.4-0.9-2c-1.8-0.9-3.7-1.4-5.6-1.6C54,15.7,53.6,16.3,53.3,16.9z M64.7,20.3l-0.4-1l0.6,0.6L64.7,20.3z M65,19.8
				l-0.1-0.1c-0.1-0.1-0.2-0.2-0.3-0.3l-0.1-0.1l0.1-0.1c0.2-0.1,0.4-0.3,0.6-0.4l0.4-0.2L65.4,19c-0.1,0.2-0.2,0.5-0.3,0.7L65,19.8
				z M64.9,19.3C64.9,19.4,64.9,19.4,64.9,19.3c0.1,0,0.1,0,0.1-0.1C64.9,19.3,64.9,19.3,64.9,19.3z M48,19.6l0-0.1
				c-0.4-1.1-0.8-2.2-0.9-3.4l0-0.1l0.1,0c0.4-0.2,0.8-0.3,1.3-0.5l0,0l0,0c0.4,0.1,0.9,0.3,1.3,0.5c1,0.3,1.9,0.7,2.7,1.1l0.1,0.1
				l-0.1,0.1c-0.3,0.6-0.6,1.2-0.8,1.9l0,0.1l-0.1,0c-1.2,0-2.5,0.1-3.6,0.4L48,19.6z M47.3,16.2c0.2,1,0.5,2.1,0.9,3.1
				c1.1-0.3,2.3-0.4,3.5-0.3c0.2-0.6,0.4-1.2,0.7-1.7c-0.8-0.3-1.7-0.7-2.6-1c-0.4-0.2-0.9-0.3-1.3-0.4C48.1,15.9,47.7,16,47.3,16.2
				z M70.3,19.6l0.1-0.4c0-0.1,0-0.2,0.1-0.4l0-0.2l0.2,0.1c0,0,0.1,0,0.1,0.1l0.2,0.1L70.8,19c-0.1,0.1-0.2,0.2-0.3,0.3L70.3,19.6z
				 M64.4,19.2L64.2,19c-0.1-0.3-0.2-0.5-0.3-0.8l0-0.1l0.1,0c0.5-0.1,1.1-0.2,1.6-0.3c0.1,0,0.1,0,0.2,0l0.2,0l-0.1,0.2
				c0,0.1-0.1,0.2-0.1,0.3l0,0l0,0C65.3,18.6,64.8,18.8,64.4,19.2L64.4,19.2z M64.2,18.2c0.1,0.2,0.1,0.4,0.2,0.6
				c0.4-0.3,0.8-0.5,1.2-0.7c0,0,0-0.1,0.1-0.1C65.1,18,64.6,18.1,64.2,18.2z M61.4,18.9l0-0.2c0,0,0-0.1,0-0.1
				c-0.2-0.5-0.4-1.1-0.6-1.6l-0.2-0.4l0.3,0.2c0.6,0.4,1.2,0.8,1.8,1.2l0.2,0.1l-0.2,0.1c-0.4,0.2-0.8,0.3-1.1,0.6L61.4,18.9z
				 M61.1,17.3c0.2,0.4,0.3,0.8,0.5,1.2c0.3-0.1,0.5-0.3,0.8-0.4C62,17.8,61.5,17.5,61.1,17.3z M71,18.8L71,18.8
				c-0.2-0.1-0.4-0.2-0.5-0.3l-0.1,0l0-0.1c0-0.5,0-1,0-1.5l0-0.1l0.1,0c0.2,0,0.5-0.1,0.7-0.1c0.3,0,0.6,0,0.9,0l0.2,0l-0.1,0.2
				c-0.2,0.5-0.5,1-0.8,1.4C71.3,18.4,71.2,18.6,71,18.8L71,18.8z M70.7,18.3c0.1,0,0.2,0.1,0.3,0.1c0.1-0.1,0.2-0.2,0.2-0.3
				c0.3-0.4,0.5-0.8,0.7-1.2c-0.2,0-0.4,0-0.7,0h0c-0.2,0-0.4,0-0.6,0C70.7,17.4,70.7,17.9,70.7,18.3z M63.9,18.8l-0.6-0.5l0.4-0.1
				L63.9,18.8z M70.2,18.4l-0.2-0.1c-0.7-0.3-1.4-0.5-2.2-0.6l-0.5-0.1l0.4-0.2c0.7-0.3,1.5-0.5,2.2-0.6l0.1,0l0,0.1
				c0,0.4,0,0.8,0,1.3L70.2,18.4z M68.4,17.5c0.5,0.1,1.1,0.3,1.6,0.5c0-0.3,0-0.6,0-0.9C69.5,17.2,68.9,17.3,68.4,17.5z M66,18.1
				l0.1-0.4l0.1,0h0.5L66,18.1z M63.1,18.1L63.1,18.1c-0.9-0.7-1.8-1.2-2.7-1.7l0,0l0,0c-0.5-0.9-1.2-1.8-2-2.5
				c-0.5-0.4-1-0.8-1.6-1.2l-0.2-0.1l0.2-0.1c1.6-1.2,3.4-1.9,5.2-2c0.6,0,1.2,0,1.8,0.1l0.1,0l0,0.1c0.1,0.1,0.1,0.2,0.2,0.3l0,0.1
				l0,0.1c-0.1,0.2-0.3,0.4-0.4,0.6l0,0c-0.8,1.6-0.9,3.7-0.2,6.3l0,0.1l-0.1,0C63.4,18,63.3,18.1,63.1,18.1L63.1,18.1z M60.6,16.2
				c0.9,0.5,1.8,1,2.6,1.6c0.1,0,0.1,0,0.2-0.1c-0.7-2.5-0.6-4.7,0.2-6.3h0c0.1-0.2,0.2-0.4,0.3-0.5c0-0.1-0.1-0.1-0.1-0.2
				c-0.6-0.1-1.2-0.1-1.7-0.1c-1.7,0.1-3.4,0.8-5,1.9c0.5,0.3,1,0.7,1.4,1.1C59.3,14.4,60,15.3,60.6,16.2z M63.8,17.9l0-0.1
				c-0.7-2.5-0.7-4.5,0.2-6.1c0.1-0.1,0.1-0.2,0.2-0.4l0.1-0.2l0.1,0.2c0.8,1.5,1.5,3.2,2.1,5l0,0l0,0c-0.1,0.3-0.2,0.6-0.3,0.9h0
				L66,17.6l-0.1,0c-0.1,0-0.3,0-0.4,0c-0.5,0-1.1,0.1-1.6,0.3L63.8,17.9z M64.2,11.6c0,0.1-0.1,0.1-0.1,0.2
				c-0.8,1.5-0.8,3.5-0.2,5.8c0.5-0.1,1-0.2,1.6-0.3c0.1,0,0.2,0,0.3,0l0-0.1c0.1-0.3,0.2-0.6,0.3-0.9C65.6,14.6,65,13,64.2,11.6z
				 M43.9,17.7l0.2-0.4c0.4-0.9,0.9-1.8,1.6-2.5l0.1-0.1l0.1,0c0.3,0.1,0.6,0.2,0.9,0.3l0.1,0l0,0.1c0,0.3,0,0.5,0.1,0.8l0,0.1
				l-0.1,0c-0.9,0.4-1.8,0.9-2.6,1.5L43.9,17.7z M45.8,15c-0.5,0.6-1,1.3-1.3,2c0.7-0.5,1.4-0.9,2.2-1.2c0-0.2,0-0.4-0.1-0.6
				C46.3,15.1,46,15.1,45.8,15z M67,17.6l0-0.1c-0.1-0.4-0.2-0.7-0.3-1.1l0,0l0,0c0.4-1.4,0.7-2.8,0.7-4.2l0-0.2l0.2,0.1
				c0.8,0.6,1.5,1.4,1.9,2.2c0.4,0.7,0.6,1.4,0.7,2.2l0,0.1l-0.1,0c-1,0.2-2,0.5-2.9,0.9L67,17.6z M66.9,16.3
				c0.1,0.3,0.2,0.6,0.3,0.9c0.9-0.4,1.8-0.7,2.7-0.8c-0.1-0.7-0.3-1.4-0.7-2l0,0c-0.4-0.7-1-1.4-1.7-2C67.6,13.7,67.3,15,66.9,16.3
				z M66.8,17.6l-0.2,0c-0.1,0-0.2,0-0.3,0l-0.2,0l0-0.2c0-0.1,0.1-0.2,0.1-0.4l0.1-0.4l0.1,0.4c0,0.1,0.1,0.3,0.1,0.4L66.8,17.6z
				 M52.8,17l-0.1,0c-0.9-0.4-1.8-0.7-2.8-1.1c-0.3-0.1-0.5-0.2-0.8-0.3l-0.4-0.1l0.4-0.1c1.6-0.4,3.2-0.6,4.8-0.5l0.2,0L54,15
				c-0.4,0.6-0.8,1.2-1.2,1.8L52.8,17z M49.6,15.5c0.1,0,0.3,0.1,0.4,0.1c0.9,0.3,1.8,0.7,2.7,1c0.3-0.6,0.6-1.1,1-1.6
				C52.3,15,50.9,15.1,49.6,15.5z M70.4,16.6l0-0.1c-0.1-0.8-0.4-1.6-0.7-2.3c-0.5-1-1.3-1.8-2.2-2.5l-0.1,0l0-0.1
				c0-0.4,0-0.7-0.1-1.1l0-0.3l0.2,0.2c1.9,1.6,3.6,3.4,5,5.5l0,0l0,0.1c0,0.2-0.1,0.3-0.2,0.5l0,0.1l-0.1,0c-0.3,0-0.7,0-1,0
				c-0.2,0-0.5,0-0.7,0.1L70.4,16.6z M67.6,11.5c1,0.7,1.7,1.5,2.3,2.5c0.4,0.7,0.6,1.4,0.7,2.3c0.2,0,0.4,0,0.6-0.1
				c0.3,0,0.6,0,1,0c0-0.1,0.1-0.2,0.1-0.3c-1.3-1.9-2.9-3.7-4.7-5.2C67.6,11,67.6,11.3,67.6,11.5z M72.7,16.6l-0.2,0l0-0.2l0.1-0.3
				l0.3,0.4L72.7,16.6z M60.1,16.2l-0.4-0.2c-1.6-0.7-3.3-1.2-5-1.4l-0.2,0l0.2-0.2c0.5-0.6,1.1-1.2,1.8-1.7l0.1-0.1l0.1,0
				c0.6,0.3,1.2,0.8,1.7,1.2c0.6,0.6,1.1,1.2,1.6,1.9L60.1,16.2z M55,14.5c1.5,0.2,3,0.6,4.4,1.2c-0.4-0.5-0.8-1-1.3-1.5
				c-0.5-0.5-1-0.8-1.6-1.2C56,13.4,55.5,13.9,55,14.5z M66.6,16l-0.1-0.4c-0.6-1.7-1.2-3.3-2-4.6l0-0.1l0.1-0.1
				c0-0.1,0.1-0.1,0.1-0.2l0.1-0.1l0.1,0c0.9,0.2,1.7,0.6,2.4,1.1l0.1,0v0.1c0,1.2-0.2,2.5-0.5,3.8L66.6,16z M64.7,11
				c0.7,1.3,1.3,2.7,1.8,4.2c0.3-1.1,0.4-2.2,0.4-3.3C66.3,11.5,65.5,11.2,64.7,11C64.7,11,64.7,11,64.7,11z M47,15.9l0-0.2
				c0-0.2,0-0.3,0-0.5l0-0.2l0.2,0.1c0.2,0.1,0.5,0.1,0.7,0.2l0.4,0.1l-0.3,0.1c-0.2,0.1-0.4,0.2-0.6,0.2L47,15.9z M47.2,15.4
				c0,0,0,0.1,0,0.1c0,0,0.1,0,0.1-0.1C47.3,15.4,47.3,15.4,47.2,15.4z M72.6,15.7l-0.2-0.2c-1.4-2.1-3.2-3.9-5.2-5.5l0,0l0,0
				c0-0.1,0-0.3-0.1-0.4l0-0.1l0.1,0c0.2,0,0.4-0.1,0.6-0.1h0c1.7-0.1,3.2,0.6,4.1,1.8c0.8,1.2,1.1,2.7,0.8,4.3L72.6,15.7z
				 M67.4,9.8c1.9,1.5,3.6,3.3,5,5.3c0.2-1.4,0-2.8-0.8-3.8c-0.8-1.1-2.1-1.7-3.6-1.7c-0.1,0-0.2,0-0.3,0c-0.1,0-0.3,0-0.4,0
				C67.4,9.7,67.4,9.7,67.4,9.8z M48.5,15.3L48.5,15.3c-0.5-0.2-1-0.3-1.4-0.4l-0.1,0l0-0.2c0-0.4,0-0.7,0-1.1l0-0.1l0,0
				c0.2-0.2,0.5-0.3,0.7-0.5c1.8-1.1,3.8-1.6,5.7-1.4c1,0.1,1.9,0.4,2.8,0.9l0.2,0.1l-0.1,0.1c-0.7,0.5-1.3,1.2-1.8,1.8l0,0l-0.1,0
				c-0.4,0-0.7,0-1.1,0C51.6,14.6,50,14.8,48.5,15.3L48.5,15.3z M47.2,14.7c0.4,0.1,0.8,0.3,1.3,0.4c1.5-0.5,3.1-0.7,4.7-0.7
				c0.3,0,0.7,0,1,0c0.5-0.6,1.1-1.2,1.7-1.7c-0.8-0.4-1.7-0.7-2.6-0.8c-1.8-0.2-3.8,0.2-5.5,1.3c-0.2,0.1-0.4,0.3-0.6,0.4
				C47.2,14,47.2,14.3,47.2,14.7z M54.1,14.4L54.1,14.4L54.1,14.4z M46.8,14.8l-0.2,0c-0.2-0.1-0.4-0.1-0.6-0.2l-0.2-0.1l0.2-0.2
				c0.2-0.2,0.4-0.4,0.6-0.6l0.2-0.2l0,0.3c0,0.2,0,0.5,0,0.7L46.8,14.8z M46.3,14.4c0.1,0,0.1,0,0.2,0.1c0-0.1,0-0.2,0-0.3
				C46.4,14.3,46.4,14.4,46.3,14.4z M45.6,14.5L45.6,14.5c-2.1-0.5-3.9-0.8-5.7-0.8c-1.1,0-2.2,0.1-3.2,0.3l-0.2,0l0-0.2
				c0-0.2,0.1-0.3,0.1-0.5l0,0c0.5-0.7,1-1.4,1.6-2c2.3-2.4,5.3-4.2,8.6-5.2c1-0.3,1.9-0.5,2.9-0.7l0.3-0.1L50,5.6
				c-0.6,0.7-1.2,1.5-1.6,2.3l0,0c-0.9,1.7-1.5,3.5-1.6,5.4l0,0.1l0,0C46.4,13.8,46,14.1,45.6,14.5L45.6,14.5z M39.8,13.5
				c0.1,0,0.1,0,0.2,0c1.8,0,3.6,0.3,5.6,0.7c0.3-0.3,0.7-0.6,1-0.9c0.1-1.9,0.7-3.8,1.6-5.5l0,0c0.4-0.7,0.9-1.4,1.4-2.1
				c-0.9,0.2-1.7,0.4-2.6,0.6c-3.3,1-6.3,2.8-8.5,5.2c-0.6,0.6-1.1,1.2-1.6,1.9c0,0.1-0.1,0.2-0.1,0.3
				C37.8,13.6,38.8,13.5,39.8,13.5z M47,13.3l0-0.3c0.2-1.7,0.7-3.5,1.5-5c0.5-1,1.2-1.9,2-2.6l0,0l0,0c2.2-0.3,4.4-0.2,6.5,0.2
				c1.3,0.2,2.6,0.6,3.9,1.1l0,0c0.5,0.5,1,1.1,1.5,1.8c0.4,0.5,0.8,1.1,1.2,1.7l0.1,0.2l-0.3,0c-0.5-0.1-1-0.1-1.5,0
				c-1.9,0.1-3.8,0.9-5.5,2.2l-0.1,0l-0.1,0c-1-0.5-2-0.9-3-1l0,0c-0.3,0-0.6-0.1-1-0.1c-1.7,0-3.3,0.5-4.8,1.4
				c-0.1,0.1-0.3,0.2-0.4,0.3L47,13.3z M50.6,5.6c-0.7,0.7-1.4,1.6-1.9,2.6c-0.8,1.4-1.3,3-1.5,4.6c0.1,0,0.1-0.1,0.2-0.1
				c1.5-1,3.2-1.5,4.9-1.5c0.3,0,0.7,0,1,0.1l0,0c1.1,0.1,2.1,0.5,3.1,1c1.7-1.3,3.6-2,5.5-2.2c0.4,0,0.9,0,1.3,0
				c-0.3-0.5-0.7-1-1-1.5c-0.5-0.6-1-1.2-1.5-1.7c-1.2-0.5-2.5-0.8-3.8-1.1C55,5.4,52.8,5.3,50.6,5.6z M36.8,12.8l0.3-0.7
				c0.4-1.2,1-2.3,1.7-3.4C41.7,4.2,47,1.5,52,2c0.8,0.1,1.5,0.2,2.3,0.5l0.4,0.1l-0.4,0.1c-0.3,0.1-0.7,0.3-1,0.4l0,0
				c-1,0.5-2,1.2-2.8,2l0,0l0,0c-1.2,0.2-2.4,0.4-3.5,0.8c-3.4,1-6.4,2.9-8.7,5.3c-0.3,0.3-0.6,0.7-0.9,1L36.8,12.8z M50.8,2.2
				c-4.5,0-9.1,2.6-11.8,6.7c-0.5,0.8-1,1.7-1.4,2.6c0.1-0.2,0.3-0.3,0.4-0.5c2.3-2.5,5.4-4.3,8.8-5.4c1.1-0.3,2.3-0.6,3.5-0.8
				c0.9-0.8,1.8-1.5,2.9-2c0.2-0.1,0.4-0.2,0.7-0.3c-0.6-0.2-1.3-0.3-1.9-0.4C51.6,2.2,51.2,2.2,50.8,2.2z M67.2,11.6L67,11.4
				c-0.2-0.1-0.4-0.2-0.6-0.3c-0.4-0.2-0.9-0.4-1.4-0.6l-0.2-0.1l0.2-0.2c0.4-0.3,0.9-0.6,1.4-0.8l0.1,0l0.1,0
				c0.2,0.1,0.4,0.3,0.6,0.4l0,0l0,0c0.1,0.4,0.1,0.8,0.1,1.2L67.2,11.6z M65.3,10.4c0.4,0.1,0.8,0.3,1.2,0.5
				c0.1,0.1,0.2,0.1,0.4,0.2c0-0.3-0.1-0.6-0.1-0.9c-0.2-0.1-0.3-0.2-0.5-0.3C66,10,65.6,10.2,65.3,10.4z M64.6,10.5L64.6,10.5
				c-0.2,0-0.3-0.1-0.5-0.1l-0.1,0l0,0c-0.4-0.7-0.9-1.4-1.3-2c-0.3-0.4-0.6-0.8-0.9-1.1l-0.4-0.4L61.9,7c1.4,0.6,2.8,1.4,4.1,2.3
				l0.2,0.1L66,9.5C65.5,9.8,65,10.1,64.6,10.5L64.6,10.5z M64.2,10.1c0.1,0,0.2,0,0.3,0.1c0.4-0.3,0.8-0.6,1.2-0.8
				c-1.1-0.7-2.2-1.4-3.4-1.9c0.2,0.2,0.4,0.5,0.5,0.7C63.3,8.8,63.8,9.4,64.2,10.1z M66.4,9.4L66.4,9.4c-1.7-1.2-3.5-2.2-5.3-2.9
				l0,0c-1.6-1.6-3.5-2.9-5.4-3.7l-0.4-0.2l0.4-0.1c1.5-0.3,3-0.3,4.5,0.1c2.4,0.6,4.3,1.9,5.5,3.8c0.5,0.8,0.9,1.7,1.2,2.7l0,0.1
				l-0.1,0C66.7,9.3,66.6,9.3,66.4,9.4L66.4,9.4z M61.2,6.3c1.8,0.7,3.6,1.7,5.2,2.8c0,0,0.1,0,0.1,0c-0.2-0.9-0.6-1.8-1.1-2.5l0,0
				c-1.2-1.8-3.1-3.1-5.4-3.7c-1.3-0.3-2.6-0.4-4-0.2C58,3.5,59.7,4.7,61.2,6.3z M60.7,6.3l-0.6-0.2c-1-0.3-2-0.6-3-0.8
				c-2-0.4-4-0.5-6-0.2l-0.4,0L51,4.9c0.7-0.6,1.5-1.2,2.4-1.6l0,0c0.5-0.2,1-0.4,1.6-0.6l0,0l0,0c1.9,0.7,3.6,1.8,5.2,3.2L60.7,6.3
				z M53.3,4.7c1.3,0,2.6,0.1,3.9,0.4c0.8,0.2,1.6,0.4,2.5,0.6c-1.4-1.2-3-2.2-4.7-2.8c-0.5,0.1-1,0.3-1.5,0.6l0,0
				c-0.7,0.3-1.4,0.8-2,1.3C52.1,4.8,52.7,4.7,53.3,4.7z"/>
		</g>
	</g>
	<path class="st0" d="M335.2,50c-20.2,0-46.3-3.8-80.5-14.3l0.2-0.6c91.4,28.1,124.9,7.8,142.8-3.2c4.3-2.6,7.7-4.7,10.8-5.3
		l0.1,0.6c-2.9,0.6-6.3,2.6-10.6,5.2C386.8,39.3,369.3,50,335.2,50z"/>
	<g>
		<rect x="99.2" y="2.8" class="st1" width="155.1" height="53.3"/>
		<path class="st2" d="M255,56.7H98.5V2.1H255V56.7z M99.9,55.3h153.7V3.4H99.9V55.3z"/>
	</g>
	<g>
		<g>
			<path class="st2" d="M137.9,27.1c-1.7,0-3.3,0-5,0c0-1.1,0-2.2,0-3.3c-1.6,0-3.1,0-4.7,0c0,1.1,0,2.2,0,3.3c-1.7,0-3.3,0-5,0
				c0-0.1,0-0.3,0-0.4c0-5.1,0-10.3,0-15.4c0-0.1,0-0.3,0-0.4c4.9,0,9.8,0,14.7,0C137.9,16.3,137.9,21.7,137.9,27.1z M128.3,19.3
				c1.6,0,3.1,0,4.6,0c0-1.3,0-2.6,0-3.8c-1.5,0-3.1,0-4.6,0C128.3,16.7,128.3,18,128.3,19.3z"/>
			<path class="st2" d="M119.8,27.1c-4.1,0-8.2,0-12.4,0c0-5.4,0-10.8,0-16.2c4.1,0,8.2,0,12.4,0c0,1.5,0,3,0,4.5
				c-2.5,0-4.9,0-7.3,0c0,2.4,0,4.8,0,7.2c2.4,0,4.9,0,7.3,0C119.8,24.1,119.8,25.6,119.8,27.1z"/>
			<path class="st2" d="M141.4,10.9c1.7,0,3.3,0,5,0c0,0.2,0,0.3,0,0.5c0,3.6,0,7.1,0,10.7c0,0.2,0,0.3,0,0.5c1,0,1.9,0,2.9,0
				c0-0.7,0-1.4,0-2.1c1.7,0,3.3,0,5,0c0,0.2,0,0.3,0,0.5c0,2,0,4,0,6.1c-4.3,0-8.6,0-12.9,0c0-0.1,0-0.3,0-0.4c0-5.1,0-10.3,0-15.4
				C141.5,11.2,141.5,11,141.4,10.9z"/>
			<path class="st2" d="M157.3,10.9c1.7,0,3.3,0,5,0c0,0.2,0,0.3,0,0.5c0,3.6,0,7.1,0,10.7c0,0.2,0,0.3,0,0.5c1,0,1.9,0,2.9,0
				c0-0.7,0-1.4,0-2.1c1.7,0,3.3,0,5,0c0,0.2,0,0.3,0,0.5c0,2,0,4,0,6.1c-4.3,0-8.6,0-12.9,0c0-0.1,0-0.3,0-0.4c0-5.1,0-10.3,0-15.4
				C157.3,11.2,157.3,11,157.3,10.9z"/>
		</g>
		<g>
			<path class="st2" d="M155.6,31.7c4.9,0,9.8,0,14.7,0c0,5.4,0,10.8,0,16.2c-4.9,0-9.8,0-14.7,0C155.6,42.5,155.6,37.1,155.6,31.7z
				 M165.2,36.2c-1.6,0-3.1,0-4.6,0c0,2.4,0,4.8,0,7.2c1.6,0,3.1,0,4.6,0C165.2,41,165.2,38.6,165.2,36.2z"/>
			<path class="st2" d="M137,38.3c0-2.2,0-4.4,0-6.6c5.2,0,10.4,0,15.5,0c0,2.2,0,4.4,0,6.6c-1.3,0-2.6,0-3.8,0c0-0.7,0-1.4,0-2.1
				c-0.5,0-1,0-1.4,0c0,2.4,0,4.8,0,7.2c0.7,0,1.3,0,2,0c0,1.5,0,3,0,4.5c-3,0-6,0-9,0c0-1.5,0-3,0-4.5c0.7,0,1.3,0,2,0
				c0-2.4,0-4.8,0-7.2c-0.5,0-0.9,0-1.4,0c0,0.7,0,1.4,0,2.1C139.6,38.3,138.3,38.3,137,38.3z"/>
		</g>
		<g>
			<path class="st2" d="M196.6,47.9c-1.7,0-3.3,0-5,0c0-3.3,0-6.5,0-9.8c0,0,0-0.1-0.1-0.2c-1.3,1.3-2.5,2.5-3.8,3.8
				c-1.2-1.3-2.5-2.5-3.7-3.8c0,1.1,0,2.1,0,3.1c0,2.3,0,4.5,0,6.8c-1.6,0-3.3,0-4.9,0c0-0.2,0-0.3,0-0.5c0-4.1,0-8.2,0-12.3
				c0-1.1,0-2.2,0-3.4c1.7,0,3.3,0,5,0c0.1,0.1,0.1,0.2,0.2,0.2c1.1,1.2,2.3,2.3,3.4,3.5c0.1,0.1,0.1,0.1,0.2,0.2
				c0.4-0.4,0.8-0.8,1.2-1.2c0.8-0.9,1.7-1.7,2.5-2.6c1.7,0,3.3,0,5,0c0,1.7,0,3.4,0,5C196.6,40.5,196.6,44.2,196.6,47.9z"/>
			<path class="st2" d="M227.6,47.9c-1.7,0-3.3,0-5,0c0-0.5,0-1,0-1.5c0-0.2-0.1-0.4-0.2-0.5c-1.5-1.5-3.1-2.9-4.6-4.4
				c-0.1-0.1-0.1-0.1-0.3-0.2c0,0.2,0,0.4,0,0.5c0,2.1,0,4.1,0,6.2c-1.6,0-3.3,0-4.9,0c0-0.2,0-0.3,0-0.5c0-4.1,0-8.2,0-12.3
				c0-1.1,0-2.2,0-3.4c1.6,0,3.3,0,4.9,0c0,0.5,0,1,0,1.5c0,0.2,0.1,0.5,0.3,0.6c1.5,1.5,3,2.9,4.5,4.4c0.1,0.1,0.2,0.1,0.3,0.2
				c0-0.2,0-0.4,0-0.5c0-1.7,0-3.4,0-5.1c0-0.4,0-0.7,0-1.1c1.7,0,3.3,0,5,0C227.6,37.1,227.6,42.5,227.6,47.9z"/>
			<path class="st2" d="M241.6,47.9c-3.5,0-6.9,0-10.4,0c0-0.2,0-0.3,0-0.5c0-4.1,0-8.2,0-12.3c0-1.1,0-2.2,0-3.4
				c3.4,0,6.9,0,10.3,0c1.4,1.4,2.9,2.9,4.3,4.3c0,2.5,0,5,0,7.6C244.4,45,243,46.5,241.6,47.9z M236.2,43.4c0.7,0,1.5-0.1,2.2,0
				c0.9,0.1,1.7-0.1,2.2-0.9c0.1-0.2,0.2-0.4,0.3-0.6c0-1.3,0-2.7,0-4c0-0.4-0.1-0.6-0.4-0.9c-0.5-0.6-1.1-0.9-2-0.8
				c-0.8,0.1-1.5,0-2.3,0C236.2,38.6,236.2,41,236.2,43.4z"/>
			<path class="st2" d="M209,47.9c-3,0-6,0-8.9,0c0-1.5,0-3,0-4.5c0.7,0,1.3,0,2,0c0-2.4,0-4.8,0-7.2c-0.7,0-1.3,0-2,0
				c0-1.5,0-3,0-4.5c3,0,6,0,8.9,0c0,1.5,0,3,0,4.5c-0.7,0-1.3,0-1.9,0c0,2.4,0,4.8,0,7.2c0.7,0,1.3,0,1.9,0
				C209,44.9,209,46.4,209,47.9z"/>
		</g>
	</g>
</g>
</svg>
