<?xml version="1.0" encoding="utf-8"?>
<!-- Generator: Adobe Illustrator 22.0.1, SVG Export Plug-In . SVG Version: 6.00 Build 0)  -->
<svg version="1.1" id="Layer_1" xmlns="http://www.w3.org/2000/svg" xmlns:xlink="http://www.w3.org/1999/xlink" x="0px" y="0px"
	 viewBox="0 0 32 32" style="enable-background:new 0 0 32 32;" xml:space="preserve">
<style type="text/css">
	.st0{fill:none;stroke:#62BB46;stroke-width:0.8279;stroke-miterlimit:10;}
</style>
<g>
	<path class="st0" d="M31.4,12.2c0,5.9-0.8,10.3-2.5,13.4c-1.7,3-4.4,4.6-8.3,4.8l-2.1-4.2c2.2-0.2,3.7-1.3,4.6-3.2
		c0.9-1.9,1.3-4.9,1.3-9.1h-5.8V1.6h12.7V12.2z M13.7,12.2c0,5.9-0.8,10.3-2.5,13.4c-1.7,3-4.4,4.6-8.3,4.8l-2.1-4.2
		c2.2-0.2,3.7-1.3,4.6-3.2C6.3,21,6.7,18,6.7,13.8H0.9V1.6h12.7V12.2z"/>
</g>
</svg>
