<?xml version="1.0" encoding="utf-8"?>
<!-- Generator: Adobe Illustrator 22.0.1, SVG Export Plug-In . SVG Version: 6.00 Build 0)  -->
<svg version="1.1" id="Layer_1" xmlns="http://www.w3.org/2000/svg" xmlns:xlink="http://www.w3.org/1999/xlink" x="0px" y="0px"
	 viewBox="0 0 32 32" style="enable-background:new 0 0 32 32;" xml:space="preserve">
<style type="text/css">
	.st0{fill:none;stroke:#62BB46;stroke-width:0.8279;stroke-miterlimit:10;}
</style>
<g>
	<path class="st0" d="M0.8,19.8c0-5.9,0.8-10.3,2.5-13.4c1.7-3,4.4-4.6,8.3-4.8l2.1,4.2C11.5,6.1,10,7.1,9.1,9
		c-0.9,1.9-1.3,4.9-1.3,9.1h5.8v12.2H0.8V19.8z M18.6,19.8c0-5.9,0.8-10.3,2.5-13.4c1.7-3,4.4-4.6,8.3-4.8l2.1,4.2
		c-2.2,0.2-3.7,1.3-4.6,3.2c-0.9,1.9-1.3,4.9-1.3,9.1h5.8v12.2H18.6V19.8z"/>
</g>
</svg>
